Scheherazade-Regular.ufo
<glyph name="exclam" format="2">
  <advance width="666"/>
  <unicode hex="0021"/>
  <outline>
    <contour>
      <point x="434" y="1006" type="curve" smooth="yes"/>
      <point x="434" y="1118"/>
      <point x="391" y="1177"/>
      <point x="331" y="1177" type="curve" smooth="yes"/>
      <point x="275" y="1177"/>
      <point x="232" y="1118"/>
      <point x="232" y="1006" type="curve" smooth="yes"/>
      <point x="232" y="900"/>
      <point x="248" y="799"/>
      <point x="272" y="666" type="curve" smooth="yes"/>
      <point x="302" y="502"/>
      <point x="307" y="539"/>
      <point x="307" y="209" type="curve" smooth="yes" name="hr01"/>
      <point x="307" y="200"/>
      <point x="319" y="196"/>
      <point x="332" y="196" type="curve" smooth="yes"/>
      <point x="346" y="196"/>
      <point x="359" y="200"/>
      <point x="359" y="209" type="curve" smooth="yes"/>
      <point x="359" y="539"/>
      <point x="364" y="502"/>
      <point x="394" y="666" type="curve" smooth="yes"/>
      <point x="418" y="799"/>
      <point x="434" y="900"/>
    </contour>
    <contour>
      <point x="438" y="17" type="curve" smooth="yes"/>
      <point x="438" y="76"/>
      <point x="391" y="122"/>
      <point x="331" y="122" type="curve" smooth="yes"/>
      <point x="275" y="122"/>
      <point x="228" y="76"/>
      <point x="228" y="17" type="curve" smooth="yes"/>
      <point x="228" y="-40"/>
      <point x="275" y="-86"/>
      <point x="331" y="-86" type="curve" smooth="yes"/>
      <point x="391" y="-86"/>
      <point x="438" y="-40"/>
    </contour>
  </outline>
</glyph>
<glyph name="numbersign" format="2">
  <unicode hex="0023"/>
  <advance width="772"/>
  <outline>
    <contour>
      <point x="745" y="322" type="line"/>
      <point x="745" y="385" type="line"/>
      <point x="553" y="385" type="line"/>
      <point x="606" y="643" type="line"/>
      <point x="745" y="643" type="line"/>
      <point x="745" y="702" type="line"/>
      <point x="616" y="702" type="line"/>
      <point x="688" y="1044" type="line"/>
      <point x="625" y="1044" type="line"/>
      <point x="553" y="702" type="line"/>
      <point x="299" y="702" type="line"/>
      <point x="365" y="1044" type="line"/>
      <point x="305" y="1044" type="line"/>
      <point x="236" y="702" type="line"/>
      <point x="27" y="702" type="line"/>
      <point x="27" y="643" type="line"/>
      <point x="221" y="643" type="line"/>
      <point x="168" y="385" type="line"/>
      <point x="27" y="385" type="line"/>
      <point x="27" y="322" type="line"/>
      <point x="156" y="322" type="line"/>
      <point x="86" y="-23" type="line"/>
      <point x="150" y="-23" type="line"/>
      <point x="221" y="322" type="line"/>
      <point x="477" y="322" type="line"/>
      <point x="408" y="-23" type="line"/>
      <point x="469" y="-23" type="line"/>
      <point x="539" y="322" type="line"/>
    </contour>
    <contour>
      <point x="543" y="643" type="line"/>
      <point x="489" y="385" type="line"/>
      <point x="231" y="385" type="line"/>
      <point x="285" y="643" type="line"/>
    </contour>
  </outline>
</glyph>
<glyph name="percent" format="2">
  <advance width="1335"/>
  <unicode hex="0025"/>
  <outline>
    <contour>
      <point x="1219" y="383" type="curve" smooth="yes"/>
      <point x="1219" y="477"/>
      <point x="1149" y="553"/>
      <point x="1055" y="553" type="curve" smooth="yes"/>
      <point x="879" y="553"/>
      <point x="719" y="360"/>
      <point x="719" y="190" type="curve" smooth="yes"/>
      <point x="719" y="57"/>
      <point x="776" y="-23"/>
      <point x="915" y="-23" type="curve" smooth="yes"/>
      <point x="1108" y="-23"/>
      <point x="1219" y="217"/>
    </contour>
    <contour>
      <point x="1006" y="1049" type="line"/>
      <point x="932" y="1049" type="line"/>
      <point x="874" y="973"/>
      <point x="791" y="942"/>
      <point x="698" y="942" type="curve" smooth="yes"/>
      <point x="575" y="942"/>
      <point x="559" y="1026"/>
      <point x="451" y="1026" type="curve" smooth="yes"/>
      <point x="276" y="1026"/>
      <point x="117" y="827"/>
      <point x="117" y="659" type="curve" smooth="yes"/>
      <point x="117" y="535"/>
      <point x="166" y="446"/>
      <point x="301" y="446" type="curve" smooth="yes"/>
      <point x="481" y="446"/>
      <point x="618" y="674"/>
      <point x="618" y="836" type="curve" smooth="yes"/>
      <point x="618" y="864"/>
      <point x="606" y="891"/>
      <point x="606" y="920" type="curve"/>
      <point x="631" y="909"/>
      <point x="657" y="907"/>
      <point x="684" y="907" type="curve" smooth="yes"/>
      <point x="750" y="907"/>
      <point x="813" y="922"/>
      <point x="874" y="948" type="curve"/>
      <point x="334" y="-23" type="line"/>
      <point x="408" y="-23" type="line"/>
    </contour>
    <contour>
      <point x="1180" y="375" type="curve" smooth="yes"/>
      <point x="1180" y="248"/>
      <point x="1081" y="25"/>
      <point x="932" y="25" type="curve" smooth="yes"/>
      <point x="864" y="25"/>
      <point x="836" y="68"/>
      <point x="836" y="133" type="curve" smooth="yes"/>
      <point x="836" y="252"/>
      <point x="930" y="504"/>
      <point x="1071" y="504" type="curve" smooth="yes"/>
      <point x="1143" y="504"/>
      <point x="1180" y="438"/>
    </contour>
    <contour>
      <point x="578" y="858" type="curve" smooth="yes"/>
      <point x="578" y="727"/>
      <point x="485" y="500"/>
      <point x="332" y="500" type="curve" smooth="yes"/>
      <point x="260" y="500"/>
      <point x="236" y="549"/>
      <point x="236" y="614" type="curve" smooth="yes"/>
      <point x="236" y="711"/>
      <point x="268" y="801"/>
      <point x="325" y="877" type="curve" smooth="yes"/>
      <point x="352" y="913"/>
      <point x="406" y="981"/>
      <point x="457" y="981" type="curve" smooth="yes"/>
      <point x="477" y="981"/>
      <point x="535" y="938"/>
      <point x="565" y="930" type="curve"/>
      <point x="567" y="909"/>
      <point x="578" y="879"/>
    </contour>
  </outline>
</glyph>
<glyph name="ampersand" format="2">
  <advance width="1442"/>
  <unicode hex="0026"/>
  <outline>
    <contour>
      <point x="1384" y="221" type="curve"/>
      <point x="1351" y="244" type="line"/>
      <point x="1330" y="157"/>
      <point x="1276" y="110"/>
      <point x="1184" y="110" type="curve" smooth="yes"/>
      <point x="1079" y="110"/>
      <point x="980" y="206"/>
      <point x="914" y="280" type="curve"/>
      <point x="983" y="366"/>
      <point x="1043" y="455"/>
      <point x="1096" y="551" type="curve" smooth="yes"/>
      <point x="1121" y="596"/>
      <point x="1172" y="688"/>
      <point x="1212" y="720" type="curve" smooth="yes"/>
      <point x="1243" y="745"/>
      <point x="1297" y="754"/>
      <point x="1325" y="755" type="curve"/>
      <point x="1325" y="788" type="line"/>
      <point x="943" y="788" type="line"/>
      <point x="943" y="755" type="line"/>
      <point x="1002" y="755"/>
      <point x="1030" y="703"/>
      <point x="1030" y="654" type="curve" smooth="yes"/>
      <point x="1030" y="541"/>
      <point x="941" y="418"/>
      <point x="872" y="335" type="curve"/>
      <point x="781" y="452"/>
      <point x="703" y="577"/>
      <point x="631" y="708" type="curve"/>
      <point x="760" y="774"/>
      <point x="929" y="865"/>
      <point x="929" y="1034" type="curve" smooth="yes"/>
      <point x="929" y="1175"/>
      <point x="816" y="1253"/>
      <point x="683" y="1253" type="curve" smooth="yes"/>
      <point x="504" y="1253"/>
      <point x="368" y="1140"/>
      <point x="368" y="956" type="curve" smooth="yes"/>
      <point x="368" y="865"/>
      <point x="406" y="767"/>
      <point x="445" y="685" type="curve"/>
      <point x="277" y="598"/>
      <point x="68" y="452"/>
      <point x="68" y="244" type="curve" smooth="yes"/>
      <point x="68" y="64"/>
      <point x="232" y="-30"/>
      <point x="394" y="-30" type="curve" smooth="yes"/>
      <point x="558" y="-30"/>
      <point x="668" y="44"/>
      <point x="786" y="148" type="curve"/>
      <point x="870" y="59"/>
      <point x="978" y="-30"/>
      <point x="1106" y="-30" type="curve" smooth="yes"/>
      <point x="1256" y="-30"/>
      <point x="1354" y="79"/>
    </contour>
    <contour>
      <point x="823" y="1037" type="curve" smooth="yes"/>
      <point x="823" y="902"/>
      <point x="713" y="818"/>
      <point x="600" y="767" type="curve"/>
      <point x="565" y="842"/>
      <point x="523" y="943"/>
      <point x="523" y="1027" type="curve" smooth="yes"/>
      <point x="523" y="1118"/>
      <point x="593" y="1189"/>
      <point x="683" y="1189" type="curve" smooth="yes"/>
      <point x="769" y="1189"/>
      <point x="823" y="1118"/>
    </contour>
    <contour>
      <point x="739" y="199" type="curve" name="hr01"/>
      <point x="668" y="143"/>
      <point x="580" y="82"/>
      <point x="484" y="82" type="curve" smooth="yes"/>
      <point x="347" y="82"/>
      <point x="256" y="192"/>
      <point x="256" y="324" type="curve" smooth="yes"/>
      <point x="256" y="464"/>
      <point x="356" y="560"/>
      <point x="472" y="624" type="curve"/>
      <point x="553" y="472"/>
      <point x="636" y="340"/>
    </contour>
  </outline>
</glyph>
<glyph name="parenleft" format="2">
  <advance width="656"/>
  <unicode hex="0028"/>
  <outline>
    <contour>
      <point x="602" y="-434" type="line"/>
      <point x="499" y="-331"/>
      <point x="420" y="-244"/>
      <point x="364" y="-136" type="curve" smooth="yes"/>
      <point x="307" y="-28"/>
      <point x="246" y="110"/>
      <point x="246" y="295" type="curve" smooth="yes"/>
      <point x="246" y="476"/>
      <point x="307" y="614"/>
      <point x="364" y="722" type="curve" smooth="yes"/>
      <point x="420" y="830"/>
      <point x="499" y="922"/>
      <point x="602" y="1022" type="curve"/>
      <point x="587" y="1037" type="line"/>
      <point x="526" y="1010"/>
      <point x="406" y="924"/>
      <point x="316" y="827" type="curve" smooth="yes"/>
      <point x="194" y="698"/>
      <point x="91" y="541"/>
      <point x="91" y="295" type="curve" smooth="yes"/>
      <point x="91" y="49"/>
      <point x="194" y="-110"/>
      <point x="316" y="-240" type="curve" smooth="yes"/>
      <point x="406" y="-337"/>
      <point x="526" y="-422"/>
      <point x="587" y="-450" type="curve"/>
    </contour>
  </outline>
</glyph>
<glyph name="parenright" format="2">
  <advance width="656"/>
  <unicode hex="0029"/>
  <outline>
    <contour>
      <point x="563" y="295" type="curve" smooth="yes"/>
      <point x="563" y="541"/>
      <point x="462" y="698"/>
      <point x="340" y="828" type="curve" smooth="yes"/>
      <point x="248" y="924"/>
      <point x="127" y="1010"/>
      <point x="66" y="1037" type="curve"/>
      <point x="52" y="1022" type="line"/>
      <point x="155" y="922"/>
      <point x="234" y="830"/>
      <point x="292" y="722" type="curve" smooth="yes"/>
      <point x="349" y="614"/>
      <point x="408" y="476"/>
      <point x="408" y="295" type="curve" smooth="yes"/>
      <point x="408" y="110"/>
      <point x="349" y="-28"/>
      <point x="292" y="-136" type="curve" smooth="yes"/>
      <point x="234" y="-244"/>
      <point x="155" y="-331"/>
      <point x="52" y="-434" type="curve"/>
      <point x="66" y="-450" type="line"/>
      <point x="127" y="-422"/>
      <point x="248" y="-337"/>
      <point x="340" y="-241" type="curve" smooth="yes"/>
      <point x="462" y="-110"/>
      <point x="563" y="49"/>
    </contour>
  </outline>
</glyph>
<glyph name="asterisk" format="2">
  <advance width="826"/>
  <unicode hex="002A"/>
  <outline>
    <contour>
      <point x="665" y="576" type="curve" smooth="yes"/>
      <point x="644" y="576"/>
      <point x="617" y="564"/>
      <point x="587" y="533" type="curve" smooth="yes"/>
      <point x="544" y="490"/>
      <point x="468" y="364"/>
      <point x="468" y="344" type="curve"/>
      <point x="468" y="342"/>
      <point x="470" y="341"/>
      <point x="472" y="341" type="curve"/>
      <point x="492" y="341"/>
      <point x="617" y="415"/>
      <point x="661" y="460" type="curve" smooth="yes"/>
      <point x="692" y="491"/>
      <point x="704" y="518"/>
      <point x="704" y="539" type="curve" smooth="yes"/>
      <point x="704" y="563"/>
      <point x="685" y="576"/>
    </contour>
    <contour>
      <point x="464" y="584" type="curve" smooth="yes"/>
      <point x="464" y="654"/>
      <point x="440" y="683"/>
      <point x="413" y="683" type="curve" smooth="yes"/>
      <point x="386" y="683"/>
      <point x="359" y="654"/>
      <point x="359" y="584" type="curve" smooth="yes"/>
      <point x="359" y="518"/>
      <point x="401" y="364"/>
      <point x="413" y="364" type="curve" smooth="yes"/>
      <point x="422" y="364"/>
      <point x="464" y="518"/>
    </contour>
    <contour>
      <point x="811" y="286" type="curve" smooth="yes"/>
      <point x="811" y="312"/>
      <point x="779" y="337"/>
      <point x="713" y="337" type="curve" smooth="yes"/>
      <point x="644" y="337"/>
      <point x="492" y="298"/>
      <point x="492" y="286" type="curve" smooth="yes"/>
      <point x="492" y="272"/>
      <point x="644" y="234"/>
      <point x="713" y="234" type="curve" smooth="yes"/>
      <point x="779" y="234"/>
      <point x="811" y="258"/>
    </contour>
    <contour>
      <point x="356" y="344" type="curve"/>
      <point x="356" y="361"/>
      <point x="283" y="490"/>
      <point x="239" y="533" type="curve" smooth="yes"/>
      <point x="208" y="564"/>
      <point x="180" y="576"/>
      <point x="160" y="576" type="curve" smooth="yes"/>
      <point x="137" y="576"/>
      <point x="120" y="559"/>
      <point x="120" y="539" type="curve" smooth="yes"/>
      <point x="120" y="518"/>
      <point x="132" y="491"/>
      <point x="163" y="461" type="curve" smooth="yes"/>
      <point x="209" y="415"/>
      <point x="334" y="341"/>
      <point x="354" y="341" type="curve"/>
      <point x="355" y="341"/>
      <point x="356" y="342"/>
    </contour>
    <contour>
      <point x="704" y="32" type="curve" smooth="yes"/>
      <point x="704" y="53"/>
      <point x="692" y="79"/>
      <point x="661" y="110" type="curve" smooth="yes"/>
      <point x="617" y="155"/>
      <point x="492" y="229"/>
      <point x="472" y="229" type="curve"/>
      <point x="469" y="229"/>
      <point x="468" y="227"/>
      <point x="468" y="226" type="curve"/>
      <point x="468" y="206"/>
      <point x="544" y="82"/>
      <point x="587" y="37" type="curve" smooth="yes"/>
      <point x="617" y="6"/>
      <point x="644" y="-6"/>
      <point x="665" y="-6" type="curve" smooth="yes"/>
      <point x="689" y="-6"/>
      <point x="704" y="11"/>
    </contour>
    <contour>
      <point x="335" y="286" type="curve" smooth="yes"/>
      <point x="335" y="298"/>
      <point x="180" y="337"/>
      <point x="113" y="337" type="curve" smooth="yes"/>
      <point x="44" y="337"/>
      <point x="14" y="312"/>
      <point x="14" y="286" type="curve" smooth="yes"/>
      <point x="14" y="258"/>
      <point x="44" y="234"/>
      <point x="113" y="234" type="curve" smooth="yes"/>
      <point x="180" y="234"/>
      <point x="335" y="272"/>
    </contour>
    <contour>
      <point x="464" y="-14" type="curve" smooth="yes"/>
      <point x="464" y="52"/>
      <point x="422" y="206"/>
      <point x="413" y="206" type="curve" smooth="yes"/>
      <point x="401" y="206"/>
      <point x="359" y="52"/>
      <point x="359" y="-14" type="curve" smooth="yes"/>
      <point x="359" y="-84"/>
      <point x="386" y="-113"/>
      <point x="413" y="-113" type="curve" smooth="yes"/>
      <point x="440" y="-113"/>
      <point x="464" y="-84"/>
    </contour>
    <contour>
      <point x="354" y="229" type="curve"/>
      <point x="334" y="229"/>
      <point x="209" y="155"/>
      <point x="163" y="109" type="curve" smooth="yes"/>
      <point x="132" y="78"/>
      <point x="120" y="52"/>
      <point x="120" y="31" type="curve" smooth="yes"/>
      <point x="120" y="8"/>
      <point x="139" y="-6"/>
      <point x="160" y="-6" type="curve" smooth="yes"/>
      <point x="180" y="-6"/>
      <point x="208" y="6"/>
      <point x="239" y="37" type="curve" smooth="yes"/>
      <point x="283" y="82"/>
      <point x="356" y="209"/>
      <point x="356" y="226" type="curve"/>
      <point x="356" y="228"/>
      <point x="355" y="229"/>
    </contour>
  </outline>
</glyph>
<glyph name="plus" format="2">
  <advance width="915"/>
  <unicode hex="002B"/>
  <outline>
    <contour>
      <point x="872" y="389" type="line"/>
      <point x="872" y="453" type="line"/>
      <point x="485" y="453" type="line"/>
      <point x="485" y="840" type="line"/>
      <point x="424" y="840" type="line"/>
      <point x="424" y="453" type="line"/>
      <point x="37" y="453" type="line"/>
      <point x="37" y="389" type="line"/>
      <point x="424" y="389" type="line"/>
      <point x="424" y="4" type="line"/>
      <point x="485" y="4" type="line"/>
      <point x="485" y="389" type="line"/>
    </contour>
  </outline>
</glyph>
<glyph name="comma" format="2">
  <advance width="464"/>
  <unicode hex="002C"/>
  <outline>
    <contour>
      <point x="368" y="-10" type="curve" smooth="yes"/>
      <point x="368" y="85"/>
      <point x="314" y="180"/>
      <point x="216" y="180" type="curve" smooth="yes"/>
      <point x="154" y="180"/>
      <point x="101" y="136"/>
      <point x="101" y="73" type="curve" smooth="yes"/>
      <point x="101" y="7"/>
      <point x="139" y="-28"/>
      <point x="197" y="-28" type="curve" smooth="yes"/>
      <point x="233" y="-28"/>
      <point x="256" y="0"/>
      <point x="275" y="0" type="curve" smooth="yes"/>
      <point x="288" y="0"/>
      <point x="295" y="-12"/>
      <point x="295" y="-37" type="curve" smooth="yes"/>
      <point x="295" y="-142"/>
      <point x="202" y="-242"/>
      <point x="101" y="-268" type="curve"/>
      <point x="101" y="-310" type="line"/>
      <point x="280" y="-248"/>
      <point x="368" y="-148"/>
    </contour>
  </outline>
</glyph>
<glyph name="hyphenminus" format="2">
  <advance width="514"/>
  <unicode hex="002D"/>
  <outline>
    <contour>
      <point x="451" y="238" type="line"/>
      <point x="451" y="352" type="line"/>
      <point x="61" y="352" type="line"/>
      <point x="61" y="238" type="line"/>
    </contour>
  </outline>
</glyph>
<glyph name="period" format="2">
  <unicode hex="002E"/>
  <advance width="641"/>
  <outline>
    <contour>
      <point x="425" y="66" type="curve" smooth="yes"/>
      <point x="425" y="113"/>
      <point x="386" y="152"/>
      <point x="336" y="152" type="curve" smooth="yes"/>
      <point x="289" y="152"/>
      <point x="250" y="113"/>
      <point x="250" y="66" type="curve" smooth="yes"/>
      <point x="250" y="16"/>
      <point x="289" y="-23"/>
      <point x="336" y="-23" type="curve" smooth="yes"/>
      <point x="386" y="-23"/>
      <point x="425" y="16"/>
    </contour>
  </outline>
</glyph>
<glyph name="slash" format="2">
  <unicode hex="002F"/>
  <advance width="543"/>
  <outline>
    <contour>
      <point x="479" y="1245" type="line"/>
      <point x="416" y="1245" type="line"/>
      <point x="66" y="-260" type="line"/>
      <point x="127" y="-260" type="line"/>
    </contour>
  </outline>
</glyph>
<glyph name="zero" format="2">
  <unicode hex="0030"/>
  <advance width="772"/>
  <outline>
    <contour>
      <point x="717" y="520" type="curve" smooth="yes"/>
      <point x="717" y="715"/>
      <point x="637" y="1044"/>
      <point x="389" y="1044" type="curve" smooth="yes"/>
      <point x="139" y="1044"/>
      <point x="55" y="702"/>
      <point x="55" y="506" type="curve" smooth="yes"/>
      <point x="55" y="313"/>
      <point x="139" y="-18"/>
      <point x="381" y="-18" type="curve" smooth="yes"/>
      <point x="639" y="-18"/>
      <point x="717" y="317"/>
    </contour>
    <contour>
      <point x="569" y="545" type="curve" smooth="yes"/>
      <point x="569" y="419"/>
      <point x="567" y="31"/>
      <point x="385" y="31" type="curve" smooth="yes"/>
      <point x="213" y="31"/>
      <point x="203" y="371"/>
      <point x="203" y="487" type="curve" smooth="yes"/>
      <point x="203" y="602"/>
      <point x="211" y="995"/>
      <point x="387" y="995" type="curve" smooth="yes"/>
      <point x="560" y="995"/>
      <point x="569" y="662"/>
    </contour>
  </outline>
</glyph>
<glyph name="one" format="2">
  <unicode hex="0031"/>
  <advance width="772"/>
  <outline>
    <contour>
      <point x="584" y="0" type="line"/>
      <point x="584" y="29" type="line"/>
      <point x="457" y="29"/>
      <point x="457" y="63"/>
      <point x="457" y="180" type="curve" smooth="yes"/>
      <point x="457" y="1044" type="line"/>
      <point x="430" y="1044" type="line"/>
      <point x="180" y="922" type="line"/>
      <point x="193" y="899" type="line"/>
      <point x="215" y="909"/>
      <point x="244" y="922"/>
      <point x="270" y="922" type="curve" smooth="yes"/>
      <point x="330" y="922"/>
      <point x="332" y="849"/>
      <point x="332" y="756" type="curve" smooth="yes"/>
      <point x="332" y="180" type="line" smooth="yes"/>
      <point x="332" y="59"/>
      <point x="330" y="29"/>
      <point x="199" y="29" type="curve"/>
      <point x="199" y="0" type="line"/>
    </contour>
  </outline>
</glyph>
<glyph name="two" format="2">
  <advance width="926"/>
  <unicode hex="0032"/>
  <outline>
    <contour>
      <point x="851" y="236" type="line"/>
      <point x="816" y="236" type="line"/>
      <point x="751" y="144"/>
      <point x="690" y="138"/>
      <point x="553" y="138" type="curve" smooth="yes"/>
      <point x="234" y="138" type="line"/>
      <point x="331" y="228"/>
      <point x="422" y="335"/>
      <point x="512" y="433" type="curve" smooth="yes"/>
      <point x="631" y="560"/>
      <point x="774" y="748"/>
      <point x="774" y="929" type="curve" smooth="yes"/>
      <point x="774" y="1123"/>
      <point x="610" y="1253"/>
      <point x="425" y="1253" type="curve" smooth="yes"/>
      <point x="214" y="1253"/>
      <point x="101" y="1104"/>
      <point x="76" y="907" type="curve"/>
      <point x="108" y="907" type="line"/>
      <point x="152" y="1034"/>
      <point x="239" y="1114"/>
      <point x="378" y="1114" type="curve" smooth="yes"/>
      <point x="528" y="1114"/>
      <point x="619" y="988"/>
      <point x="619" y="846" type="curve" smooth="yes"/>
      <point x="619" y="565"/>
      <point x="269" y="244"/>
      <point x="42" y="35" type="curve"/>
      <point x="42" y="0" type="line"/>
      <point x="762" y="0" type="line"/>
    </contour>
  </outline>
</glyph>
<glyph name="three" format="2">
  <advance width="772"/>
  <unicode hex="0033"/>
  <outline>
    <contour>
      <point x="645" y="338" type="curve" smooth="yes"/>
      <point x="645" y="471"/>
      <point x="578" y="561"/>
      <point x="455" y="606" type="curve"/>
      <point x="520" y="664"/>
      <point x="592" y="743"/>
      <point x="592" y="836" type="curve" smooth="yes" name="hr01"/>
      <point x="592" y="971"/>
      <point x="477" y="1044"/>
      <point x="354" y="1044" type="curve" smooth="yes"/>
      <point x="205" y="1044"/>
      <point x="137" y="950"/>
      <point x="78" y="827" type="curve"/>
      <point x="104" y="815" type="line"/>
      <point x="150" y="887"/>
      <point x="213" y="940"/>
      <point x="299" y="940" type="curve" smooth="yes"/>
      <point x="401" y="940"/>
      <point x="467" y="866"/>
      <point x="467" y="768" type="curve" smooth="yes"/>
      <point x="467" y="639"/>
      <point x="358" y="545"/>
      <point x="236" y="530" type="curve"/>
      <point x="236" y="506" type="line"/>
      <point x="401" y="504"/>
      <point x="532" y="426"/>
      <point x="532" y="246" type="curve" smooth="yes" name="hr02"/>
      <point x="532" y="141"/>
      <point x="449" y="47"/>
      <point x="342" y="47" type="curve" smooth="yes"/>
      <point x="250" y="47"/>
      <point x="188" y="117"/>
      <point x="123" y="117" type="curve" smooth="yes"/>
      <point x="94" y="117"/>
      <point x="63" y="94"/>
      <point x="63" y="63" type="curve" smooth="yes"/>
      <point x="63" y="-14"/>
      <point x="186" y="-18"/>
      <point x="240" y="-18" type="curve" smooth="yes"/>
      <point x="461" y="-18"/>
      <point x="645" y="102"/>
    </contour>
  </outline>
</glyph>
<glyph name="four" format="2">
  <unicode hex="0034"/>
  <advance width="772"/>
  <outline>
    <contour>
      <point x="717" y="270" type="line"/>
      <point x="717" y="377" type="line"/>
      <point x="582" y="377" type="line"/>
      <point x="582" y="1044" type="line"/>
      <point x="500" y="1044" type="line"/>
      <point x="25" y="365" type="line"/>
      <point x="25" y="270" type="line"/>
      <point x="457" y="270" type="line"/>
      <point x="457" y="0" type="line"/>
      <point x="582" y="0" type="line"/>
      <point x="582" y="270" type="line"/>
    </contour>
    <contour>
      <point x="457" y="377" type="line"/>
      <point x="98" y="377" type="line"/>
      <point x="457" y="885" type="line"/>
    </contour>
  </outline>
</glyph>
<glyph name="five" format="2">
  <advance width="772"/>
  <unicode hex="0035"/>
  <outline>
    <contour>
      <point x="670" y="1022" type="line"/>
      <point x="305" y="1022" type="line"/>
      <point x="109" y="625" type="line"/>
      <point x="309" y="618"/>
      <point x="555" y="526"/>
      <point x="555" y="289" type="curve" smooth="yes"/>
      <point x="555" y="164"/>
      <point x="459" y="59"/>
      <point x="334" y="59" type="curve" smooth="yes"/>
      <point x="246" y="59"/>
      <point x="195" y="137"/>
      <point x="133" y="137" type="curve" smooth="yes"/>
      <point x="96" y="137"/>
      <point x="74" y="121"/>
      <point x="74" y="82" type="curve" smooth="yes"/>
      <point x="74" y="-2"/>
      <point x="188" y="-18"/>
      <point x="250" y="-18" type="curve" smooth="yes"/>
      <point x="463" y="-18"/>
      <point x="653" y="150"/>
      <point x="653" y="369" type="curve" smooth="yes"/>
      <point x="653" y="592"/>
      <point x="442" y="737"/>
      <point x="236" y="758" type="curve"/>
      <point x="305" y="893" type="line" name="hr01"/>
      <point x="612" y="893" type="line"/>
    </contour>
  </outline>
</glyph>
<glyph name="six" format="2">
  <advance width="772"/>
  <unicode hex="0036"/>
  <outline>
    <contour>
      <point x="713" y="344" type="curve" smooth="yes"/>
      <point x="713" y="496"/>
      <point x="621" y="645"/>
      <point x="455" y="645" type="curve" smooth="yes"/>
      <point x="375" y="645"/>
      <point x="301" y="614"/>
      <point x="236" y="569" type="curve"/>
      <point x="289" y="795"/>
      <point x="444" y="1001"/>
      <point x="692" y="1016" type="curve"/>
      <point x="692" y="1044" type="line"/>
      <point x="649" y="1044" type="line" smooth="yes"/>
      <point x="319" y="1044"/>
      <point x="68" y="713"/>
      <point x="68" y="401" type="curve" smooth="yes"/>
      <point x="68" y="213"/>
      <point x="170" y="-18"/>
      <point x="387" y="-18" type="curve" smooth="yes"/>
      <point x="584" y="-18"/>
      <point x="713" y="160"/>
    </contour>
    <contour>
      <point x="578" y="262" type="curve" smooth="yes"/>
      <point x="578" y="162"/>
      <point x="532" y="25"/>
      <point x="410" y="25" type="curve" smooth="yes"/>
      <point x="264" y="25"/>
      <point x="209" y="236"/>
      <point x="209" y="352" type="curve" smooth="yes"/>
      <point x="209" y="406"/>
      <point x="217" y="461"/>
      <point x="223" y="516" type="curve"/>
      <point x="264" y="541"/>
      <point x="332" y="580"/>
      <point x="381" y="580" type="curve" smooth="yes"/>
      <point x="539" y="580"/>
      <point x="578" y="385"/>
    </contour>
  </outline>
</glyph>
<glyph name="nine" format="2">
  <advance width="772"/>
  <unicode hex="0039"/>
  <outline>
    <contour>
      <point x="705" y="623" type="curve" smooth="yes"/>
      <point x="705" y="811"/>
      <point x="596" y="1044"/>
      <point x="381" y="1044" type="curve" smooth="yes"/>
      <point x="182" y="1044"/>
      <point x="61" y="858"/>
      <point x="61" y="678" type="curve" smooth="yes"/>
      <point x="61" y="522"/>
      <point x="154" y="373"/>
      <point x="322" y="373" type="curve" smooth="yes"/>
      <point x="399" y="373"/>
      <point x="473" y="408"/>
      <point x="537" y="451" type="curve"/>
      <point x="481" y="229"/>
      <point x="328" y="12"/>
      <point x="82" y="6" type="curve"/>
      <point x="82" y="-23" type="line"/>
      <point x="125" y="-23" type="line" smooth="yes"/>
      <point x="455" y="-23"/>
      <point x="705" y="311"/>
    </contour>
    <contour>
      <point x="563" y="662" type="curve" smooth="yes"/>
      <point x="563" y="608"/>
      <point x="555" y="557"/>
      <point x="549" y="506" type="curve"/>
      <point x="522" y="469"/>
      <point x="426" y="440"/>
      <point x="383" y="440" type="curve" smooth="yes"/>
      <point x="233" y="440"/>
      <point x="197" y="641"/>
      <point x="197" y="756" type="curve" smooth="yes"/>
      <point x="197" y="856"/>
      <point x="238" y="995"/>
      <point x="362" y="995" type="curve" smooth="yes"/>
      <point x="514" y="995"/>
      <point x="563" y="778"/>
    </contour>
  </outline>
</glyph>
<glyph name="colon" format="2">
  <unicode hex="003A"/>
  <advance width="641"/>
  <outline>
    <contour>
      <point x="389" y="487" type="curve" smooth="yes"/>
      <point x="389" y="537"/>
      <point x="350" y="575"/>
      <point x="303" y="575" type="curve" smooth="yes"/>
      <point x="254" y="575"/>
      <point x="215" y="537"/>
      <point x="215" y="487" type="curve" smooth="yes"/>
      <point x="215" y="438"/>
      <point x="254" y="399"/>
      <point x="303" y="399" type="curve" smooth="yes"/>
      <point x="350" y="399"/>
      <point x="389" y="438"/>
    </contour>
    <contour>
      <point x="389" y="14" type="curve" smooth="yes"/>
      <point x="389" y="63"/>
      <point x="350" y="102"/>
      <point x="303" y="102" type="curve" smooth="yes"/>
      <point x="254" y="102"/>
      <point x="215" y="63"/>
      <point x="215" y="14" type="curve" smooth="yes"/>
      <point x="215" y="-33"/>
      <point x="254" y="-72"/>
      <point x="303" y="-72" type="curve" smooth="yes"/>
      <point x="350" y="-72"/>
      <point x="389" y="-33"/>
    </contour>
  </outline>
</glyph>
<glyph name="semicolon" format="2">
  <advance width="624"/>
  <unicode hex="003B"/>
  <outline>
    <contour>
      <point x="463" y="915" type="curve" smooth="yes"/>
      <point x="463" y="985"/>
      <point x="409" y="1037"/>
      <point x="344" y="1037" type="curve" smooth="yes"/>
      <point x="276" y="1037"/>
      <point x="222" y="985"/>
      <point x="222" y="915" type="curve" smooth="yes"/>
      <point x="222" y="847"/>
      <point x="276" y="793"/>
      <point x="344" y="793" type="curve" smooth="yes"/>
      <point x="409" y="793"/>
      <point x="463" y="847"/>
    </contour>
    <contour>
      <point x="510" y="-12" type="curve" smooth="yes"/>
      <point x="510" y="103"/>
      <point x="445" y="218"/>
      <point x="326" y="218" type="curve" smooth="yes"/>
      <point x="251" y="218"/>
      <point x="187" y="164"/>
      <point x="187" y="88" type="curve" smooth="yes"/>
      <point x="187" y="9"/>
      <point x="233" y="-33"/>
      <point x="303" y="-33" type="curve" smooth="yes"/>
      <point x="347" y="-33"/>
      <point x="374" y="0"/>
      <point x="397" y="0" type="curve" smooth="yes"/>
      <point x="413" y="0"/>
      <point x="422" y="-15"/>
      <point x="422" y="-45" type="curve" smooth="yes"/>
      <point x="422" y="-171"/>
      <point x="309" y="-293"/>
      <point x="187" y="-323" type="curve"/>
      <point x="187" y="-374" type="line"/>
      <point x="403" y="-300"/>
      <point x="510" y="-178"/>
    </contour>
  </outline>
</glyph>
<glyph name="less" format="2">
  <advance width="1485"/>
  <unicode hex="003C"/>
  <outline>
    <contour>
      <point x="1188" y="57" type="line"/>
      <point x="1188" y="150" type="line"/>
      <point x="391" y="446" type="line"/>
      <point x="1188" y="741" type="line"/>
      <point x="1188" y="834" type="line"/>
      <point x="297" y="492" type="line"/>
      <point x="297" y="399" type="line"/>
    </contour>
  </outline>
</glyph>
<glyph name="equal" format="2">
  <advance width="935"/>
  <unicode hex="003D"/>
  <outline>
    <contour>
      <point x="885" y="502" type="line"/>
      <point x="885" y="585" type="line"/>
      <point x="50" y="585" type="line"/>
      <point x="50" y="502" type="line"/>
    </contour>
    <contour>
      <point x="885" y="256" type="line"/>
      <point x="885" y="340" type="line"/>
      <point x="50" y="340" type="line"/>
      <point x="50" y="256" type="line"/>
    </contour>
  </outline>
</glyph>
<glyph name="greater" format="2">
  <advance width="1485"/>
  <unicode hex="003E"/>
  <outline>
    <contour>
      <point x="1188" y="399" type="line"/>
      <point x="1188" y="492" type="line"/>
      <point x="297" y="834" type="line"/>
      <point x="297" y="741" type="line"/>
      <point x="1094" y="446" type="line"/>
      <point x="297" y="150" type="line"/>
      <point x="297" y="57" type="line"/>
    </contour>
  </outline>
</glyph>
<glyph name="question" format="2">
  <advance width="823"/>
  <unicode hex="003F"/>
  <outline>
    <contour>
      <point x="750" y="968" type="curve" smooth="yes"/>
      <point x="750" y="1165"/>
      <point x="587" y="1253"/>
      <point x="410" y="1253" type="curve" smooth="yes"/>
      <point x="251" y="1253"/>
      <point x="84" y="1175"/>
      <point x="84" y="995" type="curve" smooth="yes"/>
      <point x="84" y="936"/>
      <point x="113" y="853"/>
      <point x="185" y="853" type="curve" smooth="yes"/>
      <point x="226" y="853"/>
      <point x="256" y="889"/>
      <point x="256" y="929" type="curve" smooth="yes"/>
      <point x="256" y="968"/>
      <point x="199" y="1037"/>
      <point x="199" y="1086" type="curve" smooth="yes"/>
      <point x="199" y="1170"/>
      <point x="302" y="1205"/>
      <point x="371" y="1205" type="curve" smooth="yes"/>
      <point x="514" y="1205"/>
      <point x="580" y="1084"/>
      <point x="580" y="956" type="curve" smooth="yes"/>
      <point x="580" y="858"/>
      <point x="544" y="767"/>
      <point x="496" y="686" type="curve" smooth="yes"/>
      <point x="422" y="563"/>
      <point x="378" y="432"/>
      <point x="373" y="288" type="curve"/>
      <point x="410" y="288" type="line"/>
      <point x="425" y="607"/>
      <point x="750" y="696"/>
    </contour>
    <contour>
      <point x="499" y="76" type="curve" smooth="yes"/>
      <point x="499" y="133"/>
      <point x="455" y="180"/>
      <point x="398" y="180" type="curve" smooth="yes"/>
      <point x="344" y="180"/>
      <point x="295" y="133"/>
      <point x="295" y="76" type="curve" smooth="yes"/>
      <point x="295" y="17"/>
      <point x="342" y="-24"/>
      <point x="398" y="-24" type="curve" smooth="yes"/>
      <point x="455" y="-24"/>
      <point x="499" y="19"/>
    </contour>
  </outline>
</glyph>
<glyph name="A" format="2">
  <advance width="1332"/>
  <unicode hex="0041"/>
  <anchor x="666" y="1308" name="above"/>
  <outline>
    <contour>
      <point x="1318" y="0" type="line"/>
      <point x="1318" y="35" type="line"/>
      <point x="1184" y="42"/>
      <point x="1153" y="125"/>
      <point x="1106" y="236" type="curve" smooth="yes"/>
      <point x="680" y="1253" type="line"/>
      <point x="649" y="1253" type="line"/>
      <point x="216" y="244" type="line" smooth="yes"/>
      <point x="168" y="133"/>
      <point x="130" y="41"/>
      <point x="14" y="35" type="curve"/>
      <point x="14" y="0" type="line"/>
      <point x="401" y="0" type="line"/>
      <point x="401" y="35" type="line"/>
      <point x="354" y="37"/>
      <point x="258" y="49"/>
      <point x="258" y="113" type="curve" smooth="yes"/>
      <point x="258" y="172"/>
      <point x="354" y="371"/>
      <point x="373" y="410" type="curve"/>
      <point x="848" y="410" type="line"/>
      <point x="868" y="366"/>
      <point x="956" y="176"/>
      <point x="956" y="113" type="curve" smooth="yes"/>
      <point x="956" y="47"/>
      <point x="887" y="35"/>
      <point x="833" y="35" type="curve"/>
      <point x="833" y="0" type="line"/>
    </contour>
    <contour>
      <point x="823" y="476" type="line"/>
      <point x="401" y="476" type="line"/>
      <point x="614" y="976" type="line"/>
    </contour>
  </outline>
</glyph>
<glyph name="B" format="2">
  <unicode hex="0042"/>
  <advance width="1004"/>
  <outline>
    <contour>
      <point x="944" y="279" type="curve" smooth="yes"/>
      <point x="944" y="426"/>
      <point x="848" y="498"/>
      <point x="713" y="522" type="curve"/>
      <point x="817" y="555"/>
      <point x="899" y="633"/>
      <point x="899" y="748" type="curve" smooth="yes" name="hr01"/>
      <point x="899" y="985"/>
      <point x="653" y="1022"/>
      <point x="467" y="1022" type="curve" smooth="yes"/>
      <point x="27" y="1022" type="line"/>
      <point x="27" y="995" type="line"/>
      <point x="158" y="995"/>
      <point x="172" y="969"/>
      <point x="172" y="842" type="curve" smooth="yes"/>
      <point x="172" y="180" type="line" smooth="yes"/>
      <point x="172" y="57"/>
      <point x="154" y="29"/>
      <point x="27" y="29" type="curve"/>
      <point x="27" y="0" type="line"/>
      <point x="508" y="0" type="line" smooth="yes"/>
      <point x="696" y="0"/>
      <point x="944" y="37"/>
    </contour>
    <contour>
      <point x="739" y="756" type="curve" smooth="yes" name="hr03"/>
      <point x="739" y="592"/>
      <point x="602" y="553"/>
      <point x="461" y="553" type="curve" smooth="yes"/>
      <point x="414" y="553"/>
      <point x="365" y="553"/>
      <point x="317" y="563" type="curve"/>
      <point x="317" y="956" type="line"/>
      <point x="362" y="967"/>
      <point x="408" y="971"/>
      <point x="455" y="971" type="curve" smooth="yes"/>
      <point x="590" y="971"/>
      <point x="739" y="915"/>
    </contour>
    <contour>
      <point x="770" y="268" type="curve" smooth="yes" name="hr04"/>
      <point x="770" y="111"/>
      <point x="627" y="53"/>
      <point x="492" y="53" type="curve" smooth="yes"/>
      <point x="432" y="53"/>
      <point x="375" y="61"/>
      <point x="317" y="74" type="curve"/>
      <point x="317" y="494" type="line"/>
      <point x="361" y="500"/>
      <point x="408" y="500"/>
      <point x="451" y="500" type="curve" smooth="yes"/>
      <point x="600" y="500"/>
      <point x="770" y="444"/>
    </contour>
  </outline>
</glyph>
<glyph name="C" format="2">
  <advance width="1236"/>
  <unicode hex="0043"/>
  <anchor x="664" y="-86" name="below"/>
  <outline>
    <contour>
      <point x="1142" y="307" type="line"/>
      <point x="1032" y="150"/>
      <point x="936" y="52"/>
      <point x="732" y="52" type="curve" smooth="yes"/>
      <point x="408" y="52"/>
      <point x="272" y="300"/>
      <point x="272" y="593" type="curve" smooth="yes"/>
      <point x="272" y="872"/>
      <point x="371" y="1189"/>
      <point x="706" y="1189" type="curve" smooth="yes"/>
      <point x="931" y="1189"/>
      <point x="1055" y="1042"/>
      <point x="1116" y="838" type="curve"/>
      <point x="1142" y="838" type="line"/>
      <point x="1116" y="1253" type="line"/>
      <point x="1084" y="1253" type="line"/>
      <point x="1074" y="1219"/>
      <point x="1057" y="1170"/>
      <point x="1008" y="1170" type="curve"/>
      <point x="898" y="1217"/>
      <point x="816" y="1253"/>
      <point x="690" y="1253" type="curve" smooth="yes"/>
      <point x="317" y="1253"/>
      <point x="66" y="959"/>
      <point x="66" y="595" type="curve" smooth="yes"/>
      <point x="66" y="241"/>
      <point x="300" y="-30"/>
      <point x="664" y="-30" type="curve" smooth="yes"/>
      <point x="894" y="-30"/>
      <point x="1060" y="89"/>
      <point x="1170" y="288" type="curve"/>
    </contour>
  </outline>
</glyph>
<glyph name="E" format="2">
  <advance width="1130"/>
  <unicode hex="0045"/>
  <anchor x="565" y="1308" name="above"/>
  <outline>
    <contour>
      <point x="1091" y="307" type="line"/>
      <point x="1052" y="307" type="line"/>
      <point x="954" y="133"/>
      <point x="910" y="66"/>
      <point x="696" y="66" type="curve" smooth="yes"/>
      <point x="490" y="66" type="line" smooth="yes"/>
      <point x="389" y="66"/>
      <point x="386" y="109"/>
      <point x="386" y="204" type="curve" smooth="yes"/>
      <point x="386" y="607" type="line"/>
      <point x="656" y="607" type="line" smooth="yes"/>
      <point x="809" y="607"/>
      <point x="830" y="568"/>
      <point x="851" y="425" type="curve"/>
      <point x="884" y="425" type="line"/>
      <point x="884" y="853" type="line"/>
      <point x="851" y="853" type="line"/>
      <point x="830" y="710"/>
      <point x="806" y="676"/>
      <point x="656" y="676" type="curve" smooth="yes"/>
      <point x="386" y="676" type="line"/>
      <point x="386" y="1160" type="line"/>
      <point x="725" y="1160" type="line" smooth="yes"/>
      <point x="907" y="1160"/>
      <point x="922" y="1116"/>
      <point x="964" y="959" type="curve"/>
      <point x="997" y="959" type="line"/>
      <point x="983" y="1226" type="line"/>
      <point x="40" y="1226" type="line"/>
      <point x="40" y="1194" type="line"/>
      <point x="197" y="1194"/>
      <point x="214" y="1168"/>
      <point x="214" y="1015" type="curve" smooth="yes"/>
      <point x="214" y="216" type="line" smooth="yes"/>
      <point x="214" y="66"/>
      <point x="192" y="35"/>
      <point x="40" y="35" type="curve"/>
      <point x="40" y="0" type="line"/>
      <point x="983" y="0" type="line"/>
    </contour>
  </outline>
</glyph>
<glyph name="F" format="2">
  <advance width="1030"/>
  <unicode hex="0046"/>
  <outline>
    <contour>
      <point x="956" y="959" type="line"/>
      <point x="943" y="1226" type="line"/>
      <point x="30" y="1226" type="line"/>
      <point x="30" y="1194" type="line"/>
      <point x="185" y="1194"/>
      <point x="204" y="1158"/>
      <point x="204" y="1010" type="curve" smooth="yes"/>
      <point x="204" y="216" type="line" smooth="yes"/>
      <point x="204" y="68"/>
      <point x="187" y="35"/>
      <point x="30" y="35" type="curve"/>
      <point x="30" y="0" type="line"/>
      <point x="556" y="0" type="line"/>
      <point x="556" y="35" type="line"/>
      <point x="398" y="35"/>
      <point x="378" y="66"/>
      <point x="378" y="216" type="curve" smooth="yes"/>
      <point x="378" y="602" type="line"/>
      <point x="602" y="602" type="line" smooth="yes"/>
      <point x="725" y="602"/>
      <point x="762" y="546"/>
      <point x="762" y="430" type="curve"/>
      <point x="797" y="430" type="line"/>
      <point x="797" y="846" type="line"/>
      <point x="762" y="846" type="line"/>
      <point x="748" y="737"/>
      <point x="722" y="678"/>
      <point x="602" y="678" type="curve" smooth="yes"/>
      <point x="378" y="678" type="line"/>
      <point x="378" y="1160" type="line"/>
      <point x="652" y="1160" type="line" smooth="yes"/>
      <point x="816" y="1160"/>
      <point x="877" y="1118"/>
      <point x="924" y="959" type="curve"/>
    </contour>
  </outline>
</glyph>
<glyph name="I" format="2">
  <unicode hex="0049"/>
  <advance width="514"/>
  <anchor x="258" y="1090" name="above"/>
  <outline>
    <contour>
      <point x="477" y="0" type="line"/>
      <point x="477" y="29" type="line"/>
      <point x="344" y="29"/>
      <point x="330" y="57"/>
      <point x="330" y="180" type="curve" smooth="yes"/>
      <point x="330" y="842" type="line" smooth="yes"/>
      <point x="330" y="967"/>
      <point x="348" y="995"/>
      <point x="477" y="995" type="curve"/>
      <point x="477" y="1022" type="line"/>
      <point x="39" y="1022" type="line"/>
      <point x="39" y="995" type="line"/>
      <point x="170" y="995"/>
      <point x="184" y="967"/>
      <point x="184" y="842" type="curve" smooth="yes"/>
      <point x="184" y="180" type="line" smooth="yes"/>
      <point x="184" y="57"/>
      <point x="170" y="29"/>
      <point x="39" y="29" type="curve"/>
      <point x="39" y="0" type="line"/>
    </contour>
  </outline>
</glyph>
<glyph name="J" format="2">
  <advance width="602"/>
  <unicode hex="004A"/>
  <outline>
    <contour>
      <point x="592" y="1022" type="line"/>
      <point x="154" y="1022" type="line"/>
      <point x="154" y="995" type="line"/>
      <point x="287" y="995"/>
      <point x="301" y="965"/>
      <point x="301" y="842" type="curve" smooth="yes"/>
      <point x="301" y="143" type="line" smooth="yes"/>
      <point x="301" y="106"/>
      <point x="299" y="31"/>
      <point x="246" y="31" type="curve" smooth="yes"/>
      <point x="193" y="31"/>
      <point x="193" y="170"/>
      <point x="109" y="170" type="curve" smooth="yes"/>
      <point x="57" y="170"/>
      <point x="33" y="143"/>
      <point x="33" y="92" type="curve" smooth="yes"/>
      <point x="33" y="10"/>
      <point x="115" y="-25"/>
      <point x="184" y="-25" type="curve" smooth="yes"/>
      <point x="389" y="-25"/>
      <point x="446" y="172"/>
      <point x="446" y="342" type="curve" smooth="yes"/>
      <point x="446" y="842" type="line" smooth="yes"/>
      <point x="446" y="967"/>
      <point x="461" y="995"/>
      <point x="592" y="995" type="curve"/>
    </contour>
  </outline>
</glyph>
<glyph name="K" format="2">
  <advance width="1114"/>
  <unicode hex="004B"/>
  <outline>
    <contour>
      <point x="1128" y="0" type="line"/>
      <point x="1128" y="29" type="line"/>
      <point x="1001" y="41"/>
      <point x="928" y="106"/>
      <point x="840" y="193" type="curve" smooth="yes"/>
      <point x="461" y="567" type="line"/>
      <point x="618" y="724" type="line" smooth="yes"/>
      <point x="813" y="919"/>
      <point x="888" y="995"/>
      <point x="995" y="995" type="curve"/>
      <point x="995" y="1022" type="line"/>
      <point x="618" y="1022" type="line"/>
      <point x="618" y="995" type="line"/>
      <point x="669" y="995"/>
      <point x="711" y="992"/>
      <point x="711" y="952" type="curve" smooth="yes"/>
      <point x="711" y="890"/>
      <point x="577" y="766"/>
      <point x="315" y="520" type="curve"/>
      <point x="315" y="842" type="line" smooth="yes"/>
      <point x="315" y="967"/>
      <point x="336" y="995"/>
      <point x="461" y="995" type="curve"/>
      <point x="461" y="1022" type="line"/>
      <point x="27" y="1022" type="line"/>
      <point x="27" y="995" type="line"/>
      <point x="158" y="995"/>
      <point x="170" y="965"/>
      <point x="170" y="842" type="curve" smooth="yes" name="hr01"/>
      <point x="170" y="180" type="line" smooth="yes"/>
      <point x="170" y="55"/>
      <point x="158" y="29"/>
      <point x="27" y="29" type="curve"/>
      <point x="27" y="0" type="line"/>
      <point x="461" y="0" type="line"/>
      <point x="461" y="29" type="line"/>
      <point x="332" y="29"/>
      <point x="315" y="55"/>
      <point x="315" y="180" type="curve" smooth="yes"/>
      <point x="315" y="422" type="line"/>
      <point x="360" y="467" type="line"/>
      <point x="668" y="160" type="line" smooth="yes"/>
      <point x="684" y="145"/>
      <point x="725" y="102"/>
      <point x="725" y="80" type="curve" smooth="yes"/>
      <point x="725" y="37"/>
      <point x="676" y="29"/>
      <point x="641" y="29" type="curve"/>
      <point x="641" y="0" type="line"/>
    </contour>
  </outline>
</glyph>
<glyph name="L" format="2">
  <advance width="1130"/>
  <unicode hex="004C"/>
  <outline>
    <contour>
      <point x="1093" y="335" type="line"/>
      <point x="1062" y="340" type="line"/>
      <point x="968" y="122"/>
      <point x="900" y="79"/>
      <point x="664" y="79" type="curve" smooth="yes"/>
      <point x="541" y="79" type="line" smooth="yes"/>
      <point x="420" y="79"/>
      <point x="386" y="110"/>
      <point x="386" y="232" type="curve" smooth="yes"/>
      <point x="386" y="1039" type="line" smooth="yes"/>
      <point x="386" y="1168"/>
      <point x="450" y="1192"/>
      <point x="568" y="1192" type="curve"/>
      <point x="568" y="1226" type="line"/>
      <point x="35" y="1226" type="line"/>
      <point x="35" y="1192" type="line"/>
      <point x="150" y="1192"/>
      <point x="214" y="1168"/>
      <point x="214" y="1039" type="curve" smooth="yes"/>
      <point x="214" y="187" type="line" smooth="yes"/>
      <point x="214" y="56"/>
      <point x="150" y="35"/>
      <point x="35" y="35" type="curve"/>
      <point x="35" y="0" type="line"/>
      <point x="988" y="0" type="line"/>
    </contour>
  </outline>
</glyph>
<glyph name="M" format="2">
  <advance width="1374"/>
  <unicode hex="004D"/>
  <outline>
    <contour>
      <point x="1341" y="0" type="line"/>
      <point x="1341" y="29" type="line"/>
      <point x="1214" y="29"/>
      <point x="1196" y="53"/>
      <point x="1196" y="178" type="curve" smooth="yes"/>
      <point x="1196" y="846" type="line" smooth="yes"/>
      <point x="1196" y="969"/>
      <point x="1212" y="995"/>
      <point x="1341" y="995" type="curve"/>
      <point x="1341" y="1022" type="line"/>
      <point x="1051" y="1022" type="line"/>
      <point x="686" y="223" type="line"/>
      <point x="315" y="1022" type="line"/>
      <point x="27" y="1022" type="line"/>
      <point x="27" y="995" type="line"/>
      <point x="141" y="995"/>
      <point x="170" y="956"/>
      <point x="170" y="846" type="curve" smooth="yes"/>
      <point x="170" y="178" type="line" smooth="yes"/>
      <point x="170" y="55"/>
      <point x="154" y="29"/>
      <point x="27" y="29" type="curve"/>
      <point x="27" y="0" type="line"/>
      <point x="381" y="0" type="line"/>
      <point x="381" y="29" type="line"/>
      <point x="254" y="29"/>
      <point x="236" y="53"/>
      <point x="236" y="178" type="curve" smooth="yes"/>
      <point x="236" y="860" type="line"/>
      <point x="631" y="0" type="line"/>
      <point x="655" y="0" type="line"/>
      <point x="1051" y="860" type="line"/>
      <point x="1051" y="178" type="line" smooth="yes"/>
      <point x="1051" y="55"/>
      <point x="1032" y="29"/>
      <point x="905" y="29" type="curve"/>
      <point x="905" y="0" type="line"/>
    </contour>
  </outline>
</glyph>
<glyph name="N" format="2">
  <advance width="1337"/>
  <unicode hex="004E"/>
  <anchor x="661" y="1308" name="above"/>
  <outline>
    <contour>
      <point x="1313" y="1226" type="line"/>
      <point x="884" y="1226" type="line"/>
      <point x="884" y="1194" type="line"/>
      <point x="1037" y="1194"/>
      <point x="1060" y="1163"/>
      <point x="1060" y="1015" type="curve" smooth="yes"/>
      <point x="1060" y="307" type="line"/>
      <point x="310" y="1226" type="line"/>
      <point x="10" y="1226" type="line"/>
      <point x="10" y="1194" type="line"/>
      <point x="120" y="1194"/>
      <point x="155" y="1150"/>
      <point x="216" y="1067" type="curve"/>
      <point x="216" y="214" type="line" smooth="yes"/>
      <point x="216" y="66"/>
      <point x="194" y="35"/>
      <point x="42" y="35" type="curve"/>
      <point x="42" y="0" type="line"/>
      <point x="469" y="0" type="line"/>
      <point x="469" y="35" type="line"/>
      <point x="314" y="35"/>
      <point x="295" y="61"/>
      <point x="295" y="214" type="curve" smooth="yes"/>
      <point x="295" y="968" type="line"/>
      <point x="1106" y="-19" type="line" name="hr01"/>
      <point x="1138" y="-19" type="line"/>
      <point x="1138" y="1015" type="line" smooth="yes"/>
      <point x="1138" y="1163"/>
      <point x="1158" y="1194"/>
      <point x="1313" y="1194" type="curve"/>
    </contour>
  </outline>
</glyph>
<glyph name="P" format="2">
  <advance width="1032"/>
  <unicode hex="0050"/>
  <outline>
    <contour>
      <point x="966" y="887" type="curve" smooth="yes"/>
      <point x="966" y="1163"/>
      <point x="701" y="1226"/>
      <point x="479" y="1226" type="curve" smooth="yes"/>
      <point x="32" y="1226" type="line"/>
      <point x="32" y="1194" type="line"/>
      <point x="190" y="1194"/>
      <point x="204" y="1163"/>
      <point x="204" y="1010" type="curve" smooth="yes"/>
      <point x="204" y="216" type="line" smooth="yes"/>
      <point x="204" y="66"/>
      <point x="187" y="35"/>
      <point x="32" y="35" type="curve"/>
      <point x="32" y="0" type="line"/>
      <point x="556" y="0" type="line"/>
      <point x="556" y="35" type="line"/>
      <point x="403" y="35"/>
      <point x="378" y="66"/>
      <point x="378" y="216" type="curve" smooth="yes"/>
      <point x="378" y="558" type="line"/>
      <point x="432" y="552"/>
      <point x="484" y="548"/>
      <point x="535" y="548" type="curve" smooth="yes"/>
      <point x="769" y="548"/>
      <point x="966" y="622"/>
    </contour>
    <contour>
      <point x="760" y="870" type="curve" smooth="yes"/>
      <point x="760" y="734"/>
      <point x="671" y="607"/>
      <point x="528" y="607" type="curve" smooth="yes"/>
      <point x="476" y="607"/>
      <point x="427" y="612"/>
      <point x="378" y="619" type="curve"/>
      <point x="378" y="1138" type="line"/>
      <point x="418" y="1145"/>
      <point x="460" y="1156"/>
      <point x="499" y="1156" type="curve" smooth="yes"/>
      <point x="666" y="1156"/>
      <point x="760" y="1027"/>
    </contour>
  </outline>
</glyph>
<glyph name="Q" format="2">
  <advance width="1114"/>
  <unicode hex="0051"/>
  <outline>
    <contour>
      <point x="1055" y="510" type="curve" smooth="yes"/>
      <point x="1055" y="797"/>
      <point x="862" y="1044"/>
      <point x="563" y="1044" type="curve" smooth="yes"/>
      <point x="260" y="1044"/>
      <point x="53" y="807"/>
      <point x="53" y="512" type="curve" smooth="yes"/>
      <point x="53" y="252"/>
      <point x="174" y="76"/>
      <point x="420" y="-10" type="curve"/>
      <point x="567" y="-172"/>
      <point x="831" y="-293"/>
      <point x="1051" y="-303" type="curve"/>
      <point x="1051" y="-279" type="line"/>
      <point x="881" y="-264"/>
      <point x="762" y="-152"/>
      <point x="680" y="-10" type="curve"/>
      <point x="913" y="61"/>
      <point x="1055" y="268"/>
    </contour>
    <contour>
      <point x="883" y="492" type="curve" smooth="yes"/>
      <point x="883" y="276"/>
      <point x="813" y="29"/>
      <point x="553" y="29" type="curve" smooth="yes"/>
      <point x="295" y="29"/>
      <point x="227" y="305"/>
      <point x="227" y="512" type="curve" smooth="yes"/>
      <point x="227" y="725"/>
      <point x="291" y="989"/>
      <point x="553" y="989" type="curve" smooth="yes"/>
      <point x="819" y="989"/>
      <point x="883" y="707"/>
    </contour>
  </outline>
</glyph>
<glyph name="R" format="2">
  <advance width="1236"/>
  <unicode hex="0052"/>
  <outline>
    <contour>
      <point x="1253" y="0" type="line"/>
      <point x="1253" y="35" type="line"/>
      <point x="1096" y="49"/>
      <point x="1027" y="120"/>
      <point x="938" y="244" type="curve" smooth="yes"/>
      <point x="688" y="598" type="line"/>
      <point x="858" y="634"/>
      <point x="988" y="725"/>
      <point x="988" y="912" type="curve" smooth="yes"/>
      <point x="988" y="1192"/>
      <point x="708" y="1226"/>
      <point x="494" y="1226" type="curve" smooth="yes"/>
      <point x="32" y="1226" type="line"/>
      <point x="32" y="1194" type="line"/>
      <point x="190" y="1194"/>
      <point x="206" y="1163"/>
      <point x="206" y="1010" type="curve" smooth="yes"/>
      <point x="206" y="216" type="line" smooth="yes"/>
      <point x="206" y="66"/>
      <point x="190" y="35"/>
      <point x="32" y="35" type="curve"/>
      <point x="32" y="0" type="line"/>
      <point x="558" y="0" type="line"/>
      <point x="558" y="35" type="line"/>
      <point x="403" y="35"/>
      <point x="378" y="66"/>
      <point x="378" y="216" type="curve" smooth="yes"/>
      <point x="378" y="571" type="line"/>
      <point x="397" y="570"/>
      <point x="416" y="569"/>
      <point x="437" y="569" type="curve" smooth="yes"/>
      <point x="461" y="569"/>
      <point x="486" y="570"/>
      <point x="509" y="572" type="curve"/>
      <point x="924" y="0" type="line"/>
    </contour>
    <contour>
      <point x="786" y="898" type="curve" smooth="yes"/>
      <point x="786" y="694"/>
      <point x="605" y="631"/>
      <point x="430" y="631" type="curve" smooth="yes"/>
      <point x="409" y="631"/>
      <point x="389" y="632"/>
      <point x="378" y="634" type="curve"/>
      <point x="378" y="1142" type="line"/>
      <point x="427" y="1150"/>
      <point x="474" y="1158"/>
      <point x="521" y="1158" type="curve" smooth="yes"/>
      <point x="678" y="1158"/>
      <point x="786" y="1055"/>
    </contour>
  </outline>
</glyph>
<glyph name="S" format="2">
  <unicode hex="0053"/>
  <advance width="858"/>
  <anchor x="437" y="1090" name="above"/>
  <outline>
    <contour>
      <point x="776" y="262" type="curve" smooth="yes"/>
      <point x="776" y="580"/>
      <point x="217" y="604"/>
      <point x="217" y="829" type="curve" smooth="yes"/>
      <point x="217" y="924"/>
      <point x="307" y="985"/>
      <point x="397" y="985" type="curve" smooth="yes"/>
      <point x="569" y="985"/>
      <point x="666" y="852"/>
      <point x="680" y="692" type="curve"/>
      <point x="709" y="692" type="line"/>
      <point x="709" y="1044" type="line"/>
      <point x="680" y="1044" type="line"/>
      <point x="674" y="1022"/>
      <point x="662" y="987"/>
      <point x="631" y="987" type="curve" smooth="yes"/>
      <point x="586" y="987"/>
      <point x="487" y="1044"/>
      <point x="395" y="1044" type="curve" smooth="yes"/>
      <point x="238" y="1044"/>
      <point x="98" y="944"/>
      <point x="98" y="776" type="curve" smooth="yes"/>
      <point x="98" y="467"/>
      <point x="641" y="438"/>
      <point x="641" y="203" type="curve" smooth="yes"/>
      <point x="641" y="92"/>
      <point x="537" y="35"/>
      <point x="438" y="35" type="curve" smooth="yes"/>
      <point x="256" y="35"/>
      <point x="154" y="154"/>
      <point x="133" y="328" type="curve"/>
      <point x="106" y="328" type="line"/>
      <point x="106" y="-25" type="line"/>
      <point x="133" y="-25" type="line"/>
      <point x="137" y="2"/>
      <point x="147" y="35"/>
      <point x="180" y="35" type="curve" smooth="yes"/>
      <point x="231" y="35"/>
      <point x="346" y="-25"/>
      <point x="455" y="-25" type="curve" smooth="yes"/>
      <point x="621" y="-25"/>
      <point x="776" y="84"/>
    </contour>
  </outline>
</glyph>
<glyph name="T" format="2">
  <advance width="940"/>
  <unicode hex="0054"/>
  <outline>
    <contour>
      <point x="905" y="782" type="line"/>
      <point x="895" y="1022" type="line"/>
      <point x="47" y="1022" type="line"/>
      <point x="37" y="782" type="line"/>
      <point x="72" y="782" type="line"/>
      <point x="82" y="918"/>
      <point x="143" y="958"/>
      <point x="272" y="958" type="curve" smooth="yes"/>
      <point x="395" y="958" type="line"/>
      <point x="395" y="178" type="line" smooth="yes"/>
      <point x="395" y="55"/>
      <point x="379" y="29"/>
      <point x="252" y="29" type="curve"/>
      <point x="252" y="0" type="line"/>
      <point x="684" y="0" type="line"/>
      <point x="684" y="29" type="line"/>
      <point x="555" y="29"/>
      <point x="541" y="53"/>
      <point x="541" y="178" type="curve" smooth="yes"/>
      <point x="541" y="958" type="line"/>
      <point x="684" y="958" type="line" smooth="yes"/>
      <point x="805" y="958"/>
      <point x="860" y="897"/>
      <point x="872" y="782" type="curve"/>
    </contour>
  </outline>
</glyph>
<glyph name="V" format="2">
  <advance width="1114"/>
  <unicode hex="0056"/>
  <outline>
    <contour>
      <point x="1096" y="1022" type="line"/>
      <point x="780" y="1022" type="line"/>
      <point x="780" y="995" type="line"/>
      <point x="821" y="987"/>
      <point x="889" y="973"/>
      <point x="889" y="920" type="curve" smooth="yes"/>
      <point x="889" y="889"/>
      <point x="866" y="831"/>
      <point x="854" y="803" type="curve" smooth="yes"/>
      <point x="612" y="209" type="line"/>
      <point x="352" y="807" type="line" smooth="yes"/>
      <point x="332" y="853"/>
      <point x="317" y="887"/>
      <point x="317" y="924" type="curve" smooth="yes"/>
      <point x="317" y="983"/>
      <point x="387" y="992"/>
      <point x="430" y="995" type="curve"/>
      <point x="430" y="1022" type="line"/>
      <point x="14" y="1022" type="line"/>
      <point x="14" y="995" type="line"/>
      <point x="113" y="985"/>
      <point x="139" y="944"/>
      <point x="176" y="858" type="curve" smooth="yes"/>
      <point x="559" y="-25" type="line"/>
      <point x="586" y="-25" type="line"/>
      <point x="942" y="848" type="line" smooth="yes"/>
      <point x="973" y="925"/>
      <point x="1010" y="981"/>
      <point x="1096" y="995" type="curve"/>
    </contour>
  </outline>
</glyph>
<glyph name="W" format="2">
  <advance width="1750"/>
  <unicode hex="0057"/>
  <outline>
    <contour>
      <point x="1733" y="1226" type="line"/>
      <point x="1369" y="1226" type="line"/>
      <point x="1369" y="1194" type="line"/>
      <point x="1426" y="1194"/>
      <point x="1501" y="1182"/>
      <point x="1501" y="1111" type="curve" smooth="yes"/>
      <point x="1501" y="1073"/>
      <point x="1478" y="1001"/>
      <point x="1465" y="964" type="curve" smooth="yes"/>
      <point x="1231" y="286" type="line"/>
      <point x="995" y="954" type="line" smooth="yes"/>
      <point x="979" y="997"/>
      <point x="956" y="1064"/>
      <point x="956" y="1114" type="curve" smooth="yes"/>
      <point x="956" y="1194"/>
      <point x="1025" y="1194"/>
      <point x="1086" y="1194" type="curve"/>
      <point x="1086" y="1226" type="line"/>
      <point x="607" y="1226" type="line"/>
      <point x="607" y="1194" type="line"/>
      <point x="744" y="1194"/>
      <point x="800" y="1026"/>
      <point x="842" y="872" type="curve"/>
      <point x="638" y="286" type="line"/>
      <point x="398" y="976" type="line" smooth="yes"/>
      <point x="386" y="1010"/>
      <point x="359" y="1084"/>
      <point x="359" y="1121" type="curve" smooth="yes"/>
      <point x="359" y="1187"/>
      <point x="427" y="1194"/>
      <point x="476" y="1194" type="curve"/>
      <point x="476" y="1226" type="line"/>
      <point x="24" y="1226" type="line"/>
      <point x="24" y="1194" type="line"/>
      <point x="157" y="1194"/>
      <point x="174" y="1097"/>
      <point x="211" y="990" type="curve" smooth="yes"/>
      <point x="572" y="-30" type="line"/>
      <point x="607" y="-30" type="line"/>
      <point x="884" y="755" type="line"/>
      <point x="1163" y="-30" type="line"/>
      <point x="1201" y="-30" type="line"/>
      <point x="1564" y="1032" type="line" smooth="yes"/>
      <point x="1597" y="1130"/>
      <point x="1640" y="1194"/>
      <point x="1733" y="1194" type="curve"/>
    </contour>
  </outline>
</glyph>
<glyph name="X" format="2">
  <advance width="1337"/>
  <unicode hex="0058"/>
  <outline>
    <contour>
      <point x="1315" y="0" type="line"/>
      <point x="1315" y="35" type="line"/>
      <point x="1208" y="40"/>
      <point x="1139" y="110"/>
      <point x="1055" y="235" type="curve" smooth="yes"/>
      <point x="755" y="680" type="line"/>
      <point x="1025" y="1021" type="line" smooth="yes"/>
      <point x="1122" y="1144"/>
      <point x="1176" y="1187"/>
      <point x="1288" y="1194" type="curve"/>
      <point x="1288" y="1226" type="line"/>
      <point x="853" y="1226" type="line"/>
      <point x="853" y="1194" type="line"/>
      <point x="892" y="1192"/>
      <point x="985" y="1187"/>
      <point x="985" y="1128" type="curve" smooth="yes"/>
      <point x="985" y="1062"/>
      <point x="732" y="772"/>
      <point x="710" y="745" type="curve"/>
      <point x="685" y="781"/>
      <point x="479" y="1057"/>
      <point x="479" y="1123" type="curve" smooth="yes"/>
      <point x="479" y="1182"/>
      <point x="563" y="1192"/>
      <point x="607" y="1194" type="curve"/>
      <point x="607" y="1226" type="line"/>
      <point x="40" y="1226" type="line"/>
      <point x="40" y="1194" type="line"/>
      <point x="202" y="1184"/>
      <point x="277" y="1084"/>
      <point x="364" y="959" type="curve" smooth="yes"/>
      <point x="607" y="605" type="line"/>
      <point x="288" y="204" type="line" smooth="yes"/>
      <point x="216" y="114"/>
      <point x="108" y="35"/>
      <point x="12" y="35" type="curve"/>
      <point x="12" y="0" type="line"/>
      <point x="450" y="0" type="line"/>
      <point x="450" y="35" type="line"/>
      <point x="403" y="35"/>
      <point x="331" y="44"/>
      <point x="331" y="103" type="curve" smooth="yes"/>
      <point x="331" y="138"/>
      <point x="366" y="185"/>
      <point x="386" y="211" type="curve" smooth="yes"/>
      <point x="644" y="541" type="line"/>
      <point x="654" y="526"/>
      <point x="912" y="160"/>
      <point x="912" y="103" type="curve" smooth="yes"/>
      <point x="912" y="42"/>
      <point x="833" y="35"/>
      <point x="788" y="35" type="curve"/>
      <point x="788" y="0" type="line"/>
    </contour>
  </outline>
</glyph>
<glyph name="bracketleft" format="2">
  <advance width="828"/>
  <unicode hex="005B"/>
  <outline>
    <contour>
      <point x="580" y="-194" type="line"/>
      <point x="354" y="-157" type="line"/>
      <point x="354" y="1175" type="line"/>
      <point x="580" y="1210" type="line"/>
      <point x="563" y="1304" type="line"/>
      <point x="232" y="1256" type="line"/>
      <point x="232" y="-241" type="line"/>
      <point x="563" y="-290" type="line"/>
    </contour>
  </outline>
</glyph>
<glyph name="backslash" format="2">
  <advance width="430"/>
  <unicode hex="005C"/>
  <outline>
    <contour>
      <point x="434" y="-23" type="line"/>
      <point x="68" y="1071" type="line"/>
      <point x="2" y="1071" type="line"/>
      <point x="373" y="-23" type="line"/>
    </contour>
  </outline>
</glyph>
<glyph name="bracketright" format="2">
  <advance width="828"/>
  <unicode hex="005D"/>
  <outline>
    <contour>
      <point x="580" y="-246" type="line"/>
      <point x="580" y="1253" type="line"/>
      <point x="248" y="1302" type="line"/>
      <point x="226" y="1207" type="line"/>
      <point x="457" y="1170" type="line"/>
      <point x="457" y="-164" type="line"/>
      <point x="226" y="-202" type="line"/>
      <point x="248" y="-295" type="line"/>
    </contour>
  </outline>
</glyph>
<glyph name="asciicircum" format="2">
  <unicode hex="005E"/>
  <advance width="1485"/>
  <outline>
    <contour>
      <point x="1130" y="14" type="line"/>
      <point x="788" y="905" type="line"/>
      <point x="696" y="905" type="line"/>
      <point x="354" y="14" type="line"/>
      <point x="446" y="14" type="line"/>
      <point x="743" y="811" type="line"/>
      <point x="1038" y="14" type="line"/>
    </contour>
  </outline>
</glyph>
<glyph name="underscore" format="2">
  <advance width="743"/>
  <unicode hex="005F"/>
  <outline>
    <contour>
      <point x="743" y="-174" type="line"/>
      <point x="743" y="-119" type="line"/>
      <point x="0" y="-119" type="line"/>
      <point x="0" y="-174" type="line"/>
    </contour>
  </outline>
</glyph>
<glyph name="grave" format="2">
  <advance width="580"/>
  <unicode hex="0060"/>
  <anchor x="294" y="760" name="_above"/>
  <outline>
    <contour>
      <point x="438" y="786" type="line"/>
      <point x="223" y="1001" type="line" smooth="yes"/>
      <point x="190" y="1034"/>
      <point x="160" y="1051"/>
      <point x="133" y="1051" type="curve" smooth="yes"/>
      <point x="102" y="1051"/>
      <point x="86" y="1032"/>
      <point x="86" y="993" type="curve" smooth="yes"/>
      <point x="86" y="977"/>
      <point x="109" y="954"/>
      <point x="154" y="926" type="curve" smooth="yes"/>
      <point x="375" y="786" type="line"/>
    </contour>
  </outline>
</glyph>
<glyph name="a" format="2">
  <advance width="686"/>
  <unicode hex="0061"/>
  <anchor x="336" y="760" name="above"/>
  <outline>
    <contour>
      <point x="684" y="143" type="line"/>
      <point x="670" y="128"/>
      <point x="624" y="82"/>
      <point x="602" y="82" type="curve" smooth="yes"/>
      <point x="580" y="82"/>
      <point x="572" y="100"/>
      <point x="569" y="119" type="curve" smooth="yes"/>
      <point x="565" y="145"/>
      <point x="565" y="201"/>
      <point x="565" y="240" type="curve" smooth="yes"/>
      <point x="565" y="475" type="line" smooth="yes"/>
      <point x="565" y="647"/>
      <point x="508" y="711"/>
      <point x="334" y="711" type="curve" smooth="yes"/>
      <point x="231" y="711"/>
      <point x="82" y="662"/>
      <point x="82" y="537" type="curve" smooth="yes"/>
      <point x="82" y="494"/>
      <point x="98" y="465"/>
      <point x="145" y="465" type="curve" smooth="yes"/>
      <point x="195" y="465"/>
      <point x="209" y="492"/>
      <point x="209" y="537" type="curve" smooth="yes"/>
      <point x="209" y="612"/>
      <point x="219" y="666"/>
      <point x="311" y="666" type="curve" smooth="yes"/>
      <point x="422" y="666"/>
      <point x="440" y="578"/>
      <point x="440" y="485" type="curve" smooth="yes"/>
      <point x="440" y="457" type="line"/>
      <point x="311" y="414"/>
      <point x="55" y="332"/>
      <point x="55" y="164" type="curve" smooth="yes" name="hr01"/>
      <point x="55" y="63"/>
      <point x="115" y="-14"/>
      <point x="219" y="-14" type="curve" smooth="yes"/>
      <point x="309" y="-14"/>
      <point x="373" y="47"/>
      <point x="440" y="100" type="curve"/>
      <point x="440" y="45"/>
      <point x="455" y="-14"/>
      <point x="520" y="-14" type="curve" smooth="yes"/>
      <point x="590" y="-14"/>
      <point x="647" y="49"/>
      <point x="684" y="100" type="curve"/>
    </contour>
    <contour>
      <point x="440" y="150" type="line"/>
      <point x="399" y="117"/>
      <point x="342" y="74"/>
      <point x="289" y="74" type="curve" smooth="yes"/>
      <point x="221" y="74"/>
      <point x="182" y="139"/>
      <point x="182" y="199" type="curve" smooth="yes"/>
      <point x="182" y="309"/>
      <point x="338" y="376"/>
      <point x="440" y="414" type="curve"/>
    </contour>
  </outline>
</glyph>
<glyph name="b" format="2">
  <advance width="926"/>
  <unicode hex="0062"/>
  <outline>
    <contour>
      <point x="863" y="448" type="curve" smooth="yes"/>
      <point x="863" y="638"/>
      <point x="764" y="853"/>
      <point x="546" y="853" type="curve" smooth="yes"/>
      <point x="434" y="853"/>
      <point x="347" y="772"/>
      <point x="286" y="685" type="curve"/>
      <point x="286" y="1285" type="line"/>
      <point x="244" y="1285" type="line"/>
      <point x="-7" y="1187" type="line"/>
      <point x="5" y="1156" type="line"/>
      <point x="28" y="1160"/>
      <point x="47" y="1168"/>
      <point x="68" y="1168" type="curve" smooth="yes"/>
      <point x="131" y="1168"/>
      <point x="133" y="1100"/>
      <point x="133" y="960" type="curve" smooth="yes"/>
      <point x="133" y="82" type="line"/>
      <point x="221" y="19"/>
      <point x="324" y="-28"/>
      <point x="434" y="-28" type="curve" smooth="yes"/>
      <point x="694" y="-28"/>
      <point x="863" y="204"/>
    </contour>
    <contour>
      <point x="706" y="396" type="curve" smooth="yes"/>
      <point x="706" y="260"/>
      <point x="652" y="42"/>
      <point x="481" y="42" type="curve" smooth="yes"/>
      <point x="406" y="42"/>
      <point x="337" y="79"/>
      <point x="286" y="133" type="curve"/>
      <point x="286" y="629" type="line"/>
      <point x="335" y="676"/>
      <point x="401" y="725"/>
      <point x="472" y="725" type="curve" smooth="yes"/>
      <point x="644" y="725"/>
      <point x="706" y="535"/>
    </contour>
  </outline>
</glyph>
<glyph name="c" format="2">
  <advance width="686"/>
  <unicode hex="0063"/>
  <anchor x="351" y="-65" name="below"/>
  <outline>
    <contour>
      <point x="612" y="272" type="line"/>
      <point x="573" y="180"/>
      <point x="510" y="98"/>
      <point x="399" y="98" type="curve" smooth="yes"/>
      <point x="238" y="98"/>
      <point x="176" y="274"/>
      <point x="176" y="410" type="curve" smooth="yes"/>
      <point x="176" y="522"/>
      <point x="223" y="662"/>
      <point x="356" y="662" type="curve" smooth="yes"/>
      <point x="524" y="662"/>
      <point x="408" y="481"/>
      <point x="545" y="481" type="curve" smooth="yes" name="hr01"/>
      <point x="588" y="481"/>
      <point x="616" y="500"/>
      <point x="616" y="545" type="curve" smooth="yes"/>
      <point x="616" y="655"/>
      <point x="473" y="711"/>
      <point x="381" y="711" type="curve" smooth="yes"/>
      <point x="178" y="711"/>
      <point x="51" y="537"/>
      <point x="51" y="344" type="curve" smooth="yes"/>
      <point x="51" y="168"/>
      <point x="145" y="-23"/>
      <point x="346" y="-23" type="curve" smooth="yes"/>
      <point x="502" y="-23"/>
      <point x="612" y="119"/>
      <point x="635" y="262" type="curve"/>
    </contour>
  </outline>
</glyph>
<glyph name="e" format="2">
  <advance width="686"/>
  <unicode hex="0065"/>
  <anchor x="375" y="760" name="above"/>
  <outline>
    <contour>
      <point x="618" y="268" type="line"/>
      <point x="582" y="174"/>
      <point x="522" y="102"/>
      <point x="416" y="102" type="curve" smooth="yes"/>
      <point x="242" y="102"/>
      <point x="164" y="281"/>
      <point x="164" y="430" type="curve"/>
      <point x="641" y="430" type="line"/>
      <point x="641" y="592"/>
      <point x="543" y="711"/>
      <point x="377" y="711" type="curve" smooth="yes"/>
      <point x="160" y="711"/>
      <point x="57" y="537"/>
      <point x="57" y="338" type="curve" smooth="yes"/>
      <point x="57" y="158"/>
      <point x="160" y="-23"/>
      <point x="358" y="-23" type="curve" smooth="yes"/>
      <point x="510" y="-23"/>
      <point x="621" y="109"/>
      <point x="641" y="252" type="curve"/>
    </contour>
    <contour>
      <point x="164" y="473" type="line"/>
      <point x="172" y="567"/>
      <point x="231" y="657"/>
      <point x="334" y="657" type="curve" smooth="yes"/>
      <point x="438" y="657"/>
      <point x="483" y="565"/>
      <point x="483" y="473" type="curve"/>
    </contour>
  </outline>
</glyph>
<glyph name="g" format="2">
  <unicode hex="0067"/>
  <advance width="772"/>
  <outline>
    <contour>
      <point x="743" y="629" type="curve" smooth="yes"/>
      <point x="743" y="662"/>
      <point x="735" y="662"/>
      <point x="709" y="662" type="curve" smooth="yes"/>
      <point x="682" y="662"/>
      <point x="655" y="657"/>
      <point x="629" y="657" type="curve" smooth="yes"/>
      <point x="543" y="657"/>
      <point x="465" y="711"/>
      <point x="377" y="711" type="curve" smooth="yes"/>
      <point x="231" y="711"/>
      <point x="102" y="616"/>
      <point x="102" y="461" type="curve" smooth="yes"/>
      <point x="102" y="373"/>
      <point x="152" y="289"/>
      <point x="233" y="252" type="curve"/>
      <point x="193" y="219"/>
      <point x="113" y="147"/>
      <point x="113" y="90" type="curve" smooth="yes"/>
      <point x="113" y="55"/>
      <point x="158" y="23"/>
      <point x="184" y="6" type="curve"/>
      <point x="147" y="-31"/>
      <point x="45" y="-133"/>
      <point x="45" y="-190" type="curve" smooth="yes" name="hr01"/>
      <point x="45" y="-293"/>
      <point x="270" y="-334"/>
      <point x="348" y="-334" type="curve" smooth="yes"/>
      <point x="502" y="-334"/>
      <point x="735" y="-248"/>
      <point x="735" y="-63" type="curve" smooth="yes"/>
      <point x="735" y="207"/>
      <point x="213" y="33"/>
      <point x="213" y="154" type="curve" smooth="yes" name="hr02"/>
      <point x="213" y="188"/>
      <point x="244" y="217"/>
      <point x="270" y="238" type="curve"/>
      <point x="305" y="227"/>
      <point x="340" y="223"/>
      <point x="375" y="223" type="curve" smooth="yes"/>
      <point x="516" y="223"/>
      <point x="647" y="303"/>
      <point x="647" y="457" type="curve" smooth="yes"/>
      <point x="647" y="504"/>
      <point x="635" y="555"/>
      <point x="606" y="594" type="curve"/>
      <point x="625" y="593"/>
      <point x="654" y="590"/>
      <point x="680" y="590" type="curve" smooth="yes"/>
      <point x="713" y="590"/>
      <point x="743" y="597"/>
    </contour>
    <contour>
      <point x="514" y="436" type="curve" smooth="yes"/>
      <point x="514" y="348"/>
      <point x="489" y="260"/>
      <point x="385" y="260" type="curve" smooth="yes"/>
      <point x="264" y="260"/>
      <point x="233" y="399"/>
      <point x="233" y="494" type="curve" smooth="yes" name="hr03"/>
      <point x="233" y="578"/>
      <point x="264" y="674"/>
      <point x="365" y="674" type="curve" smooth="yes"/>
      <point x="483" y="674"/>
      <point x="514" y="530"/>
    </contour>
    <contour>
      <point x="680" y="-92" type="curve" smooth="yes"/>
      <point x="680" y="-211"/>
      <point x="506" y="-242"/>
      <point x="416" y="-242" type="curve" smooth="yes"/>
      <point x="350" y="-242"/>
      <point x="154" y="-225"/>
      <point x="154" y="-133" type="curve" smooth="yes" name="hr04"/>
      <point x="154" y="-84"/>
      <point x="197" y="-33"/>
      <point x="225" y="0" type="curve"/>
      <point x="319" y="-8"/>
      <point x="528" y="-8"/>
      <point x="606" y="-27" type="curve" smooth="yes"/>
      <point x="641" y="-35"/>
      <point x="680" y="-51"/>
    </contour>
  </outline>
</glyph>
<glyph name="h" format="2">
  <advance width="926"/>
  <unicode hex="0068"/>
  <outline>
    <contour>
      <point x="917" y="0" type="line"/>
      <point x="917" y="35" type="line"/>
      <point x="811" y="35"/>
      <point x="794" y="68"/>
      <point x="794" y="169" type="curve" smooth="yes"/>
      <point x="794" y="479" type="line" smooth="yes"/>
      <point x="794" y="636"/>
      <point x="788" y="853"/>
      <point x="577" y="853" type="curve" smooth="yes"/>
      <point x="457" y="853"/>
      <point x="366" y="776"/>
      <point x="302" y="680" type="curve"/>
      <point x="302" y="1285" type="line"/>
      <point x="260" y="1285" type="line"/>
      <point x="10" y="1187" type="line"/>
      <point x="24" y="1156" type="line"/>
      <point x="47" y="1164"/>
      <point x="68" y="1170"/>
      <point x="91" y="1170" type="curve" smooth="yes"/>
      <point x="144" y="1170"/>
      <point x="152" y="1120"/>
      <point x="152" y="1044" type="curve" smooth="yes"/>
      <point x="152" y="169" type="line" smooth="yes"/>
      <point x="152" y="68"/>
      <point x="131" y="35"/>
      <point x="24" y="35" type="curve"/>
      <point x="24" y="0" type="line"/>
      <point x="434" y="0" type="line"/>
      <point x="434" y="35" type="line"/>
      <point x="319" y="35"/>
      <point x="302" y="59"/>
      <point x="302" y="169" type="curve" smooth="yes"/>
      <point x="302" y="624" type="line"/>
      <point x="354" y="683"/>
      <point x="425" y="742"/>
      <point x="509" y="742" type="curve" smooth="yes"/>
      <point x="636" y="742"/>
      <point x="642" y="619"/>
      <point x="642" y="494" type="curve" smooth="yes"/>
      <point x="642" y="169" type="line" smooth="yes"/>
      <point x="642" y="61"/>
      <point x="617" y="35"/>
      <point x="509" y="35" type="curve"/>
      <point x="509" y="0" type="line"/>
    </contour>
  </outline>
</glyph>
<glyph name="i" format="2">
  <advance width="430"/>
  <unicode hex="0069"/>
  <outline>
    <contour>
      <point x="303" y="926" type="curve" smooth="yes"/>
      <point x="303" y="967"/>
      <point x="268" y="1001"/>
      <point x="227" y="1001" type="curve" smooth="yes"/>
      <point x="184" y="1001"/>
      <point x="150" y="969"/>
      <point x="150" y="926" type="curve" smooth="yes"/>
      <point x="150" y="881"/>
      <point x="184" y="848"/>
      <point x="227" y="848" type="curve" smooth="yes"/>
      <point x="270" y="848"/>
      <point x="303" y="883"/>
    </contour>
    <contour>
      <point x="395" y="0" type="line"/>
      <point x="395" y="29" type="line"/>
      <point x="305" y="29"/>
      <point x="289" y="53"/>
      <point x="289" y="141" type="curve" smooth="yes"/>
      <point x="289" y="711" type="line"/>
      <point x="256" y="711" type="line"/>
      <point x="47" y="627" type="line"/>
      <point x="57" y="600" type="line"/>
      <point x="76" y="606"/>
      <point x="95" y="612"/>
      <point x="111" y="612" type="curve" smooth="yes"/>
      <point x="159" y="612"/>
      <point x="164" y="555"/>
      <point x="164" y="510" type="curve" smooth="yes"/>
      <point x="164" y="141" type="line" smooth="yes"/>
      <point x="164" y="53"/>
      <point x="147" y="29"/>
      <point x="57" y="29" type="curve"/>
      <point x="57" y="0" type="line"/>
    </contour>
  </outline>
</glyph>
<glyph name="j" format="2">
  <advance width="430"/>
  <unicode hex="006A"/>
  <outline>
    <contour>
      <point x="301" y="926" type="curve" smooth="yes"/>
      <point x="301" y="967"/>
      <point x="264" y="1001"/>
      <point x="223" y="1001" type="curve" smooth="yes"/>
      <point x="182" y="1001"/>
      <point x="147" y="967"/>
      <point x="147" y="926" type="curve" smooth="yes"/>
      <point x="147" y="881"/>
      <point x="180" y="848"/>
      <point x="223" y="848" type="curve" smooth="yes"/>
      <point x="266" y="848"/>
      <point x="301" y="883"/>
    </contour>
    <contour>
      <point x="289" y="711" type="line"/>
      <point x="256" y="711" type="line"/>
      <point x="47" y="627" type="line"/>
      <point x="57" y="600" type="line"/>
      <point x="74" y="606"/>
      <point x="92" y="610"/>
      <point x="109" y="610" type="curve" smooth="yes"/>
      <point x="161" y="610"/>
      <point x="164" y="546"/>
      <point x="164" y="462" type="curve" smooth="yes"/>
      <point x="164" y="-82" type="line" smooth="yes"/>
      <point x="164" y="-173"/>
      <point x="162" y="-272"/>
      <point x="94" y="-272" type="curve" smooth="yes"/>
      <point x="41" y="-272"/>
      <point x="12" y="-193"/>
      <point x="-57" y="-193" type="curve" smooth="yes"/>
      <point x="-92" y="-193"/>
      <point x="-119" y="-223"/>
      <point x="-119" y="-258" type="curve" smooth="yes"/>
      <point x="-119" y="-315"/>
      <point x="-27" y="-334"/>
      <point x="16" y="-334" type="curve" smooth="yes"/>
      <point x="221" y="-334"/>
      <point x="289" y="-164"/>
      <point x="289" y="14" type="curve" smooth="yes"/>
    </contour>
  </outline>
</glyph>
<glyph name="k" format="2">
  <advance width="772"/>
  <unicode hex="006B"/>
  <outline>
    <contour>
      <point x="780" y="0" type="line"/>
      <point x="780" y="29" type="line"/>
      <point x="703" y="29"/>
      <point x="675" y="44"/>
      <point x="588" y="153" type="curve" smooth="yes"/>
      <point x="371" y="424" type="line"/>
      <point x="553" y="586" type="line" smooth="yes"/>
      <point x="616" y="643"/>
      <point x="659" y="664"/>
      <point x="745" y="668" type="curve"/>
      <point x="745" y="690" type="line"/>
      <point x="446" y="690" type="line"/>
      <point x="446" y="668" type="line"/>
      <point x="469" y="666"/>
      <point x="500" y="657"/>
      <point x="500" y="629" type="curve" smooth="yes"/>
      <point x="500" y="604"/>
      <point x="444" y="559"/>
      <point x="428" y="545" type="curve" smooth="yes"/>
      <point x="254" y="397" type="line"/>
      <point x="254" y="1071" type="line"/>
      <point x="219" y="1071" type="line"/>
      <point x="10" y="989" type="line"/>
      <point x="25" y="963" type="line"/>
      <point x="41" y="969"/>
      <point x="57" y="975"/>
      <point x="74" y="975" type="curve" smooth="yes"/>
      <point x="114" y="975"/>
      <point x="125" y="940"/>
      <point x="125" y="857" type="curve" smooth="yes"/>
      <point x="125" y="152" type="line" smooth="yes"/>
      <point x="125" y="51"/>
      <point x="113" y="29"/>
      <point x="10" y="29" type="curve"/>
      <point x="10" y="0" type="line"/>
      <point x="365" y="0" type="line"/>
      <point x="365" y="29" type="line"/>
      <point x="258" y="29"/>
      <point x="254" y="59"/>
      <point x="254" y="156" type="curve" smooth="yes"/>
      <point x="254" y="381" type="line"/>
      <point x="465" y="115" type="line"/>
      <point x="477" y="98"/>
      <point x="494" y="78"/>
      <point x="494" y="55" type="curve" smooth="yes"/>
      <point x="494" y="31"/>
      <point x="465" y="29"/>
      <point x="446" y="29" type="curve"/>
      <point x="446" y="0" type="line"/>
    </contour>
  </outline>
</glyph>
<glyph name="l" format="2">
  <advance width="430"/>
  <unicode hex="006C"/>
  <outline>
    <contour>
      <point x="397" y="0" type="line"/>
      <point x="397" y="29" type="line"/>
      <point x="297" y="29"/>
      <point x="285" y="63"/>
      <point x="285" y="156" type="curve" smooth="yes"/>
      <point x="285" y="1071" type="line"/>
      <point x="252" y="1071" type="line"/>
      <point x="45" y="989" type="line"/>
      <point x="57" y="963" type="line"/>
      <point x="74" y="969"/>
      <point x="88" y="973"/>
      <point x="104" y="973" type="curve" smooth="yes"/>
      <point x="155" y="973"/>
      <point x="160" y="916"/>
      <point x="160" y="849" type="curve" smooth="yes"/>
      <point x="160" y="156" type="line" smooth="yes"/>
      <point x="160" y="74"/>
      <point x="152" y="29"/>
      <point x="57" y="29" type="curve"/>
      <point x="57" y="0" type="line"/>
    </contour>
  </outline>
</glyph>
<glyph name="m" format="2">
  <advance width="1202"/>
  <unicode hex="006D"/>
  <outline>
    <contour>
      <point x="1196" y="0" type="line"/>
      <point x="1196" y="29" type="line"/>
      <point x="1100" y="29"/>
      <point x="1092" y="70"/>
      <point x="1092" y="156" type="curve" smooth="yes"/>
      <point x="1092" y="455" type="line" smooth="yes"/>
      <point x="1092" y="580"/>
      <point x="1059" y="711"/>
      <point x="909" y="711" type="curve" smooth="yes"/>
      <point x="801" y="711"/>
      <point x="733" y="639"/>
      <point x="668" y="565" type="curve"/>
      <point x="645" y="657"/>
      <point x="590" y="711"/>
      <point x="492" y="711" type="curve" smooth="yes"/>
      <point x="389" y="711"/>
      <point x="317" y="635"/>
      <point x="252" y="565" type="curve"/>
      <point x="252" y="711" type="line"/>
      <point x="219" y="711" type="line"/>
      <point x="10" y="627" type="line"/>
      <point x="23" y="600" type="line"/>
      <point x="39" y="606"/>
      <point x="57" y="612"/>
      <point x="74" y="612" type="curve" smooth="yes"/>
      <point x="123" y="612"/>
      <point x="127" y="547"/>
      <point x="127" y="486" type="curve" smooth="yes"/>
      <point x="127" y="156" type="line" smooth="yes"/>
      <point x="127" y="68"/>
      <point x="121" y="29"/>
      <point x="23" y="29" type="curve"/>
      <point x="23" y="0" type="line"/>
      <point x="365" y="0" type="line"/>
      <point x="365" y="29" type="line"/>
      <point x="260" y="29"/>
      <point x="252" y="59"/>
      <point x="252" y="156" type="curve" smooth="yes"/>
      <point x="252" y="526" type="line"/>
      <point x="299" y="575"/>
      <point x="358" y="623"/>
      <point x="430" y="623" type="curve" smooth="yes"/>
      <point x="526" y="623"/>
      <point x="547" y="535"/>
      <point x="547" y="455" type="curve" smooth="yes"/>
      <point x="547" y="156" type="line" smooth="yes"/>
      <point x="547" y="57"/>
      <point x="543" y="29"/>
      <point x="434" y="29" type="curve"/>
      <point x="434" y="0" type="line"/>
      <point x="784" y="0" type="line"/>
      <point x="784" y="29" type="line"/>
      <point x="680" y="29"/>
      <point x="672" y="59"/>
      <point x="672" y="156" type="curve" smooth="yes"/>
      <point x="672" y="526" type="line"/>
      <point x="719" y="573"/>
      <point x="780" y="621"/>
      <point x="850" y="621" type="curve" smooth="yes"/>
      <point x="946" y="621"/>
      <point x="965" y="532"/>
      <point x="965" y="455" type="curve" smooth="yes"/>
      <point x="965" y="156" type="line" smooth="yes"/>
      <point x="965" y="59"/>
      <point x="961" y="29"/>
      <point x="854" y="29" type="curve"/>
      <point x="854" y="0" type="line"/>
    </contour>
  </outline>
</glyph>
<glyph name="o" format="2">
  <unicode hex="006F"/>
  <advance width="772"/>
  <anchor x="385" y="760" name="above"/>
  <outline>
    <contour>
      <point x="719" y="358" type="curve" smooth="yes"/>
      <point x="719" y="553"/>
      <point x="588" y="711"/>
      <point x="387" y="711" type="curve" smooth="yes"/>
      <point x="182" y="711"/>
      <point x="51" y="532"/>
      <point x="51" y="338" type="curve" smooth="yes"/>
      <point x="51" y="152"/>
      <point x="180" y="-23"/>
      <point x="379" y="-23" type="curve" smooth="yes"/>
      <point x="590" y="-23"/>
      <point x="719" y="158"/>
    </contour>
    <contour>
      <point x="578" y="299" type="curve" smooth="yes"/>
      <point x="578" y="186"/>
      <point x="555" y="33"/>
      <point x="410" y="33" type="curve" smooth="yes"/>
      <point x="242" y="33"/>
      <point x="193" y="270"/>
      <point x="193" y="401" type="curve" smooth="yes"/>
      <point x="193" y="510"/>
      <point x="225" y="662"/>
      <point x="362" y="662" type="curve" smooth="yes"/>
      <point x="532" y="662"/>
      <point x="578" y="432"/>
    </contour>
  </outline>
</glyph>
<glyph name="p" format="2">
  <advance width="772"/>
  <unicode hex="0070"/>
  <outline>
    <contour>
      <point x="721" y="371" type="curve" smooth="yes"/>
      <point x="721" y="526"/>
      <point x="641" y="711"/>
      <point x="461" y="711" type="curve" smooth="yes"/>
      <point x="358" y="711"/>
      <point x="287" y="629"/>
      <point x="240" y="547" type="curve"/>
      <point x="240" y="709" type="line" name="hr01"/>
      <point x="211" y="709" type="line"/>
      <point x="-4" y="623" type="line"/>
      <point x="4" y="596" type="line"/>
      <point x="20" y="604"/>
      <point x="37" y="608"/>
      <point x="55" y="608" type="curve" smooth="yes"/>
      <point x="108" y="608"/>
      <point x="111" y="562"/>
      <point x="111" y="487" type="curve" smooth="yes"/>
      <point x="111" y="-166" type="line" smooth="yes"/>
      <point x="111" y="-276"/>
      <point x="104" y="-299"/>
      <point x="-8" y="-303" type="curve"/>
      <point x="-8" y="-332" type="line"/>
      <point x="356" y="-332" type="line"/>
      <point x="356" y="-303" type="line"/>
      <point x="248" y="-299"/>
      <point x="240" y="-272"/>
      <point x="240" y="-170" type="curve" smooth="yes"/>
      <point x="240" y="41" type="line"/>
      <point x="285" y="-2"/>
      <point x="342" y="-23"/>
      <point x="403" y="-23" type="curve" smooth="yes" name="hr02"/>
      <point x="614" y="-23"/>
      <point x="721" y="184"/>
    </contour>
    <contour>
      <point x="600" y="299" type="curve" smooth="yes"/>
      <point x="600" y="176"/>
      <point x="549" y="25"/>
      <point x="401" y="25" type="curve" smooth="yes"/>
      <point x="258" y="25"/>
      <point x="240" y="129"/>
      <point x="240" y="244" type="curve" smooth="yes"/>
      <point x="240" y="502" type="line"/>
      <point x="293" y="566"/>
      <point x="346" y="618"/>
      <point x="401" y="618" type="curve" smooth="yes"/>
      <point x="563" y="618"/>
      <point x="600" y="426"/>
    </contour>
  </outline>
</glyph>
<glyph name="q" format="2">
  <advance width="772"/>
  <unicode hex="0071"/>
  <outline>
    <contour>
      <point x="774" y="-332" type="line"/>
      <point x="774" y="-303" type="line"/>
      <point x="674" y="-303"/>
      <point x="662" y="-272"/>
      <point x="662" y="-178" type="curve" smooth="yes"/>
      <point x="662" y="711" type="line"/>
      <point x="635" y="711" type="line"/>
      <point x="608" y="692"/>
      <point x="580" y="676"/>
      <point x="549" y="662" type="curve"/>
      <point x="512" y="700"/>
      <point x="457" y="711"/>
      <point x="408" y="711" type="curve" smooth="yes"/>
      <point x="184" y="711"/>
      <point x="51" y="524"/>
      <point x="51" y="315" type="curve" smooth="yes"/>
      <point x="51" y="164"/>
      <point x="135" y="-23"/>
      <point x="309" y="-23" type="curve" smooth="yes"/>
      <point x="401" y="-23"/>
      <point x="481" y="53"/>
      <point x="537" y="121" type="curve"/>
      <point x="537" y="-178" type="line" smooth="yes"/>
      <point x="537" y="-274"/>
      <point x="524" y="-303"/>
      <point x="424" y="-303" type="curve"/>
      <point x="424" y="-332" type="line"/>
    </contour>
    <contour>
      <point x="537" y="166" type="line"/>
      <point x="498" y="123"/>
      <point x="446" y="84"/>
      <point x="387" y="84" type="curve" smooth="yes"/>
      <point x="233" y="84"/>
      <point x="178" y="240"/>
      <point x="178" y="371" type="curve" smooth="yes"/>
      <point x="178" y="498"/>
      <point x="227" y="657"/>
      <point x="383" y="657" type="curve" smooth="yes"/>
      <point x="492" y="657"/>
      <point x="537" y="594"/>
      <point x="537" y="492" type="curve" smooth="yes"/>
    </contour>
  </outline>
</glyph>
<glyph name="s" format="2">
  <advance width="602"/>
  <unicode hex="0073"/>
  <anchor x="311" y="760" name="above"/>
  <outline>
    <contour>
      <point x="547" y="174" type="curve" smooth="yes"/>
      <point x="547" y="426"/>
      <point x="164" y="375"/>
      <point x="164" y="575" type="curve" smooth="yes"/>
      <point x="164" y="651"/>
      <point x="238" y="668"/>
      <point x="297" y="668" type="curve" smooth="yes"/>
      <point x="410" y="668"/>
      <point x="461" y="573"/>
      <point x="483" y="475" type="curve"/>
      <point x="510" y="475" type="line"/>
      <point x="510" y="711" type="line"/>
      <point x="483" y="711" type="line"/>
      <point x="477" y="696"/>
      <point x="467" y="684"/>
      <point x="451" y="684" type="curve" smooth="yes"/>
      <point x="401" y="684"/>
      <point x="352" y="711"/>
      <point x="299" y="711" type="curve" smooth="yes"/>
      <point x="186" y="711"/>
      <point x="76" y="653"/>
      <point x="76" y="526" type="curve" smooth="yes"/>
      <point x="76" y="297"/>
      <point x="434" y="319"/>
      <point x="434" y="127" type="curve" smooth="yes"/>
      <point x="434" y="61"/>
      <point x="377" y="25"/>
      <point x="315" y="25" type="curve" smooth="yes"/>
      <point x="195" y="25"/>
      <point x="125" y="127"/>
      <point x="104" y="236" type="curve"/>
      <point x="78" y="236" type="line"/>
      <point x="78" y="-10" type="line" name="hr01"/>
      <point x="104" y="-10" type="line"/>
      <point x="109" y="-2"/>
      <point x="119" y="25"/>
      <point x="131" y="25" type="curve" smooth="yes" name="hr02"/>
      <point x="178" y="25"/>
      <point x="250" y="-23"/>
      <point x="315" y="-23" type="curve" smooth="yes"/>
      <point x="424" y="-23"/>
      <point x="547" y="55"/>
    </contour>
  </outline>
</glyph>
<glyph name="t" format="2">
  <advance width="430"/>
  <unicode hex="0074"/>
  <outline>
    <contour>
      <point x="401" y="127" type="line"/>
      <point x="385" y="88"/>
      <point x="360" y="63"/>
      <point x="315" y="63" type="curve" smooth="yes"/>
      <point x="258" y="63"/>
      <point x="248" y="133"/>
      <point x="248" y="178" type="curve" smooth="yes"/>
      <point x="248" y="639" type="line"/>
      <point x="410" y="639" type="line"/>
      <point x="410" y="690" type="line"/>
      <point x="248" y="690" type="line"/>
      <point x="248" y="918" type="line"/>
      <point x="225" y="918" type="line"/>
      <point x="184" y="821"/>
      <point x="117" y="702"/>
      <point x="12" y="662" type="curve"/>
      <point x="12" y="639" type="line"/>
      <point x="121" y="639" type="line"/>
      <point x="121" y="160" type="line" smooth="yes"/>
      <point x="121" y="66"/>
      <point x="150" y="-23"/>
      <point x="258" y="-23" type="curve" smooth="yes"/>
      <point x="342" y="-23"/>
      <point x="408" y="51"/>
      <point x="430" y="127" type="curve"/>
    </contour>
  </outline>
</glyph>
<glyph name="u" format="2">
  <advance width="772"/>
  <unicode hex="0075"/>
  <anchor x="387" y="760" name="above"/>
  <outline>
    <contour>
      <point x="774" y="63" type="line"/>
      <point x="764" y="90" type="line"/>
      <point x="743" y="82"/>
      <point x="723" y="78"/>
      <point x="702" y="78" type="curve" smooth="yes"/>
      <point x="657" y="78"/>
      <point x="655" y="152"/>
      <point x="655" y="182" type="curve" smooth="yes"/>
      <point x="655" y="690" type="line"/>
      <point x="418" y="690" type="line"/>
      <point x="418" y="662" type="line"/>
      <point x="496" y="662"/>
      <point x="530" y="645"/>
      <point x="530" y="561" type="curve" smooth="yes"/>
      <point x="530" y="170" type="line"/>
      <point x="487" y="125"/>
      <point x="424" y="72"/>
      <point x="358" y="72" type="curve" smooth="yes"/>
      <point x="264" y="72"/>
      <point x="244" y="150"/>
      <point x="244" y="229" type="curve" smooth="yes"/>
      <point x="244" y="690" type="line"/>
      <point x="0" y="690" type="line"/>
      <point x="0" y="662" type="line"/>
      <point x="86" y="662"/>
      <point x="117" y="645"/>
      <point x="117" y="555" type="curve" smooth="yes"/>
      <point x="117" y="246" type="line" smooth="yes"/>
      <point x="117" y="125"/>
      <point x="145" y="-23"/>
      <point x="295" y="-23" type="curve" smooth="yes"/>
      <point x="391" y="-23"/>
      <point x="469" y="59"/>
      <point x="530" y="125" type="curve"/>
      <point x="530" y="-23" type="line"/>
      <point x="565" y="-23" type="line"/>
    </contour>
  </outline>
</glyph>
<glyph name="v" format="2">
  <advance width="926"/>
  <unicode hex="0076"/>
  <outline>
    <contour>
      <point x="910" y="828" type="line"/>
      <point x="638" y="828" type="line"/>
      <point x="638" y="794" type="line"/>
      <point x="685" y="794"/>
      <point x="732" y="792"/>
      <point x="732" y="752" type="curve" smooth="yes"/>
      <point x="732" y="725"/>
      <point x="722" y="698"/>
      <point x="713" y="676" type="curve" smooth="yes"/>
      <point x="518" y="199" type="line"/>
      <point x="326" y="656" type="line" smooth="yes"/>
      <point x="317" y="678"/>
      <point x="307" y="703"/>
      <point x="307" y="730" type="curve" smooth="yes"/>
      <point x="307" y="794"/>
      <point x="354" y="794"/>
      <point x="406" y="794" type="curve"/>
      <point x="406" y="828" type="line"/>
      <point x="14" y="828" type="line"/>
      <point x="14" y="794" type="line"/>
      <point x="96" y="781"/>
      <point x="126" y="755"/>
      <point x="160" y="676" type="curve" smooth="yes"/>
      <point x="457" y="-28" type="line"/>
      <point x="494" y="-28" type="line"/>
      <point x="786" y="685" type="line" smooth="yes"/>
      <point x="814" y="752"/>
      <point x="833" y="791"/>
      <point x="910" y="794" type="curve"/>
    </contour>
  </outline>
</glyph>
<glyph name="x" format="2">
  <advance width="772"/>
  <unicode hex="0078"/>
  <outline>
    <contour>
      <point x="754" y="0" type="line"/>
      <point x="754" y="29" type="line"/>
      <point x="697" y="31"/>
      <point x="673" y="48"/>
      <point x="600" y="152" type="curve" smooth="yes"/>
      <point x="421" y="406" type="line"/>
      <point x="472" y="476"/>
      <point x="573" y="659"/>
      <point x="680" y="662" type="curve"/>
      <point x="680" y="690" type="line"/>
      <point x="446" y="690" type="line"/>
      <point x="446" y="662" type="line"/>
      <point x="471" y="662"/>
      <point x="502" y="657"/>
      <point x="502" y="627" type="curve" smooth="yes"/>
      <point x="502" y="600"/>
      <point x="410" y="479"/>
      <point x="391" y="453" type="curve"/>
      <point x="373" y="479"/>
      <point x="289" y="602"/>
      <point x="289" y="625" type="curve" smooth="yes"/>
      <point x="289" y="655"/>
      <point x="311" y="662"/>
      <point x="338" y="662" type="curve" smooth="yes"/>
      <point x="346" y="662" type="line"/>
      <point x="346" y="690" type="line"/>
      <point x="20" y="690" type="line"/>
      <point x="20" y="662" type="line"/>
      <point x="103" y="659"/>
      <point x="135" y="612"/>
      <point x="184" y="541" type="curve" smooth="yes"/>
      <point x="315" y="350" type="line"/>
      <point x="170" y="158" type="line" smooth="yes"/>
      <point x="96" y="60"/>
      <point x="66" y="29"/>
      <point x="27" y="29" type="curve"/>
      <point x="27" y="0" type="line"/>
      <point x="252" y="0" type="line"/>
      <point x="252" y="29" type="line"/>
      <point x="223" y="29"/>
      <point x="184" y="37"/>
      <point x="184" y="74" type="curve" smooth="yes"/>
      <point x="184" y="113"/>
      <point x="317" y="268"/>
      <point x="346" y="305" type="curve"/>
      <point x="369" y="272"/>
      <point x="496" y="100"/>
      <point x="496" y="72" type="curve" smooth="yes"/>
      <point x="496" y="35"/>
      <point x="457" y="29"/>
      <point x="428" y="29" type="curve"/>
      <point x="428" y="0" type="line"/>
    </contour>
  </outline>
</glyph>
<glyph name="y" format="2">
  <advance width="772"/>
  <unicode hex="0079"/>
  <anchor x="420" y="760" name="above"/>
  <outline>
    <contour>
      <point x="764" y="690" type="line"/>
      <point x="539" y="690" type="line"/>
      <point x="539" y="662" type="line"/>
      <point x="571" y="662"/>
      <point x="610" y="662"/>
      <point x="610" y="621" type="curve" smooth="yes"/>
      <point x="610" y="603"/>
      <point x="602" y="584"/>
      <point x="594" y="565" type="curve" smooth="yes"/>
      <point x="440" y="182" type="line"/>
      <point x="272" y="530" type="line" smooth="yes"/>
      <point x="260" y="555"/>
      <point x="246" y="584"/>
      <point x="246" y="612" type="curve" smooth="yes"/>
      <point x="246" y="662"/>
      <point x="293" y="662"/>
      <point x="332" y="662" type="curve"/>
      <point x="332" y="690" type="line"/>
      <point x="8" y="690" type="line"/>
      <point x="8" y="662" type="line"/>
      <point x="76" y="655"/>
      <point x="107" y="603"/>
      <point x="133" y="549" type="curve" smooth="yes"/>
      <point x="381" y="29" type="line"/>
      <point x="362" y="-16"/>
      <point x="307" y="-207"/>
      <point x="227" y="-207" type="curve" smooth="yes"/>
      <point x="195" y="-207"/>
      <point x="158" y="-180"/>
      <point x="121" y="-180" type="curve" smooth="yes"/>
      <point x="76" y="-180"/>
      <point x="45" y="-199"/>
      <point x="45" y="-248" type="curve" smooth="yes"/>
      <point x="45" y="-303"/>
      <point x="96" y="-334"/>
      <point x="147" y="-334" type="curve" smooth="yes"/>
      <point x="258" y="-334"/>
      <point x="342" y="-225"/>
      <point x="381" y="-131" type="curve" smooth="yes"/>
      <point x="662" y="559" type="line" smooth="yes"/>
      <point x="685" y="616"/>
      <point x="701" y="657"/>
      <point x="764" y="662" type="curve"/>
    </contour>
  </outline>
</glyph>
<glyph name="z" format="2">
  <unicode hex="007A"/>
  <advance width="686"/>
  <anchor x="377" y="760" name="above"/>
  <outline>
    <contour>
      <point x="662" y="662" type="line"/>
      <point x="662" y="690" type="line"/>
      <point x="82" y="690" type="line"/>
      <point x="78" y="500" type="line"/>
      <point x="106" y="500" type="line"/>
      <point x="119" y="618"/>
      <point x="147" y="639"/>
      <point x="262" y="639" type="curve" smooth="yes"/>
      <point x="489" y="639" type="line"/>
      <point x="31" y="29" type="line"/>
      <point x="31" y="0" type="line"/>
      <point x="639" y="0" type="line"/>
      <point x="649" y="211" type="line"/>
      <point x="623" y="211" type="line"/>
      <point x="606" y="78"/>
      <point x="592" y="51"/>
      <point x="451" y="51" type="curve" smooth="yes"/>
      <point x="197" y="51" type="line"/>
    </contour>
  </outline>
</glyph>
<glyph name="braceleft" format="2">
  <advance width="884"/>
  <unicode hex="007B"/>
  <outline>
    <contour>
      <point x="701" y="-366" type="line"/>
      <point x="575" y="-337"/>
      <point x="499" y="-260"/>
      <point x="499" y="-127" type="curve" smooth="yes"/>
      <point x="499" y="-44"/>
      <point x="539" y="35"/>
      <point x="539" y="120" type="curve" smooth="yes" name="hr01"/>
      <point x="539" y="288"/>
      <point x="443" y="389"/>
      <point x="290" y="445" type="curve"/>
      <point x="440" y="499"/>
      <point x="539" y="600"/>
      <point x="539" y="764" type="curve" smooth="yes"/>
      <point x="539" y="851"/>
      <point x="499" y="931"/>
      <point x="499" y="1015" type="curve" smooth="yes" name="hr02"/>
      <point x="499" y="1147"/>
      <point x="575" y="1224"/>
      <point x="701" y="1253" type="curve"/>
      <point x="701" y="1285" type="line"/>
      <point x="533" y="1268"/>
      <point x="364" y="1130"/>
      <point x="364" y="952" type="curve" smooth="yes"/>
      <point x="364" y="853"/>
      <point x="406" y="760"/>
      <point x="406" y="661" type="curve" smooth="yes" name="hr03"/>
      <point x="406" y="556"/>
      <point x="295" y="479"/>
      <point x="197" y="467" type="curve"/>
      <point x="197" y="420" type="line"/>
      <point x="295" y="408"/>
      <point x="406" y="329"/>
      <point x="406" y="223" type="curve" smooth="yes"/>
      <point x="406" y="131"/>
      <point x="364" y="42"/>
      <point x="364" y="-52" type="curve" smooth="yes" name="hr04"/>
      <point x="364" y="-234"/>
      <point x="526" y="-380"/>
      <point x="701" y="-398" type="curve"/>
    </contour>
  </outline>
</glyph>
<glyph name="bar" format="2">
  <advance width="309"/>
  <unicode hex="007C"/>
  <outline>
    <contour>
      <point x="186" y="-334" type="line"/>
      <point x="186" y="1071" type="line"/>
      <point x="121" y="1071" type="line"/>
      <point x="121" y="-334" type="line"/>
    </contour>
  </outline>
</glyph>
<glyph name="braceright" format="2">
  <unicode hex="007D"/>
  <advance width="737"/>
  <outline>
    <contour>
      <point x="573" y="389" type="line"/>
      <point x="492" y="399"/>
      <point x="401" y="463"/>
      <point x="401" y="551" type="curve" smooth="yes"/>
      <point x="401" y="633"/>
      <point x="434" y="711"/>
      <point x="434" y="793" type="curve" smooth="yes" name="hr01"/>
      <point x="434" y="942"/>
      <point x="295" y="1057"/>
      <point x="154" y="1071" type="curve"/>
      <point x="154" y="1044" type="line"/>
      <point x="258" y="1020"/>
      <point x="322" y="956"/>
      <point x="322" y="846" type="curve" smooth="yes"/>
      <point x="322" y="776"/>
      <point x="289" y="709"/>
      <point x="289" y="637" type="curve" smooth="yes" name="hr02"/>
      <point x="289" y="500"/>
      <point x="371" y="416"/>
      <point x="496" y="371" type="curve"/>
      <point x="371" y="324"/>
      <point x="289" y="240"/>
      <point x="289" y="100" type="curve" smooth="yes"/>
      <point x="289" y="29"/>
      <point x="322" y="-37"/>
      <point x="322" y="-106" type="curve" smooth="yes" name="hr03"/>
      <point x="322" y="-217"/>
      <point x="258" y="-281"/>
      <point x="154" y="-305" type="curve"/>
      <point x="154" y="-332" type="line"/>
      <point x="299" y="-317"/>
      <point x="434" y="-195"/>
      <point x="434" y="-43" type="curve" smooth="yes"/>
      <point x="434" y="35"/>
      <point x="401" y="109"/>
      <point x="401" y="186" type="curve" smooth="yes" name="hr04"/>
      <point x="401" y="274"/>
      <point x="492" y="340"/>
      <point x="573" y="350" type="curve"/>
    </contour>
  </outline>
</glyph>
<glyph name="asciitilde" format="2">
  <unicode hex="007E"/>
  <advance width="840"/>
  <outline>
    <contour>
      <point x="768" y="532" type="line"/>
      <point x="735" y="467"/>
      <point x="684" y="397"/>
      <point x="606" y="397" type="curve" smooth="yes"/>
      <point x="508" y="397"/>
      <point x="358" y="512"/>
      <point x="244" y="512" type="curve" smooth="yes"/>
      <point x="133" y="512"/>
      <point x="76" y="420"/>
      <point x="31" y="334" type="curve"/>
      <point x="72" y="279" type="line"/>
      <point x="109" y="342"/>
      <point x="154" y="422"/>
      <point x="236" y="422" type="curve" smooth="yes"/>
      <point x="358" y="422"/>
      <point x="473" y="311"/>
      <point x="598" y="311" type="curve" smooth="yes" name="hr01"/>
      <point x="700" y="311"/>
      <point x="768" y="393"/>
      <point x="811" y="475" type="curve"/>
    </contour>
  </outline>
</glyph>
<glyph name="exclamdown" format="2">
  <unicode hex="00A1"/>
  <advance width="514"/>
  <outline>
    <contour>
      <point x="342" y="649" type="curve" smooth="yes"/>
      <point x="342" y="710"/>
      <point x="291" y="736"/>
      <point x="257" y="736" type="curve" smooth="yes"/>
      <point x="213" y="736"/>
      <point x="174" y="697"/>
      <point x="174" y="649" type="curve" smooth="yes"/>
      <point x="174" y="598"/>
      <point x="218" y="567"/>
      <point x="257" y="567" type="curve" smooth="yes"/>
      <point x="296" y="567"/>
      <point x="342" y="596"/>
    </contour>
    <contour>
      <point x="343" y="-227" type="curve" smooth="yes"/>
      <point x="343" y="-215"/>
      <point x="342" y="-205"/>
      <point x="337" y="-169" type="curve"/>
      <point x="272" y="442" type="line"/>
      <point x="242" y="442" type="line"/>
      <point x="174" y="-169" type="line"/>
      <point x="171" y="-190"/>
      <point x="171" y="-208"/>
      <point x="171" y="-220" type="curve" smooth="yes"/>
      <point x="171" y="-303"/>
      <point x="218" y="-333"/>
      <point x="255" y="-333" type="curve" smooth="yes"/>
      <point x="305" y="-333"/>
      <point x="343" y="-295"/>
    </contour>
  </outline>
</glyph>
<glyph name="currency" format="2">
  <unicode hex="00A4"/>
  <advance width="891"/>
  <outline>
    <contour>
      <point x="846" y="291" type="line"/>
      <point x="694" y="444" type="line"/>
      <point x="737" y="498"/>
      <point x="758" y="565"/>
      <point x="758" y="635" type="curve" smooth="yes"/>
      <point x="758" y="707"/>
      <point x="737" y="776"/>
      <point x="692" y="831" type="curve"/>
      <point x="846" y="985" type="line"/>
      <point x="793" y="1040" type="line"/>
      <point x="635" y="883" type="line"/>
      <point x="582" y="928"/>
      <point x="518" y="948"/>
      <point x="449" y="948" type="curve" smooth="yes"/>
      <point x="379" y="948"/>
      <point x="309" y="928"/>
      <point x="254" y="883" type="curve"/>
      <point x="98" y="1040" type="line"/>
      <point x="45" y="985" type="line"/>
      <point x="201" y="829" type="line"/>
      <point x="152" y="776"/>
      <point x="133" y="705"/>
      <point x="133" y="635" type="curve" smooth="yes"/>
      <point x="133" y="565"/>
      <point x="154" y="498"/>
      <point x="197" y="444" type="curve"/>
      <point x="45" y="291" type="line"/>
      <point x="98" y="238" type="line"/>
      <point x="252" y="391" type="line"/>
      <point x="307" y="342"/>
      <point x="375" y="322"/>
      <point x="449" y="322" type="curve" smooth="yes"/>
      <point x="520" y="322"/>
      <point x="586" y="344"/>
      <point x="639" y="391" type="curve"/>
      <point x="793" y="238" type="line"/>
    </contour>
    <contour>
      <point x="674" y="635" type="curve" smooth="yes"/>
      <point x="674" y="510"/>
      <point x="575" y="406"/>
      <point x="449" y="406" type="curve" smooth="yes"/>
      <point x="319" y="406"/>
      <point x="217" y="506"/>
      <point x="217" y="635" type="curve" smooth="yes"/>
      <point x="217" y="764"/>
      <point x="319" y="864"/>
      <point x="449" y="864" type="curve" smooth="yes"/>
      <point x="573" y="864"/>
      <point x="674" y="760"/>
    </contour>
  </outline>
</glyph>
<glyph name="yen" format="2">
  <unicode hex="00A5"/>
  <advance width="772"/>
  <outline>
    <contour>
      <point x="758" y="266" type="line"/>
      <point x="758" y="322" type="line"/>
      <point x="451" y="322" type="line"/>
      <point x="451" y="442" type="line"/>
      <point x="457" y="457" type="line"/>
      <point x="758" y="457" type="line"/>
      <point x="758" y="510" type="line"/>
      <point x="477" y="510" type="line"/>
      <point x="641" y="877" type="line" smooth="yes"/>
      <point x="670" y="940"/>
      <point x="696" y="995"/>
      <point x="772" y="995" type="curve"/>
      <point x="772" y="1022" type="line"/>
      <point x="510" y="1022" type="line"/>
      <point x="510" y="995" type="line"/>
      <point x="543" y="993"/>
      <point x="594" y="989"/>
      <point x="594" y="948" type="curve" smooth="yes"/>
      <point x="594" y="928"/>
      <point x="587" y="908"/>
      <point x="580" y="891" type="curve" smooth="yes"/>
      <point x="418" y="510" type="line"/>
      <point x="406" y="543"/>
      <point x="242" y="932"/>
      <point x="242" y="948" type="curve" smooth="yes"/>
      <point x="242" y="983"/>
      <point x="309" y="993"/>
      <point x="336" y="995" type="curve"/>
      <point x="336" y="1022" type="line"/>
      <point x="2" y="1022" type="line"/>
      <point x="2" y="995" type="line"/>
      <point x="78" y="987"/>
      <point x="97" y="950"/>
      <point x="125" y="885" type="curve" smooth="yes"/>
      <point x="285" y="510" type="line"/>
      <point x="14" y="510" type="line"/>
      <point x="14" y="457" type="line"/>
      <point x="311" y="457" type="line"/>
      <point x="322" y="430" type="line"/>
      <point x="322" y="322" type="line"/>
      <point x="14" y="322" type="line"/>
      <point x="14" y="266" type="line" name="hr01"/>
      <point x="322" y="266" type="line"/>
      <point x="322" y="184" type="line" smooth="yes"/>
      <point x="322" y="63"/>
      <point x="322" y="31"/>
      <point x="190" y="31" type="curve"/>
      <point x="190" y="0" type="line" name="hr02"/>
      <point x="580" y="0" type="line"/>
      <point x="580" y="31" type="line"/>
      <point x="453" y="31"/>
      <point x="451" y="68"/>
      <point x="451" y="184" type="curve" smooth="yes"/>
      <point x="451" y="266" type="line" name="hr03"/>
    </contour>
  </outline>
</glyph>
<glyph name="brokenbar" format="2">
  <unicode hex="00A6"/>
  <advance width="467"/>
  <outline>
    <contour>
      <point x="272" y="500" type="line"/>
      <point x="272" y="1094" type="line"/>
      <point x="197" y="1094" type="line"/>
      <point x="197" y="500" type="line"/>
    </contour>
    <contour>
      <point x="272" y="-295" type="line"/>
      <point x="272" y="299" type="line"/>
      <point x="197" y="299" type="line"/>
      <point x="197" y="-295" type="line"/>
    </contour>
  </outline>
</glyph>
<glyph name="section" format="2">
  <advance width="772"/>
  <unicode hex="00A7"/>
  <outline>
    <contour>
      <point x="655" y="362" type="curve" smooth="yes"/>
      <point x="655" y="616"/>
      <point x="272" y="686"/>
      <point x="272" y="881" type="curve" smooth="yes"/>
      <point x="272" y="956"/>
      <point x="328" y="1012"/>
      <point x="403" y="1012" type="curve" smooth="yes"/>
      <point x="453" y="1012"/>
      <point x="487" y="993"/>
      <point x="487" y="940" type="curve" smooth="yes" name="hr01"/>
      <point x="487" y="915"/>
      <point x="477" y="891"/>
      <point x="477" y="866" type="curve" smooth="yes"/>
      <point x="477" y="836"/>
      <point x="506" y="809"/>
      <point x="537" y="809" type="curve" smooth="yes"/>
      <point x="580" y="809"/>
      <point x="596" y="838"/>
      <point x="596" y="877" type="curve" smooth="yes"/>
      <point x="596" y="983"/>
      <point x="502" y="1044"/>
      <point x="403" y="1044" type="curve" smooth="yes"/>
      <point x="287" y="1044"/>
      <point x="190" y="948"/>
      <point x="190" y="831" type="curve" smooth="yes"/>
      <point x="190" y="760"/>
      <point x="240" y="688"/>
      <point x="283" y="635" type="curve"/>
      <point x="188" y="578"/>
      <point x="117" y="496"/>
      <point x="117" y="381" type="curve" smooth="yes" name="hr02"/>
      <point x="117" y="129"/>
      <point x="504" y="45"/>
      <point x="504" y="-150" type="curve" smooth="yes"/>
      <point x="504" y="-213"/>
      <point x="434" y="-272"/>
      <point x="371" y="-272" type="curve" smooth="yes"/>
      <point x="338" y="-272"/>
      <point x="281" y="-256"/>
      <point x="281" y="-213" type="curve" smooth="yes"/>
      <point x="281" y="-186"/>
      <point x="295" y="-158"/>
      <point x="295" y="-131" type="curve" smooth="yes"/>
      <point x="295" y="-98"/>
      <point x="272" y="-66"/>
      <point x="236" y="-66" type="curve" smooth="yes"/>
      <point x="199" y="-66"/>
      <point x="178" y="-98"/>
      <point x="178" y="-133" type="curve" smooth="yes" name="hr03"/>
      <point x="178" y="-233"/>
      <point x="268" y="-301"/>
      <point x="365" y="-301" type="curve" smooth="yes"/>
      <point x="489" y="-301"/>
      <point x="580" y="-209"/>
      <point x="580" y="-86" type="curve" smooth="yes"/>
      <point x="580" y="-12"/>
      <point x="537" y="53"/>
      <point x="489" y="104" type="curve"/>
      <point x="584" y="164"/>
      <point x="655" y="246"/>
    </contour>
    <contour>
      <point x="309" y="612" type="curve"/>
      <point x="399" y="537"/>
      <point x="578" y="426"/>
      <point x="578" y="295" type="curve" smooth="yes"/>
      <point x="578" y="219"/>
      <point x="522" y="164"/>
      <point x="463" y="127" type="curve"/>
      <point x="379" y="225"/>
      <point x="193" y="289"/>
      <point x="193" y="444" type="curve" smooth="yes"/>
      <point x="193" y="520"/>
      <point x="246" y="575"/>
    </contour>
  </outline>
</glyph>
<glyph name="dieresis" format="2">
  <advance width="553"/>
  <unicode hex="00A8"/>
  <anchor x="290" y="924" name="_above"/>
  <outline>
    <contour>
      <point x="553" y="1111" type="curve" smooth="yes"/>
      <point x="553" y="1160"/>
      <point x="511" y="1201"/>
      <point x="462" y="1201" type="curve" smooth="yes"/>
      <point x="415" y="1201"/>
      <point x="368" y="1158"/>
      <point x="368" y="1111" type="curve" smooth="yes"/>
      <point x="368" y="1062"/>
      <point x="413" y="1018"/>
      <point x="462" y="1018" type="curve" smooth="yes"/>
      <point x="511" y="1018"/>
      <point x="553" y="1060"/>
    </contour>
    <contour>
      <point x="185" y="1111" type="curve" smooth="yes"/>
      <point x="185" y="1160"/>
      <point x="140" y="1201"/>
      <point x="91" y="1201" type="curve" smooth="yes"/>
      <point x="44" y="1201"/>
      <point x="0" y="1158"/>
      <point x="0" y="1111" type="curve" smooth="yes"/>
      <point x="0" y="1062"/>
      <point x="42" y="1018"/>
      <point x="91" y="1018" type="curve" smooth="yes"/>
      <point x="140" y="1018"/>
      <point x="185" y="1060"/>
    </contour>
  </outline>
</glyph>
<glyph name="ordfeminine" format="2">
  <advance width="590"/>
  <unicode hex="00AA"/>
  <outline>
    <contour>
      <point x="588" y="832" type="line"/>
      <point x="542" y="791"/>
      <point x="533" y="787"/>
      <point x="518" y="787" type="curve" smooth="yes"/>
      <point x="500" y="787"/>
      <point x="494" y="794"/>
      <point x="490" y="815" type="curve" smooth="yes"/>
      <point x="487" y="826"/>
      <point x="486" y="856"/>
      <point x="486" y="902" type="curve" smooth="yes"/>
      <point x="486" y="1072" type="line" smooth="yes"/>
      <point x="486" y="1175"/>
      <point x="460" y="1241"/>
      <point x="287" y="1241" type="curve" smooth="yes"/>
      <point x="173" y="1241"/>
      <point x="70" y="1194"/>
      <point x="70" y="1116" type="curve" smooth="yes"/>
      <point x="70" y="1084"/>
      <point x="89" y="1064"/>
      <point x="125" y="1064" type="curve" smooth="yes"/>
      <point x="156" y="1064"/>
      <point x="179" y="1081"/>
      <point x="179" y="1115" type="curve" smooth="yes"/>
      <point x="179" y="1123"/>
      <point x="178" y="1139"/>
      <point x="176" y="1148" type="curve"/>
      <point x="180" y="1182"/>
      <point x="212" y="1210"/>
      <point x="265" y="1210" type="curve" smooth="yes"/>
      <point x="342" y="1210"/>
      <point x="378" y="1175"/>
      <point x="378" y="1079" type="curve" smooth="yes" name="hr01"/>
      <point x="378" y="1060" type="line"/>
      <point x="95" y="977"/>
      <point x="46" y="920"/>
      <point x="46" y="847" type="curve" smooth="yes" name="hr02"/>
      <point x="46" y="770"/>
      <point x="103" y="720"/>
      <point x="188" y="720" type="curve" smooth="yes"/>
      <point x="252" y="720"/>
      <point x="272" y="733"/>
      <point x="378" y="800" type="curve" name="hr03"/>
      <point x="378" y="738"/>
      <point x="410" y="720"/>
      <point x="448" y="720" type="curve" smooth="yes"/>
      <point x="493" y="720"/>
      <point x="540" y="746"/>
      <point x="588" y="800" type="curve"/>
    </contour>
    <contour>
      <point x="578" y="592" type="line"/>
      <point x="578" y="631" type="line"/>
      <point x="53" y="631" type="line"/>
      <point x="53" y="592" type="line"/>
    </contour>
    <contour>
      <point x="378" y="836" type="line"/>
      <point x="325" y="800"/>
      <point x="281" y="781"/>
      <point x="248" y="781" type="curve" smooth="yes"/>
      <point x="199" y="781"/>
      <point x="157" y="822"/>
      <point x="157" y="871" type="curve" smooth="yes"/>
      <point x="157" y="920"/>
      <point x="176" y="961"/>
      <point x="378" y="1027" type="curve"/>
    </contour>
  </outline>
</glyph>
<glyph name="guillemotleft" format="2">
  <advance width="772"/>
  <unicode hex="00AB"/>
  <outline>
    <contour>
      <point x="723" y="-6" type="line"/>
      <point x="539" y="350" type="line"/>
      <point x="723" y="705" type="line"/>
      <point x="680" y="705" type="line"/>
      <point x="383" y="350" type="line"/>
      <point x="680" y="-6" type="line"/>
    </contour>
    <contour>
      <point x="381" y="-6" type="line"/>
      <point x="197" y="350" type="line"/>
      <point x="381" y="705" type="line"/>
      <point x="340" y="705" type="line"/>
      <point x="47" y="350" type="line"/>
      <point x="340" y="-6" type="line"/>
    </contour>
  </outline>
</glyph>
<glyph name="logicalnot" format="2">
  <unicode hex="00AC"/>
  <advance width="922"/>
  <outline>
    <contour>
      <point x="862" y="281" type="line"/>
      <point x="862" y="625" type="line"/>
      <point x="59" y="625" type="line"/>
      <point x="59" y="535" type="line"/>
      <point x="772" y="535" type="line"/>
      <point x="772" y="281" type="line"/>
    </contour>
  </outline>
</glyph>
<glyph name="sfthyphen" format="2">
  <advance width="514"/>
  <unicode hex="00AD"/>
  <outline>
    <contour>
      <point x="451" y="289" type="line"/>
      <point x="451" y="401" type="line"/>
      <point x="61" y="401" type="line"/>
      <point x="61" y="289" type="line"/>
    </contour>
  </outline>
</glyph>
<glyph name="registered" format="2">
  <advance width="1409"/>
  <unicode hex="00AE"/>
  <outline>
    <contour>
      <point x="1346" y="612" type="curve" smooth="yes"/>
      <point x="1346" y="976"/>
      <point x="1067" y="1253"/>
      <point x="703" y="1253" type="curve" smooth="yes"/>
      <point x="342" y="1253"/>
      <point x="61" y="976"/>
      <point x="61" y="612" type="curve" smooth="yes"/>
      <point x="61" y="251"/>
      <point x="342" y="-30"/>
      <point x="703" y="-30" type="curve" smooth="yes"/>
      <point x="1064" y="-30"/>
      <point x="1346" y="253"/>
    </contour>
    <contour>
      <point x="1290" y="612" type="curve" smooth="yes"/>
      <point x="1290" y="286"/>
      <point x="1032" y="30"/>
      <point x="703" y="30" type="curve" smooth="yes"/>
      <point x="376" y="30"/>
      <point x="120" y="286"/>
      <point x="120" y="612" type="curve" smooth="yes"/>
      <point x="120" y="938"/>
      <point x="376" y="1199"/>
      <point x="703" y="1199" type="curve" smooth="yes"/>
      <point x="1032" y="1199"/>
      <point x="1290" y="941"/>
    </contour>
    <contour>
      <point x="1067" y="226" type="line"/>
      <point x="1067" y="256" type="line" name="hr01"/>
      <point x="1018" y="260"/>
      <point x="986" y="292"/>
      <point x="956" y="335" type="curve" smooth="yes"/>
      <point x="767" y="605" type="line"/>
      <point x="872" y="629"/>
      <point x="968" y="685"/>
      <point x="968" y="806" type="curve" smooth="yes"/>
      <point x="968" y="952"/>
      <point x="823" y="1008"/>
      <point x="698" y="1008" type="curve" smooth="yes"/>
      <point x="349" y="1008" type="line"/>
      <point x="349" y="976" type="line"/>
      <point x="425" y="976"/>
      <point x="430" y="948"/>
      <point x="430" y="877" type="curve" smooth="yes"/>
      <point x="430" y="378" type="line" smooth="yes"/>
      <point x="430" y="286"/>
      <point x="422" y="256"/>
      <point x="340" y="256" type="curve"/>
      <point x="340" y="226" type="line"/>
      <point x="671" y="226" type="line"/>
      <point x="671" y="256" type="line"/>
      <point x="610" y="256"/>
      <point x="563" y="263"/>
      <point x="563" y="324" type="curve" smooth="yes"/>
      <point x="563" y="593" type="line"/>
      <point x="631" y="593" type="line"/>
      <point x="898" y="226" type="line"/>
    </contour>
    <contour>
      <point x="823" y="794" type="curve" smooth="yes"/>
      <point x="823" y="654"/>
      <point x="676" y="631"/>
      <point x="563" y="631" type="curve"/>
      <point x="563" y="956" type="line"/>
      <point x="587" y="964"/>
      <point x="614" y="968"/>
      <point x="638" y="968" type="curve" smooth="yes"/>
      <point x="742" y="968"/>
      <point x="823" y="902"/>
    </contour>
  </outline>
</glyph>
<glyph name="overscore" format="2">
  <advance width="483"/>
  <unicode hex="00AF"/>
  <outline>
    <contour>
      <point x="483" y="848" type="line"/>
      <point x="483" y="932" type="line"/>
      <point x="0" y="932" type="line"/>
      <point x="0" y="848" type="line"/>
    </contour>
  </outline>
</glyph>
<glyph name="degree" format="2">
  <advance width="570"/>
  <unicode hex="00B0"/>
  <outline>
    <contour>
      <point x="481" y="1086" type="curve" smooth="yes"/>
      <point x="481" y="1196"/>
      <point x="396" y="1283"/>
      <point x="286" y="1283" type="curve" smooth="yes"/>
      <point x="174" y="1283"/>
      <point x="89" y="1196"/>
      <point x="89" y="1086" type="curve" smooth="yes"/>
      <point x="89" y="978"/>
      <point x="174" y="892"/>
      <point x="286" y="892" type="curve" smooth="yes"/>
      <point x="396" y="892"/>
      <point x="481" y="978"/>
    </contour>
    <contour>
      <point x="410" y="1086" type="curve" smooth="yes"/>
      <point x="410" y="1018"/>
      <point x="354" y="964"/>
      <point x="286" y="964" type="curve" smooth="yes"/>
      <point x="216" y="964"/>
      <point x="160" y="1018"/>
      <point x="160" y="1086" type="curve" smooth="yes"/>
      <point x="160" y="1156"/>
      <point x="216" y="1212"/>
      <point x="286" y="1212" type="curve" smooth="yes"/>
      <point x="354" y="1212"/>
      <point x="410" y="1156"/>
    </contour>
  </outline>
</glyph>
<glyph name="plusminus" format="2">
  <advance width="1485"/>
  <unicode hex="00B1"/>
  <outline>
    <contour>
      <point x="1188" y="532" type="line"/>
      <point x="1188" y="625" type="line"/>
      <point x="788" y="625" type="line"/>
      <point x="788" y="891" type="line"/>
      <point x="696" y="891" type="line"/>
      <point x="696" y="625" type="line"/>
      <point x="297" y="625" type="line"/>
      <point x="297" y="532" type="line"/>
      <point x="696" y="532" type="line"/>
      <point x="696" y="264" type="line"/>
      <point x="788" y="264" type="line"/>
      <point x="788" y="532" type="line"/>
    </contour>
    <contour>
      <point x="1188" y="0" type="line"/>
      <point x="1188" y="92" type="line"/>
      <point x="297" y="92" type="line"/>
      <point x="297" y="0" type="line"/>
    </contour>
  </outline>
</glyph>
<glyph name="twosuperior" format="2">
  <advance width="652"/>
  <unicode hex="00B2"/>
  <outline>
    <contour>
      <point x="605" y="607" type="line"/>
      <point x="580" y="607" type="line"/>
      <point x="534" y="551"/>
      <point x="488" y="548"/>
      <point x="394" y="548" type="curve" smooth="yes"/>
      <point x="160" y="548" type="line"/>
      <point x="280" y="644"/>
      <point x="551" y="860"/>
      <point x="551" y="1022" type="curve" smooth="yes"/>
      <point x="551" y="1153"/>
      <point x="410" y="1217"/>
      <point x="298" y="1217" type="curve" smooth="yes"/>
      <point x="157" y="1217"/>
      <point x="68" y="1150"/>
      <point x="49" y="1008" type="curve"/>
      <point x="71" y="1008" type="line"/>
      <point x="106" y="1096"/>
      <point x="172" y="1133"/>
      <point x="263" y="1133" type="curve" smooth="yes"/>
      <point x="359" y="1133"/>
      <point x="438" y="1074"/>
      <point x="438" y="973" type="curve" smooth="yes"/>
      <point x="438" y="810"/>
      <point x="208" y="624"/>
      <point x="22" y="484" type="curve"/>
      <point x="22" y="464" type="line"/>
      <point x="541" y="464" type="line"/>
    </contour>
  </outline>
</glyph>
<glyph name="threesuperior" format="2">
  <advance width="652"/>
  <unicode hex="00B3"/>
  <outline>
    <contour>
      <point x="548" y="715" type="curve" smooth="yes"/>
      <point x="548" y="818"/>
      <point x="479" y="877"/>
      <point x="386" y="907" type="curve"/>
      <point x="438" y="943"/>
      <point x="504" y="1003"/>
      <point x="504" y="1072" type="curve" smooth="yes" name="hr01"/>
      <point x="504" y="1180"/>
      <point x="389" y="1222"/>
      <point x="300" y="1222" type="curve" smooth="yes"/>
      <point x="190" y="1222"/>
      <point x="110" y="1160"/>
      <point x="61" y="1067" type="curve"/>
      <point x="82" y="1057" type="line"/>
      <point x="122" y="1114"/>
      <point x="180" y="1147"/>
      <point x="251" y="1147" type="curve" smooth="yes"/>
      <point x="326" y="1147"/>
      <point x="398" y="1106"/>
      <point x="398" y="1022" type="curve" smooth="yes"/>
      <point x="398" y="917"/>
      <point x="288" y="863"/>
      <point x="197" y="853" type="curve"/>
      <point x="197" y="835" type="line"/>
      <point x="319" y="833"/>
      <point x="452" y="797"/>
      <point x="452" y="649" type="curve" smooth="yes" name="hr02"/>
      <point x="452" y="563"/>
      <point x="366" y="504"/>
      <point x="288" y="504" type="curve" smooth="yes"/>
      <point x="214" y="504"/>
      <point x="157" y="553"/>
      <point x="101" y="553" type="curve" smooth="yes"/>
      <point x="73" y="553"/>
      <point x="49" y="548"/>
      <point x="49" y="516" type="curve" smooth="yes"/>
      <point x="49" y="460"/>
      <point x="162" y="457"/>
      <point x="199" y="457" type="curve" smooth="yes"/>
      <point x="359" y="457"/>
      <point x="548" y="526"/>
    </contour>
  </outline>
</glyph>
<glyph name="acute" format="2">
  <advance width="528"/>
  <unicode hex="00B4"/>
  <anchor x="227" y="760" name="_above"/>
  <outline>
    <contour>
      <point x="434" y="1005" type="curve" smooth="yes"/>
      <point x="434" y="1028"/>
      <point x="419" y="1050"/>
      <point x="394" y="1050" type="curve" smooth="yes"/>
      <point x="357" y="1050"/>
      <point x="326" y="1026"/>
      <point x="301" y="1001" type="curve" smooth="yes"/>
      <point x="88" y="786" type="line"/>
      <point x="150" y="786" type="line"/>
      <point x="373" y="926" type="line" smooth="yes"/>
      <point x="406" y="947"/>
      <point x="434" y="971"/>
    </contour>
  </outline>
</glyph>
<glyph name="paragraph" format="2">
  <advance width="698"/>
  <unicode hex="00B6"/>
  <outline>
    <contour>
      <point x="702" y="981" type="line"/>
      <point x="702" y="1022" type="line"/>
      <point x="330" y="1022" type="line" smooth="yes"/>
      <point x="147" y="1022"/>
      <point x="-10" y="942"/>
      <point x="-10" y="739" type="curve" smooth="yes"/>
      <point x="-10" y="520"/>
      <point x="162" y="459"/>
      <point x="352" y="455" type="curve"/>
      <point x="352" y="-334" type="line"/>
      <point x="408" y="-334" type="line"/>
      <point x="408" y="981" type="line"/>
      <point x="547" y="981" type="line"/>
      <point x="547" y="-334" type="line"/>
      <point x="602" y="-334" type="line"/>
      <point x="602" y="981" type="line"/>
    </contour>
  </outline>
</glyph>
<glyph name="periodcentered" format="2">
  <advance width="279"/>
  <unicode hex="00B7"/>
  <outline>
    <contour>
      <point x="227" y="506" type="curve" smooth="yes"/>
      <point x="227" y="555"/>
      <point x="188" y="592"/>
      <point x="139" y="592" type="curve" smooth="yes"/>
      <point x="90" y="592"/>
      <point x="51" y="555"/>
      <point x="51" y="506" type="curve" smooth="yes"/>
      <point x="51" y="455"/>
      <point x="90" y="418"/>
      <point x="139" y="418" type="curve" smooth="yes"/>
      <point x="188" y="418"/>
      <point x="227" y="455"/>
    </contour>
  </outline>
</glyph>
<glyph name="cedilla" format="2">
  <unicode hex="00B8"/>
  <advance width="362"/>
  <anchor x="154" y="-50" name="_below"/>
  <outline>
    <contour>
      <point x="342" y="-203" type="curve" smooth="yes"/>
      <point x="342" y="-129"/>
      <point x="281" y="-96"/>
      <point x="213" y="-96" type="curve" smooth="yes"/>
      <point x="199" y="-96"/>
      <point x="184" y="-98"/>
      <point x="170" y="-100" type="curve"/>
      <point x="213" y="10" type="line"/>
      <point x="158" y="10" type="line"/>
      <point x="90" y="-154" type="line"/>
      <point x="100" y="-162" type="line"/>
      <point x="119" y="-156"/>
      <point x="137" y="-154"/>
      <point x="156" y="-154" type="curve" smooth="yes"/>
      <point x="197" y="-154"/>
      <point x="227" y="-168"/>
      <point x="227" y="-213" type="curve" smooth="yes"/>
      <point x="227" y="-266"/>
      <point x="182" y="-279"/>
      <point x="137" y="-279" type="curve" smooth="yes"/>
      <point x="104" y="-279"/>
      <point x="72" y="-272"/>
      <point x="41" y="-260" type="curve"/>
      <point x="18" y="-309" type="line"/>
      <point x="59" y="-324"/>
      <point x="102" y="-332"/>
      <point x="143" y="-332" type="curve" smooth="yes"/>
      <point x="221" y="-332"/>
      <point x="342" y="-299"/>
    </contour>
  </outline>
</glyph>
<glyph name="onesuperior" format="2">
  <advance width="543"/>
  <unicode hex="00B9"/>
  <outline>
    <contour>
      <point x="414" y="387" type="line"/>
      <point x="414" y="403" type="line"/>
      <point x="332" y="403"/>
      <point x="322" y="412"/>
      <point x="322" y="496" type="curve" smooth="yes"/>
      <point x="322" y="1014" type="line"/>
      <point x="303" y="1014" type="line"/>
      <point x="125" y="942" type="line"/>
      <point x="133" y="926" type="line"/>
      <point x="150" y="934"/>
      <point x="170" y="940"/>
      <point x="188" y="940" type="curve" smooth="yes"/>
      <point x="227" y="940"/>
      <point x="231" y="907"/>
      <point x="231" y="862" type="curve" smooth="yes"/>
      <point x="231" y="496" type="line" smooth="yes"/>
      <point x="231" y="412"/>
      <point x="219" y="403"/>
      <point x="137" y="403" type="curve"/>
      <point x="137" y="387" type="line"/>
    </contour>
  </outline>
</glyph>
<glyph name="guillemotright" format="2">
  <advance width="772"/>
  <unicode hex="00BB"/>
  <outline>
    <contour>
      <point x="725" y="348" type="line"/>
      <point x="432" y="705" type="line"/>
      <point x="391" y="705" type="line"/>
      <point x="575" y="348" type="line"/>
      <point x="391" y="-6" type="line"/>
      <point x="432" y="-6" type="line"/>
    </contour>
    <contour>
      <point x="389" y="348" type="line"/>
      <point x="92" y="705" type="line"/>
      <point x="49" y="705" type="line"/>
      <point x="233" y="348" type="line"/>
      <point x="49" y="-6" type="line"/>
      <point x="92" y="-6" type="line"/>
    </contour>
  </outline>
</glyph>
<glyph name="onequarter" format="2">
  <advance width="1188"/>
  <unicode hex="00BC"/>
  <outline>
    <contour>
      <point x="1040" y="160" type="line"/>
      <point x="1040" y="223" type="line"/>
      <point x="958" y="223" type="line"/>
      <point x="958" y="627" type="line"/>
      <point x="909" y="627" type="line"/>
      <point x="621" y="215" type="line"/>
      <point x="621" y="160" type="line"/>
      <point x="883" y="160" type="line"/>
      <point x="883" y="-6" type="line"/>
      <point x="958" y="-6" type="line"/>
      <point x="958" y="160" type="line"/>
    </contour>
    <contour>
      <point x="985" y="1040" type="line"/>
      <point x="915" y="1040" type="line"/>
      <point x="213" y="-12" type="line" name="hr01"/>
      <point x="287" y="-12" type="line"/>
    </contour>
    <contour>
      <point x="391" y="395" type="line"/>
      <point x="391" y="414" type="line"/>
      <point x="314" y="414"/>
      <point x="313" y="428"/>
      <point x="313" y="506" type="curve" smooth="yes"/>
      <point x="313" y="1028" type="line" name="hr02"/>
      <point x="297" y="1028" type="line"/>
      <point x="147" y="954" type="line"/>
      <point x="154" y="938" type="line"/>
      <point x="168" y="946"/>
      <point x="184" y="952"/>
      <point x="203" y="952" type="curve" smooth="yes"/>
      <point x="237" y="952"/>
      <point x="238" y="894"/>
      <point x="238" y="867" type="curve" smooth="yes"/>
      <point x="238" y="498" type="line" smooth="yes"/>
      <point x="238" y="426"/>
      <point x="231" y="414"/>
      <point x="158" y="414" type="curve"/>
      <point x="158" y="395" type="line"/>
    </contour>
    <contour>
      <point x="883" y="223" type="line"/>
      <point x="666" y="223" type="line"/>
      <point x="883" y="530" type="line"/>
    </contour>
  </outline>
</glyph>
<glyph name="threequarters" format="2">
  <advance width="1426"/>
  <unicode hex="00BE"/>
  <outline>
    <contour>
      <point x="1273" y="192" type="line"/>
      <point x="1273" y="268" type="line"/>
      <point x="1175" y="268" type="line"/>
      <point x="1175" y="752" type="line"/>
      <point x="1114" y="752" type="line"/>
      <point x="767" y="258" type="line"/>
      <point x="767" y="192" type="line"/>
      <point x="1084" y="192" type="line"/>
      <point x="1084" y="-7" type="line"/>
      <point x="1175" y="-7" type="line"/>
      <point x="1175" y="192" type="line"/>
    </contour>
    <contour>
      <point x="1222" y="1248" type="line"/>
      <point x="1138" y="1248" type="line"/>
      <point x="295" y="-14" type="line" name="hr01"/>
      <point x="386" y="-14" type="line"/>
    </contour>
    <contour>
      <point x="575" y="720" type="curve" smooth="yes"/>
      <point x="575" y="816"/>
      <point x="526" y="880"/>
      <point x="438" y="914" type="curve"/>
      <point x="484" y="956"/>
      <point x="539" y="1015"/>
      <point x="539" y="1081" type="curve" smooth="yes" name="hr02"/>
      <point x="539" y="1180"/>
      <point x="455" y="1234"/>
      <point x="366" y="1234" type="curve" smooth="yes"/>
      <point x="253" y="1234"/>
      <point x="209" y="1165"/>
      <point x="164" y="1074" type="curve"/>
      <point x="185" y="1067" type="line"/>
      <point x="216" y="1118"/>
      <point x="263" y="1158"/>
      <point x="326" y="1158" type="curve" smooth="yes"/>
      <point x="401" y="1158"/>
      <point x="448" y="1104"/>
      <point x="448" y="1032" type="curve" smooth="yes"/>
      <point x="448" y="934"/>
      <point x="371" y="868"/>
      <point x="277" y="858" type="curve"/>
      <point x="277" y="840" type="line"/>
      <point x="403" y="838"/>
      <point x="497" y="788"/>
      <point x="497" y="652" type="curve" smooth="yes" name="hr03"/>
      <point x="497" y="577"/>
      <point x="434" y="509"/>
      <point x="356" y="509" type="curve" smooth="yes"/>
      <point x="290" y="509"/>
      <point x="244" y="558"/>
      <point x="197" y="558" type="curve" smooth="yes"/>
      <point x="172" y="558"/>
      <point x="152" y="548"/>
      <point x="152" y="521" type="curve" smooth="yes"/>
      <point x="152" y="462"/>
      <point x="241" y="460"/>
      <point x="283" y="460" type="curve" smooth="yes"/>
      <point x="443" y="460"/>
      <point x="575" y="548"/>
    </contour>
    <contour>
      <point x="1084" y="268" type="line"/>
      <point x="821" y="268" type="line"/>
      <point x="1084" y="636" type="line"/>
    </contour>
  </outline>
</glyph>
<glyph name="questiondown" format="2">
  <advance width="823"/>
  <unicode hex="00BF"/>
  <outline>
    <contour>
      <point x="522" y="779" type="curve" smooth="yes"/>
      <point x="522" y="844"/>
      <point x="470" y="881"/>
      <point x="419" y="881" type="curve" smooth="yes"/>
      <point x="372" y="881"/>
      <point x="319" y="845"/>
      <point x="319" y="779" type="curve" smooth="yes"/>
      <point x="319" y="718"/>
      <point x="370" y="677"/>
      <point x="419" y="677" type="curve" smooth="yes"/>
      <point x="473" y="677"/>
      <point x="522" y="720"/>
    </contour>
    <contour>
      <point x="734" y="-139" type="curve" smooth="yes"/>
      <point x="734" y="-22"/>
      <point x="660" y="4"/>
      <point x="635" y="4" type="curve" smooth="yes"/>
      <point x="602" y="4"/>
      <point x="562" y="-24"/>
      <point x="562" y="-74" type="curve" smooth="yes"/>
      <point x="562" y="-115"/>
      <point x="619" y="-180"/>
      <point x="619" y="-230" type="curve" smooth="yes"/>
      <point x="619" y="-283"/>
      <point x="563" y="-349"/>
      <point x="448" y="-349" type="curve" smooth="yes"/>
      <point x="354" y="-349"/>
      <point x="236" y="-282"/>
      <point x="236" y="-100" type="curve" smooth="yes"/>
      <point x="236" y="-5"/>
      <point x="286" y="107"/>
      <point x="323" y="169" type="curve" smooth="yes"/>
      <point x="403" y="302"/>
      <point x="439" y="422"/>
      <point x="445" y="566" type="curve"/>
      <point x="407" y="566" type="line"/>
      <point x="400" y="398"/>
      <point x="338" y="330"/>
      <point x="211" y="186" type="curve" smooth="yes"/>
      <point x="155" y="122"/>
      <point x="70" y="24"/>
      <point x="70" y="-114" type="curve" smooth="yes"/>
      <point x="70" y="-293"/>
      <point x="212" y="-400"/>
      <point x="408" y="-400" type="curve" smooth="yes"/>
      <point x="619" y="-400"/>
      <point x="734" y="-275"/>
    </contour>
  </outline>
</glyph>
<glyph name="AE" format="2">
  <advance width="1649"/>
  <unicode hex="00C6"/>
  <outline>
    <contour>
      <point x="1596" y="310" type="line"/>
      <point x="1564" y="310" type="line"/>
      <point x="1480" y="138"/>
      <point x="1403" y="66"/>
      <point x="1198" y="66" type="curve" smooth="yes"/>
      <point x="1034" y="66" type="line" smooth="yes"/>
      <point x="965" y="66"/>
      <point x="947" y="88"/>
      <point x="936" y="103" type="curve" smooth="yes"/>
      <point x="929" y="114"/>
      <point x="929" y="154"/>
      <point x="929" y="202" type="curve" smooth="yes"/>
      <point x="929" y="607" type="line"/>
      <point x="1162" y="607" type="line" smooth="yes"/>
      <point x="1318" y="607"/>
      <point x="1340" y="572"/>
      <point x="1358" y="428" type="curve"/>
      <point x="1390" y="428" type="line"/>
      <point x="1390" y="852" type="line"/>
      <point x="1358" y="852" type="line"/>
      <point x="1348" y="721"/>
      <point x="1303" y="676"/>
      <point x="1162" y="676" type="curve" smooth="yes"/>
      <point x="929" y="676" type="line"/>
      <point x="929" y="1160" type="line"/>
      <point x="1230" y="1160" type="line" smooth="yes"/>
      <point x="1414" y="1160"/>
      <point x="1434" y="1127"/>
      <point x="1469" y="959" type="curve"/>
      <point x="1499" y="959" type="line"/>
      <point x="1486" y="1226" type="line"/>
      <point x="480" y="1226" type="line"/>
      <point x="480" y="1194" type="line"/>
      <point x="607" y="1187"/>
      <point x="636" y="1160"/>
      <point x="636" y="1120" type="curve" smooth="yes"/>
      <point x="636" y="1091"/>
      <point x="613" y="1031"/>
      <point x="566" y="944" type="curve" smooth="yes"/>
      <point x="192" y="248" type="line" smooth="yes"/>
      <point x="122" y="119"/>
      <point x="82" y="71"/>
      <point x="46" y="49" type="curve" smooth="yes"/>
      <point x="29" y="40"/>
      <point x="5" y="34"/>
      <point x="-22" y="34" type="curve"/>
      <point x="-22" y="0" type="line"/>
      <point x="364" y="0" type="line"/>
      <point x="364" y="34" type="line"/>
      <point x="280" y="42"/>
      <point x="221" y="58"/>
      <point x="221" y="107" type="curve" smooth="yes"/>
      <point x="221" y="139"/>
      <point x="244" y="187"/>
      <point x="286" y="264" type="curve" smooth="yes"/>
      <point x="398" y="474" type="line"/>
      <point x="756" y="474" type="line"/>
      <point x="756" y="217" type="line" smooth="yes"/>
      <point x="756" y="143"/>
      <point x="749" y="97"/>
      <point x="734" y="78" type="curve" smooth="yes"/>
      <point x="709" y="48"/>
      <point x="673" y="34"/>
      <point x="623" y="34" type="curve" smooth="yes"/>
      <point x="578" y="34" type="line"/>
      <point x="578" y="0" type="line"/>
      <point x="1499" y="0" type="line"/>
    </contour>
    <contour>
      <point x="756" y="542" type="line"/>
      <point x="432" y="542" type="line"/>
      <point x="756" y="1160" type="line"/>
    </contour>
  </outline>
</glyph>
<glyph name="multiply" format="2">
  <advance width="1098"/>
  <unicode hex="00D7"/>
  <outline>
    <contour>
      <point x="926" y="176" type="line"/>
      <point x="600" y="506" type="line"/>
      <point x="926" y="833" type="line"/>
      <point x="875" y="887" type="line"/>
      <point x="546" y="558" type="line"/>
      <point x="218" y="887" type="line"/>
      <point x="164" y="833" type="line"/>
      <point x="494" y="506" type="line"/>
      <point x="164" y="176" type="line"/>
      <point x="218" y="125" type="line"/>
      <point x="546" y="452" type="line"/>
      <point x="875" y="125" type="line"/>
    </contour>
  </outline>
</glyph>
<glyph name="Thorn" format="2">
  <advance width="859"/>
  <unicode hex="00DE"/>
  <outline>
    <contour>
      <point x="801" y="513" type="curve" smooth="yes"/>
      <point x="801" y="692"/>
      <point x="648" y="791"/>
      <point x="443" y="791" type="curve" smooth="yes"/>
      <point x="316" y="791" type="line"/>
      <point x="316" y="841" type="line" smooth="yes"/>
      <point x="316" y="941"/>
      <point x="337" y="995"/>
      <point x="432" y="995" type="curve" smooth="yes"/>
      <point x="464" y="995" type="line"/>
      <point x="464" y="1022" type="line" name="hr01"/>
      <point x="28" y="1022" type="line"/>
      <point x="28" y="995" type="line"/>
      <point x="57" y="995" type="line" smooth="yes"/>
      <point x="158" y="995"/>
      <point x="171" y="941"/>
      <point x="171" y="841" type="curve" smooth="yes"/>
      <point x="171" y="181" type="line" smooth="yes"/>
      <point x="171" y="70"/>
      <point x="156" y="28"/>
      <point x="55" y="28" type="curve" smooth="yes"/>
      <point x="28" y="28" type="line"/>
      <point x="28" y="0" type="line"/>
      <point x="464" y="0" type="line"/>
      <point x="464" y="28" type="line"/>
      <point x="432" y="28" type="line" smooth="yes"/>
      <point x="327" y="28"/>
      <point x="316" y="83"/>
      <point x="316" y="184" type="curve" smooth="yes"/>
      <point x="316" y="230" type="line" name="hr02"/>
      <point x="440" y="230" type="line" smooth="yes"/>
      <point x="650" y="230"/>
      <point x="801" y="329"/>
    </contour>
    <contour>
      <point x="625" y="511" type="curve" smooth="yes"/>
      <point x="625" y="382"/>
      <point x="551" y="282"/>
      <point x="360" y="282" type="curve" smooth="yes"/>
      <point x="316" y="282" type="line"/>
      <point x="316" y="733" type="line"/>
      <point x="392" y="733" type="line" smooth="yes"/>
      <point x="525" y="733"/>
      <point x="625" y="653"/>
    </contour>
  </outline>
</glyph>
<glyph name="germandbls" format="2">
  <advance width="773"/>
  <unicode hex="00DF"/>
  <outline>
    <contour>
      <point x="723" y="318" type="curve" smooth="yes"/>
      <point x="723" y="485"/>
      <point x="648" y="582"/>
      <point x="517" y="619" type="curve"/>
      <point x="639" y="670"/>
      <point x="661" y="750"/>
      <point x="661" y="828" type="curve" smooth="yes" name="hr01"/>
      <point x="661" y="973"/>
      <point x="556" y="1073"/>
      <point x="395" y="1073" type="curve" smooth="yes"/>
      <point x="220" y="1073"/>
      <point x="126" y="974"/>
      <point x="126" y="730" type="curve" smooth="yes"/>
      <point x="126" y="169" type="line" smooth="yes"/>
      <point x="126" y="54"/>
      <point x="105" y="30"/>
      <point x="27" y="28" type="curve"/>
      <point x="27" y="0" type="line"/>
      <point x="252" y="0" type="line"/>
      <point x="252" y="781" type="line" smooth="yes"/>
      <point x="252" y="982"/>
      <point x="310" y="1022"/>
      <point x="390" y="1022" type="curve" smooth="yes"/>
      <point x="475" y="1022"/>
      <point x="535" y="968"/>
      <point x="535" y="832" type="curve" smooth="yes"/>
      <point x="535" y="678"/>
      <point x="474" y="627"/>
      <point x="373" y="627" type="curve"/>
      <point x="373" y="584" type="line"/>
      <point x="526" y="572"/>
      <point x="594" y="442"/>
      <point x="594" y="236" type="curve" smooth="yes" name="hr02"/>
      <point x="594" y="101"/>
      <point x="548" y="33"/>
      <point x="482" y="33" type="curve" smooth="yes"/>
      <point x="457" y="33"/>
      <point x="438" y="45"/>
      <point x="438" y="68" type="curve" smooth="yes"/>
      <point x="438" y="77"/>
      <point x="447" y="105"/>
      <point x="447" y="119" type="curve" smooth="yes"/>
      <point x="447" y="155"/>
      <point x="424" y="178"/>
      <point x="384" y="178" type="curve" smooth="yes"/>
      <point x="344" y="178"/>
      <point x="324" y="152"/>
      <point x="324" y="113" type="curve" smooth="yes" name="hr03"/>
      <point x="324" y="41"/>
      <point x="386" y="-9"/>
      <point x="469" y="-9" type="curve" smooth="yes"/>
      <point x="627" y="-9"/>
      <point x="723" y="146"/>
    </contour>
  </outline>
</glyph>
<glyph name="eth" format="2">
  <unicode hex="00F0"/>
  <advance width="773"/>
  <outline>
    <contour>
      <point x="716" y="357" type="curve" smooth="yes"/>
      <point x="716" y="548"/>
      <point x="612" y="756"/>
      <point x="427" y="921" type="curve"/>
      <point x="600" y="1019" type="line"/>
      <point x="574" y="1061" type="line"/>
      <point x="386" y="957" type="line"/>
      <point x="321" y="1004"/>
      <point x="260" y="1043"/>
      <point x="199" y="1073" type="curve"/>
      <point x="180" y="1040" type="line"/>
      <point x="236" y="1000"/>
      <point x="255" y="987"/>
      <point x="321" y="921" type="curve"/>
      <point x="146" y="822" type="line"/>
      <point x="166" y="780" type="line"/>
      <point x="353" y="883" type="line"/>
      <point x="410" y="817"/>
      <point x="456" y="743"/>
      <point x="496" y="661" type="curve"/>
      <point x="437" y="704"/>
      <point x="411" y="704"/>
      <point x="369" y="704" type="curve" smooth="yes"/>
      <point x="184" y="704"/>
      <point x="51" y="526"/>
      <point x="51" y="333" type="curve" smooth="yes"/>
      <point x="51" y="131"/>
      <point x="194" y="-22"/>
      <point x="377" y="-22" type="curve" smooth="yes"/>
      <point x="591" y="-22"/>
      <point x="716" y="166"/>
    </contour>
    <contour>
      <point x="577" y="284" type="curve" smooth="yes"/>
      <point x="577" y="105"/>
      <point x="506" y="33"/>
      <point x="413" y="33" type="curve" smooth="yes"/>
      <point x="278" y="33"/>
      <point x="190" y="192"/>
      <point x="190" y="391" type="curve" smooth="yes"/>
      <point x="190" y="596"/>
      <point x="273" y="659"/>
      <point x="361" y="659" type="curve" smooth="yes"/>
      <point x="490" y="659"/>
      <point x="577" y="513"/>
    </contour>
  </outline>
</glyph>
<glyph name="divide" format="2">
  <unicode hex="00F7"/>
  <advance width="1485"/>
  <outline>
    <contour>
      <point x="831" y="684" type="curve" smooth="yes"/>
      <point x="831" y="733"/>
      <point x="793" y="774"/>
      <point x="743" y="774" type="curve" smooth="yes"/>
      <point x="692" y="774"/>
      <point x="653" y="733"/>
      <point x="653" y="684" type="curve" smooth="yes"/>
      <point x="653" y="635"/>
      <point x="692" y="596"/>
      <point x="743" y="596" type="curve" smooth="yes"/>
      <point x="793" y="596"/>
      <point x="831" y="635"/>
    </contour>
    <contour>
      <point x="1188" y="399" type="line"/>
      <point x="1188" y="492" type="line"/>
      <point x="297" y="492" type="line"/>
      <point x="297" y="399" type="line"/>
    </contour>
    <contour>
      <point x="831" y="207" type="curve" smooth="yes"/>
      <point x="831" y="256"/>
      <point x="793" y="295"/>
      <point x="743" y="295" type="curve" smooth="yes"/>
      <point x="692" y="295"/>
      <point x="653" y="256"/>
      <point x="653" y="207" type="curve" smooth="yes"/>
      <point x="653" y="158"/>
      <point x="692" y="119"/>
      <point x="743" y="119" type="curve" smooth="yes"/>
      <point x="793" y="119"/>
      <point x="831" y="158"/>
    </contour>
  </outline>
</glyph>
<glyph name="oslash" format="2">
  <advance width="928"/>
  <unicode hex="00F8"/>
  <outline>
    <contour>
      <point x="892" y="847" type="line"/>
      <point x="851" y="886" type="line"/>
      <point x="731" y="752" type="line"/>
      <point x="640" y="829"/>
      <point x="569" y="852"/>
      <point x="470" y="852" type="curve" smooth="yes"/>
      <point x="212" y="852"/>
      <point x="66" y="613"/>
      <point x="66" y="412" type="curve" smooth="yes"/>
      <point x="66" y="316"/>
      <point x="106" y="192"/>
      <point x="163" y="122" type="curve"/>
      <point x="36" y="-22" type="line"/>
      <point x="78" y="-61" type="line"/>
      <point x="199" y="78" type="line"/>
      <point x="293" y="0"/>
      <point x="362" y="-26"/>
      <point x="458" y="-26" type="curve" smooth="yes"/>
      <point x="733" y="-26"/>
      <point x="866" y="224"/>
      <point x="866" y="428" type="curve" smooth="yes"/>
      <point x="866" y="534"/>
      <point x="832" y="629"/>
      <point x="770" y="709" type="curve"/>
    </contour>
    <contour>
      <point x="271" y="245" type="line"/>
      <point x="246" y="328"/>
      <point x="235" y="408"/>
      <point x="235" y="481" type="curve" smooth="yes"/>
      <point x="235" y="708"/>
      <point x="323" y="793"/>
      <point x="443" y="793" type="curve" smooth="yes"/>
      <point x="518" y="793"/>
      <point x="572" y="761"/>
      <point x="638" y="652" type="curve"/>
    </contour>
    <contour>
      <point x="698" y="364" type="curve" smooth="yes"/>
      <point x="698" y="119"/>
      <point x="611" y="40"/>
      <point x="496" y="40" type="curve" smooth="yes"/>
      <point x="408" y="40"/>
      <point x="360" y="74"/>
      <point x="296" y="186" type="curve"/>
      <point x="664" y="592" type="line"/>
      <point x="686" y="512"/>
      <point x="698" y="436"/>
    </contour>
  </outline>
</glyph>
<glyph name="idotless" format="2">
  <advance width="430"/>
  <unicode hex="0131"/>
  <anchor x="221" y="760" name="above"/>
  <outline>
    <contour>
      <point x="395" y="0" type="line"/>
      <point x="395" y="29" type="line"/>
      <point x="305" y="29"/>
      <point x="289" y="53"/>
      <point x="289" y="141" type="curve" smooth="yes"/>
      <point x="289" y="711" type="line"/>
      <point x="256" y="711" type="line"/>
      <point x="47" y="627" type="line"/>
      <point x="57" y="600" type="line"/>
      <point x="75" y="606"/>
      <point x="95" y="612"/>
      <point x="111" y="612" type="curve" smooth="yes"/>
      <point x="157" y="612"/>
      <point x="164" y="565"/>
      <point x="164" y="520" type="curve" smooth="yes"/>
      <point x="164" y="141" type="line" smooth="yes"/>
      <point x="164" y="53"/>
      <point x="147" y="29"/>
      <point x="57" y="29" type="curve"/>
      <point x="57" y="0" type="line"/>
    </contour>
  </outline>
</glyph>
<glyph name="oe" format="2">
  <advance width="1114"/>
  <unicode hex="0153"/>
  <outline>
    <contour>
      <point x="1040" y="268" type="line"/>
      <point x="1010" y="182"/>
      <point x="956" y="104"/>
      <point x="858" y="104" type="curve" smooth="yes"/>
      <point x="702" y="104"/>
      <point x="651" y="270"/>
      <point x="651" y="399" type="curve" smooth="yes"/>
      <point x="651" y="432" type="line"/>
      <point x="1065" y="432" type="line"/>
      <point x="1065" y="452" type="line" smooth="yes"/>
      <point x="1065" y="605"/>
      <point x="981" y="711"/>
      <point x="817" y="711" type="curve" smooth="yes"/>
      <point x="725" y="711"/>
      <point x="655" y="668"/>
      <point x="606" y="592" type="curve"/>
      <point x="549" y="672"/>
      <point x="467" y="711"/>
      <point x="371" y="711" type="curve" smooth="yes"/>
      <point x="158" y="711"/>
      <point x="51" y="528"/>
      <point x="51" y="334" type="curve" smooth="yes"/>
      <point x="51" y="145"/>
      <point x="160" y="-23"/>
      <point x="365" y="-23" type="curve" smooth="yes"/>
      <point x="463" y="-23"/>
      <point x="547" y="23"/>
      <point x="606" y="100" type="curve"/>
      <point x="643" y="23"/>
      <point x="721" y="-23"/>
      <point x="807" y="-23" type="curve" smooth="yes"/>
      <point x="969" y="-23"/>
      <point x="1038" y="117"/>
      <point x="1065" y="256" type="curve"/>
    </contour>
    <contour>
      <point x="651" y="481" type="line"/>
      <point x="653" y="557"/>
      <point x="690" y="662"/>
      <point x="782" y="662" type="curve" smooth="yes"/>
      <point x="883" y="662"/>
      <point x="915" y="567"/>
      <point x="915" y="481" type="curve"/>
    </contour>
    <contour>
      <point x="539" y="285" type="curve" smooth="yes"/>
      <point x="539" y="180"/>
      <point x="520" y="33"/>
      <point x="385" y="33" type="curve" smooth="yes" name="hr01"/>
      <point x="225" y="33"/>
      <point x="193" y="291"/>
      <point x="193" y="408" type="curve" smooth="yes"/>
      <point x="193" y="508"/>
      <point x="207" y="668"/>
      <point x="342" y="668" type="curve" smooth="yes"/>
      <point x="518" y="668"/>
      <point x="539" y="414"/>
    </contour>
  </outline>
</glyph>
<glyph name="florin" format="2">
  <advance width="772"/>
  <unicode hex="0192"/>
  <outline>
    <contour>
      <point x="754" y="963" type="curve" smooth="yes"/>
      <point x="754" y="1018"/>
      <point x="700" y="1044"/>
      <point x="651" y="1044" type="curve" smooth="yes"/>
      <point x="455" y="1044"/>
      <point x="449" y="739"/>
      <point x="381" y="684" type="curve" smooth="yes"/>
      <point x="358" y="666"/>
      <point x="293" y="662"/>
      <point x="264" y="659" type="curve"/>
      <point x="254" y="610" type="line"/>
      <point x="385" y="610" type="line"/>
      <point x="352" y="481"/>
      <point x="319" y="352"/>
      <point x="293" y="221" type="curve" smooth="yes"/>
      <point x="272" y="117"/>
      <point x="254" y="10"/>
      <point x="228" y="-92" type="curve" smooth="yes"/>
      <point x="215" y="-143"/>
      <point x="180" y="-279"/>
      <point x="111" y="-279" type="curve" smooth="yes"/>
      <point x="100" y="-279"/>
      <point x="90" y="-276"/>
      <point x="90" y="-264" type="curve" smooth="yes"/>
      <point x="90" y="-254"/>
      <point x="109" y="-240"/>
      <point x="109" y="-221" type="curve" smooth="yes"/>
      <point x="109" y="-197"/>
      <point x="82" y="-180"/>
      <point x="59" y="-180" type="curve" smooth="yes"/>
      <point x="18" y="-180"/>
      <point x="2" y="-207"/>
      <point x="2" y="-246" type="curve" smooth="yes"/>
      <point x="2" y="-297"/>
      <point x="45" y="-324"/>
      <point x="92" y="-324" type="curve" smooth="yes"/>
      <point x="266" y="-324"/>
      <point x="342" y="-55"/>
      <point x="378" y="76" type="curve" smooth="yes"/>
      <point x="426" y="252"/>
      <point x="477" y="430"/>
      <point x="508" y="610" type="curve"/>
      <point x="639" y="610" type="line"/>
      <point x="651" y="659" type="line"/>
      <point x="518" y="659" type="line"/>
      <point x="528" y="725"/>
      <point x="547" y="1012"/>
      <point x="645" y="1012" type="curve" smooth="yes"/>
      <point x="659" y="1012"/>
      <point x="672" y="1008"/>
      <point x="672" y="991" type="curve" smooth="yes"/>
      <point x="672" y="983"/>
      <point x="655" y="961"/>
      <point x="655" y="944" type="curve" smooth="yes"/>
      <point x="655" y="915"/>
      <point x="674" y="903"/>
      <point x="702" y="903" type="curve" smooth="yes"/>
      <point x="739" y="903"/>
      <point x="754" y="928"/>
    </contour>
  </outline>
</glyph>
<glyph name="circumflex" format="2">
  <advance width="483"/>
  <unicode hex="02C6"/>
  <anchor x="242" y="770" name="_above"/>
  <outline>
    <contour>
      <point x="483" y="786" type="line"/>
      <point x="291" y="1044" type="line"/>
      <point x="195" y="1044" type="line"/>
      <point x="0" y="786" type="line"/>
      <point x="53" y="786" type="line"/>
      <point x="242" y="946" type="line"/>
      <point x="430" y="786" type="line"/>
    </contour>
  </outline>
</glyph>
<glyph name="caron" format="2">
  <unicode hex="02C7"/>
  <advance width="485"/>
  <anchor x="242" y="760" name="_above"/>
  <outline>
    <contour>
      <point x="485" y="1045" type="line"/>
      <point x="431" y="1045" type="line"/>
      <point x="242" y="886" type="line"/>
      <point x="54" y="1045" type="line"/>
      <point x="0" y="1045" type="line"/>
      <point x="194" y="786" type="line"/>
      <point x="291" y="786" type="line"/>
    </contour>
  </outline>
</glyph>
<glyph name="colontriangularmod" format="2">
  <advance width="510"/>
  <unicode hex="02D0"/>
  <outline>
    <contour>
      <point x="360" y="691" type="line"/>
      <point x="150" y="691" type="line"/>
      <point x="220" y="455" type="line"/>
      <point x="291" y="455" type="line"/>
    </contour>
    <contour>
      <point x="360" y="0" type="line"/>
      <point x="291" y="236" type="line"/>
      <point x="220" y="236" type="line"/>
      <point x="150" y="0" type="line"/>
    </contour>
  </outline>
</glyph>
<glyph name="breve" format="2">
  <advance width="616"/>
  <unicode hex="02D8"/>
  <outline>
    <contour>
      <point x="526" y="1035" type="qcurve"/>
      <point x="480" y="1035" type="line"/>
      <point x="446" y="885"/>
      <point x="313" y="885" type="qcurve" smooth="yes"/>
      <point x="256" y="885"/>
      <point x="149" y="974"/>
      <point x="136" y="1035" type="qcurve"/>
      <point x="90" y="1035" type="line"/>
      <point x="87" y="931"/>
      <point x="203" y="792"/>
      <point x="305" y="792" type="qcurve" smooth="yes"/>
      <point x="409" y="792"/>
      <point x="467" y="863" type="qcurve" smooth="yes"/>
      <point x="519" y="927"/>
    </contour>
  </outline>
</glyph>
<glyph name="ring" format="2">
  <advance width="288"/>
  <unicode hex="02DA"/>
  <anchor x="144" y="760" name="_above"/>
  <outline>
    <contour>
      <point x="288" y="930" type="curve" smooth="yes"/>
      <point x="288" y="1019"/>
      <point x="217" y="1074"/>
      <point x="146" y="1074" type="curve" smooth="yes"/>
      <point x="68" y="1074"/>
      <point x="0" y="1016"/>
      <point x="0" y="930" type="curve" smooth="yes"/>
      <point x="0" y="844"/>
      <point x="74" y="786"/>
      <point x="146" y="786" type="curve" smooth="yes"/>
      <point x="217" y="786"/>
      <point x="288" y="844"/>
    </contour>
    <contour>
      <point x="236" y="930" type="curve" smooth="yes"/>
      <point x="236" y="881"/>
      <point x="196" y="838"/>
      <point x="146" y="838" type="curve" smooth="yes"/>
      <point x="98" y="838"/>
      <point x="52" y="872"/>
      <point x="52" y="930" type="curve" smooth="yes" name="hr01"/>
      <point x="52" y="985"/>
      <point x="95" y="1022"/>
      <point x="146" y="1022" type="curve" smooth="yes"/>
      <point x="192" y="1022"/>
      <point x="236" y="985"/>
    </contour>
  </outline>
</glyph>
<glyph name="ogonek" format="2">
  <advance width="361"/>
  <unicode hex="02DB"/>
  <anchor x="132" y="887" name="above"/>
  <outline>
    <contour>
      <point x="343" y="-166" type="qcurve"/>
      <point x="313" y="-128" type="line"/>
      <point x="246" y="-194"/>
      <point x="181" y="-194" type="qcurve" smooth="yes"/>
      <point x="150" y="-194"/>
      <point x="106" y="-150"/>
      <point x="106" y="-120" type="qcurve" smooth="yes"/>
      <point x="106" y="-62"/>
      <point x="179" y="-5" type="qcurve"/>
      <point x="111" y="-5" type="line"/>
      <point x="20" y="-60"/>
      <point x="20" y="-150" type="qcurve" smooth="yes"/>
      <point x="20" y="-201"/>
      <point x="87" y="-268"/>
      <point x="136" y="-268" type="qcurve" smooth="yes"/>
      <point x="229" y="-268"/>
    </contour>
  </outline>
</glyph>
<glyph name="tilde" format="2">
  <advance width="514"/>
  <unicode hex="02DC"/>
  <anchor x="257" y="760" name="_above"/>
  <outline>
    <contour>
      <point x="474" y="1013" type="line"/>
      <point x="462" y="964"/>
      <point x="416" y="937"/>
      <point x="367" y="937" type="curve" smooth="yes"/>
      <point x="288" y="937"/>
      <point x="250" y="1005"/>
      <point x="171" y="1005" type="curve" smooth="yes" name="hr01"/>
      <point x="74" y="1005"/>
      <point x="21" y="937"/>
      <point x="0" y="848" type="curve" name="hr02"/>
      <point x="40" y="848" type="line"/>
      <point x="44" y="883"/>
      <point x="86" y="920"/>
      <point x="128" y="920" type="curve" smooth="yes" name="hr03"/>
      <point x="227" y="920"/>
      <point x="238" y="848"/>
      <point x="350" y="848" type="curve" smooth="yes" name="hr04"/>
      <point x="437" y="848"/>
      <point x="505" y="930"/>
      <point x="514" y="1013" type="curve"/>
    </contour>
  </outline>
</glyph>
<glyph name="Delta" format="2">
  <advance width="974"/>
  <unicode hex="0394"/>
  <outline>
    <contour>
      <point x="954" y="0" type="line"/>
      <point x="516" y="1066" type="line"/>
      <point x="20" y="0" type="line"/>
    </contour>
    <contour>
      <point x="752" y="83" type="line"/>
      <point x="131" y="83" type="line"/>
      <point x="461" y="787" type="line"/>
    </contour>
  </outline>
</glyph>
<glyph name="pi" format="2">
  <advance width="1157"/>
  <unicode hex="03C0"/>
  <outline>
    <contour>
      <point x="1073" y="269" type="curve"/>
      <point x="1031" y="269" type="line"/>
      <point x="1031" y="198"/>
      <point x="1019" y="143"/>
      <point x="994" y="101" type="curve" smooth="yes"/>
      <point x="972" y="65"/>
      <point x="946" y="47"/>
      <point x="913" y="48" type="curve" smooth="yes"/>
      <point x="877" y="49"/>
      <point x="853" y="66"/>
      <point x="841" y="100" type="curve" smooth="yes"/>
      <point x="833" y="125"/>
      <point x="829" y="170"/>
      <point x="829" y="239" type="curve" smooth="yes"/>
      <point x="829" y="737" type="line"/>
      <point x="938" y="737" type="line" smooth="yes"/>
      <point x="1028" y="737"/>
      <point x="1073" y="790"/>
      <point x="1073" y="896" type="curve"/>
      <point x="1038" y="896" type="line"/>
      <point x="1030" y="866"/>
      <point x="1001" y="851"/>
      <point x="952" y="851" type="curve" smooth="yes"/>
      <point x="300" y="851" type="line" smooth="yes"/>
      <point x="232" y="851"/>
      <point x="179" y="824"/>
      <point x="142" y="772" type="curve" smooth="yes"/>
      <point x="112" y="730"/>
      <point x="96" y="684"/>
      <point x="95" y="635" type="curve"/>
      <point x="128" y="635" type="line"/>
      <point x="152" y="703"/>
      <point x="204" y="737"/>
      <point x="282" y="737" type="curve" smooth="yes"/>
      <point x="356" y="737" type="line"/>
      <point x="356" y="512" type="line" smooth="yes"/>
      <point x="356" y="350"/>
      <point x="336" y="236"/>
      <point x="296" y="173" type="curve" smooth="yes"/>
      <point x="269" y="130"/>
      <point x="235" y="108"/>
      <point x="194" y="108" type="curve" smooth="yes"/>
      <point x="155" y="108"/>
      <point x="118" y="160"/>
      <point x="118" y="226" type="curve"/>
      <point x="84" y="226" type="line"/>
      <point x="84" y="59"/>
      <point x="127" y="-24"/>
      <point x="212" y="-24" type="curve" smooth="yes"/>
      <point x="344" y="-24"/>
      <point x="410" y="85"/>
      <point x="410" y="305" type="curve" smooth="yes"/>
      <point x="410" y="737" type="line"/>
      <point x="678" y="737" type="line"/>
      <point x="678" y="208" type="line" smooth="yes"/>
      <point x="678" y="53"/>
      <point x="743" y="-24"/>
      <point x="872" y="-24" type="curve" smooth="yes"/>
      <point x="930" y="-24"/>
      <point x="977" y="0"/>
      <point x="1014" y="49" type="curve" smooth="yes"/>
      <point x="1054" y="102"/>
      <point x="1074" y="175"/>
    </contour>
  </outline>
</glyph>
<glyph name="absNumberSign" format="2">
  <advance width="916"/>
  <unicode hex="0600"/>
  <anchor x="115" y="0" name="digit"/>
  <outline>
    <contour>
      <point x="865" y="97" type="curve" smooth="yes"/>
      <point x="865" y="120"/>
      <point x="861" y="128"/>
      <point x="852" y="128" type="curve" smooth="yes"/>
      <point x="842" y="128"/>
      <point x="753" y="100"/>
      <point x="745" y="100" type="curve" smooth="yes"/>
      <point x="728" y="100"/>
      <point x="724" y="110"/>
      <point x="724" y="145" type="curve" smooth="yes"/>
      <point x="724" y="190"/>
      <point x="733" y="264"/>
      <point x="785" y="384" type="curve"/>
      <point x="761" y="430" type="line"/>
      <point x="707" y="379"/>
      <point x="615" y="253"/>
      <point x="615" y="127" type="curve" smooth="yes"/>
      <point x="615" y="78"/>
      <point x="612" y="64"/>
      <point x="556" y="64" type="curve" smooth="yes"/>
      <point x="373" y="64"/>
      <point x="158" y="59"/>
      <point x="89" y="48" type="curve" smooth="yes"/>
      <point x="64" y="44"/>
      <point x="51" y="31"/>
      <point x="51" y="10" type="curve" smooth="yes"/>
      <point x="51" y="-41"/>
      <point x="75" y="-51"/>
      <point x="395" y="-51" type="curve" smooth="yes"/>
      <point x="560" y="-51"/>
      <point x="660" y="-48"/>
      <point x="749" y="-34" type="curve" smooth="yes"/>
      <point x="789" y="-28"/>
      <point x="811" y="-24"/>
      <point x="823" y="-16" type="curve" smooth="yes"/>
      <point x="841" y="-5"/>
      <point x="865" y="36"/>
    </contour>
  </outline>
</glyph>
<glyph name="absYearSign" format="2">
  <advance width="1180"/>
  <unicode hex="0601"/>
  <anchor x="506" y="0" name="digit"/>
  <outline>
    <contour>
      <point x="1150" y="115" type="curve" smooth="yes"/>
      <point x="1150" y="131"/>
      <point x="1141" y="137"/>
      <point x="1126" y="137" type="curve" smooth="yes"/>
      <point x="1108" y="137"/>
      <point x="1100" y="124"/>
      <point x="1031" y="86" type="curve" smooth="yes"/>
      <point x="938" y="35"/>
      <point x="840" y="21"/>
      <point x="688" y="21" type="curve" smooth="yes"/>
      <point x="545" y="21"/>
      <point x="405" y="73"/>
      <point x="367" y="73" type="curve" smooth="yes"/>
      <point x="341" y="73"/>
      <point x="332" y="49"/>
      <point x="312" y="-1" type="curve" smooth="yes"/>
      <point x="297" y="-38"/>
      <point x="274" y="-51"/>
      <point x="242" y="-51" type="curve" smooth="yes"/>
      <point x="226" y="-51"/>
      <point x="195" y="-47"/>
      <point x="150" y="-47" type="curve" smooth="yes"/>
      <point x="120" y="-47"/>
      <point x="78" y="-111"/>
      <point x="30" y="-192" type="curve"/>
      <point x="36" y="-209"/>
      <point x="42" y="-217"/>
      <point x="49" y="-219" type="curve"/>
      <point x="86" y="-184"/>
      <point x="122" y="-152"/>
      <point x="154" y="-152" type="curve" smooth="yes"/>
      <point x="164" y="-152"/>
      <point x="207" y="-160"/>
      <point x="227" y="-160" type="curve" smooth="yes"/>
      <point x="277" y="-160"/>
      <point x="321" y="-124"/>
      <point x="354" y="-46" type="curve"/>
      <point x="430" y="-70"/>
      <point x="588" y="-88"/>
      <point x="660" y="-88" type="curve" smooth="yes"/>
      <point x="860" y="-88"/>
      <point x="990" y="-35"/>
      <point x="1114" y="63" type="curve" smooth="yes"/>
      <point x="1132" y="77"/>
      <point x="1150" y="103"/>
    </contour>
  </outline>
</glyph>
<glyph name="absFootnoteSign" format="2">
  <advance width="1089"/>
  <unicode hex="0602"/>
  <anchor x="506" y="0" name="digitR"/>
  <outline>
    <contour>
      <point x="383" y="155" type="curve" smooth="yes"/>
      <point x="383" y="132"/>
      <point x="372" y="110"/>
      <point x="349" y="89" type="curve"/>
      <point x="250" y="110"/>
      <point x="201" y="140"/>
      <point x="201" y="179" type="curve" smooth="yes"/>
      <point x="201" y="222"/>
      <point x="242" y="259"/>
      <point x="293" y="259" type="curve" smooth="yes"/>
      <point x="318" y="259"/>
      <point x="340" y="248"/>
      <point x="359" y="225" type="curve" smooth="yes"/>
      <point x="375" y="204"/>
      <point x="383" y="180"/>
    </contour>
    <contour>
      <point x="1029" y="81" type="curve"/>
      <point x="931" y="50"/>
      <point x="825" y="37"/>
      <point x="718" y="37" type="curve" smooth="yes"/>
      <point x="626" y="37"/>
      <point x="533" y="47"/>
      <point x="443" y="65" type="curve"/>
      <point x="468" y="108"/>
      <point x="481" y="153"/>
      <point x="481" y="201" type="curve" smooth="yes"/>
      <point x="481" y="246"/>
      <point x="467" y="284"/>
      <point x="438" y="314" type="curve" smooth="yes"/>
      <point x="407" y="348"/>
      <point x="366" y="365"/>
      <point x="317" y="365" type="curve" smooth="yes"/>
      <point x="252" y="365"/>
      <point x="191" y="335"/>
      <point x="134" y="276" type="curve" smooth="yes"/>
      <point x="84" y="223"/>
      <point x="59" y="175"/>
      <point x="59" y="135" type="curve" smooth="yes"/>
      <point x="59" y="18"/>
      <point x="291" y="-47"/>
      <point x="619" y="-47" type="curve" smooth="yes"/>
      <point x="763" y="-47"/>
      <point x="913" y="-30"/>
      <point x="1011" y="5" type="curve"/>
      <point x="1026" y="28"/>
      <point x="1029" y="55"/>
    </contour>
  </outline>
</glyph>
<glyph name="pagenumber-ar" format="2">
  <advance width="1300"/>
  <unicode hex="0603"/>
  <anchor x="115" y="0" name="digitR"/>
  <outline>
    <contour>
      <point x="1243" y="353" type="curve" smooth="yes"/>
      <point x="1243" y="415"/>
      <point x="1225" y="495"/>
      <point x="1127" y="495" type="curve" smooth="yes"/>
      <point x="1023" y="495"/>
      <point x="865" y="331"/>
      <point x="791" y="171" type="curve"/>
      <point x="777" y="169"/>
      <point x="764" y="168"/>
      <point x="754" y="168" type="curve" smooth="yes"/>
      <point x="701" y="168"/>
      <point x="695" y="195"/>
      <point x="675" y="225" type="curve"/>
      <point x="665" y="225"/>
      <point x="659" y="183"/>
      <point x="635" y="155" type="curve" smooth="yes"/>
      <point x="538" y="42"/>
      <point x="200" y="24"/>
      <point x="137" y="24" type="curve" smooth="yes"/>
      <point x="115" y="24"/>
      <point x="68" y="26"/>
      <point x="58" y="27" type="curve"/>
      <point x="54" y="27"/>
      <point x="51" y="25"/>
      <point x="51" y="22" type="curve" smooth="yes"/>
      <point x="51" y="-5"/>
      <point x="217" y="-34"/>
      <point x="304" y="-34" type="curve" smooth="yes"/>
      <point x="392" y="-34"/>
      <point x="626" y="-13"/>
      <point x="685" y="69" type="curve"/>
      <point x="699" y="63"/>
      <point x="735" y="57"/>
      <point x="751" y="57" type="curve"/>
      <point x="741" y="27"/>
      <point x="733" y="21"/>
      <point x="733" y="9" type="curve" smooth="yes"/>
      <point x="733" y="-7"/>
      <point x="751" y="-35"/>
      <point x="759" y="-35" type="curve"/>
      <point x="761" y="-25"/>
      <point x="777" y="25"/>
      <point x="795" y="59" type="curve"/>
      <point x="933" y="69"/>
      <point x="1243" y="103"/>
    </contour>
    <contour>
      <point x="1169" y="293" type="curve" smooth="yes"/>
      <point x="1169" y="251"/>
      <point x="1051" y="171"/>
      <point x="833" y="171" type="curve"/>
      <point x="905" y="303"/>
      <point x="987" y="353"/>
      <point x="1057" y="353" type="curve" smooth="yes"/>
      <point x="1129" y="353"/>
      <point x="1169" y="323"/>
    </contour>
  </outline>
</glyph>
<glyph name="absSamvatSign" format="2">
  <unicode hex="0604"/>
  <advance width="1670"/>
  <anchor x="285" y="0" name="digit"/>
  <outline>
    <contour>
      <point x="1610" y="537" type="curve" smooth="yes"/>
      <point x="1610" y="564"/>
      <point x="1581" y="632"/>
      <point x="1561" y="632" type="curve" smooth="yes"/>
      <point x="1552" y="632"/>
      <point x="1523" y="527"/>
      <point x="1523" y="518" type="curve" smooth="yes"/>
      <point x="1523" y="514"/>
      <point x="1565" y="490"/>
      <point x="1565" y="472" type="curve" smooth="yes"/>
      <point x="1565" y="463"/>
      <point x="1540" y="449"/>
      <point x="1534" y="449" type="curve" smooth="yes"/>
      <point x="1500" y="449"/>
      <point x="1415" y="470"/>
      <point x="1403" y="550" type="curve" smooth="yes"/>
      <point x="1401" y="566"/>
      <point x="1393" y="573"/>
      <point x="1391" y="573" type="curve"/>
      <point x="1385" y="573"/>
      <point x="1380" y="564"/>
      <point x="1378" y="554" type="curve" smooth="yes"/>
      <point x="1358" y="458"/>
      <point x="1299" y="369"/>
      <point x="1221" y="369" type="curve" smooth="yes"/>
      <point x="1139" y="369"/>
      <point x="1082" y="473"/>
      <point x="1011" y="473" type="curve" smooth="yes"/>
      <point x="954" y="473"/>
      <point x="911" y="389"/>
      <point x="895" y="339" type="curve" smooth="yes"/>
      <point x="882" y="296"/>
      <point x="874" y="252"/>
      <point x="874" y="206" type="curve" smooth="yes"/>
      <point x="874" y="172"/>
      <point x="880" y="139"/>
      <point x="890" y="108" type="curve"/>
      <point x="835" y="17"/>
      <point x="713" y="8"/>
      <point x="437" y="8" type="curve" smooth="yes"/>
      <point x="253" y="8"/>
      <point x="101" y="38"/>
      <point x="58" y="48" type="curve" smooth="yes"/>
      <point x="54" y="49"/>
      <point x="50" y="32"/>
      <point x="50" y="23" type="curve" smooth="yes"/>
      <point x="50" y="0"/>
      <point x="287" y="-97"/>
      <point x="646" y="-97" type="curve" smooth="yes"/>
      <point x="782" y="-97"/>
      <point x="910" y="-66"/>
      <point x="956" y="-5" type="curve"/>
      <point x="992" y="-46"/>
      <point x="1039" y="-76"/>
      <point x="1091" y="-90" type="curve"/>
      <point x="1114" y="-90"/>
      <point x="1128" y="2"/>
      <point x="1128" y="22" type="curve" smooth="yes"/>
      <point x="1128" y="29"/>
      <point x="1123" y="34"/>
      <point x="1117" y="36" type="curve" smooth="yes"/>
      <point x="985" y="82"/>
      <point x="933" y="157"/>
      <point x="932" y="264" type="curve"/>
      <point x="932" y="316"/>
      <point x="959" y="346"/>
      <point x="980" y="346" type="curve" smooth="yes"/>
      <point x="1035" y="346"/>
      <point x="1081" y="249"/>
      <point x="1191" y="249" type="curve" smooth="yes"/>
      <point x="1267" y="249"/>
      <point x="1329" y="317"/>
      <point x="1366" y="403" type="curve"/>
      <point x="1386" y="380"/>
      <point x="1419" y="324"/>
      <point x="1488" y="324" type="curve" smooth="yes"/>
      <point x="1573" y="324"/>
      <point x="1610" y="461"/>
    </contour>
  </outline>
</glyph>
<glyph name="absNumberSignAbove" format="2">
  <advance width="715"/>
  <unicode hex="0605"/>
  <anchor x="110" y="0" name="digit"/>
  <outline>
    <contour>
      <point x="655" y="1034" type="curve" smooth="yes"/>
      <point x="655" y="1044"/>
      <point x="651" y="1053"/>
      <point x="644" y="1053" type="curve" smooth="yes"/>
      <point x="624" y="1053"/>
      <point x="603" y="990"/>
      <point x="442" y="990" type="curve" smooth="yes"/>
      <point x="304" y="990"/>
      <point x="239" y="1085"/>
      <point x="210" y="1085" type="curve" smooth="yes"/>
      <point x="170" y="1085"/>
      <point x="185" y="991"/>
      <point x="138" y="991" type="curve" smooth="yes"/>
      <point x="130" y="991"/>
      <point x="114" y="995"/>
      <point x="91" y="995" type="curve" smooth="yes"/>
      <point x="75" y="995"/>
      <point x="53" y="954"/>
      <point x="30" y="883" type="curve"/>
      <point x="32" y="869"/>
      <point x="35" y="861"/>
      <point x="39" y="858" type="curve"/>
      <point x="47" y="874"/>
      <point x="79" y="911"/>
      <point x="93" y="911" type="curve" smooth="yes"/>
      <point x="98" y="911"/>
      <point x="120" y="904"/>
      <point x="131" y="904" type="curve" smooth="yes"/>
      <point x="179" y="904"/>
      <point x="186" y="975"/>
      <point x="196" y="975" type="curve" smooth="yes"/>
      <point x="207" y="975"/>
      <point x="286" y="900"/>
      <point x="412" y="900" type="curve" smooth="yes"/>
      <point x="558" y="900"/>
      <point x="655" y="1009"/>
    </contour>
  </outline>
</glyph>
<glyph name="absRay" format="2">
  <advance width="929"/>
  <unicode hex="0608"/>
  <outline>
    <contour>
      <point x="712" y="119" type="curve"/>
      <point x="705" y="118"/>
      <point x="696" y="117"/>
      <point x="688" y="117" type="curve" smooth="yes"/>
      <point x="644" y="117"/>
      <point x="598" y="131"/>
      <point x="598" y="156" type="curve" smooth="yes"/>
      <point x="598" y="174"/>
      <point x="614" y="195"/>
      <point x="635" y="195" type="curve" smooth="yes"/>
      <point x="657" y="195"/>
      <point x="702" y="156"/>
    </contour>
    <contour>
      <point x="911" y="144" type="curve"/>
      <point x="875" y="194" type="line"/>
      <point x="867" y="177"/>
      <point x="858" y="163"/>
      <point x="844" y="151" type="curve" smooth="yes"/>
      <point x="832" y="140"/>
      <point x="819" y="134"/>
      <point x="802" y="130" type="curve"/>
      <point x="791" y="200"/>
      <point x="743" y="311"/>
      <point x="682" y="311" type="curve" smooth="yes"/>
      <point x="608" y="311"/>
      <point x="532" y="147"/>
      <point x="532" y="86" type="curve" smooth="yes"/>
      <point x="532" y="14"/>
      <point x="608" y="-5"/>
      <point x="674" y="-5" type="curve" smooth="yes"/>
      <point x="699" y="-5"/>
      <point x="728" y="-1"/>
      <point x="743" y="3" type="curve"/>
      <point x="743" y="-35"/>
      <point x="739" y="-94"/>
      <point x="704" y="-133" type="curve" smooth="yes"/>
      <point x="631" y="-215"/>
      <point x="541" y="-262"/>
      <point x="422" y="-262" type="curve" smooth="yes"/>
      <point x="299" y="-262"/>
      <point x="168" y="-211"/>
      <point x="168" y="-84" type="curve" smooth="yes"/>
      <point x="168" y="20"/>
      <point x="252" y="123"/>
      <point x="252" y="131" type="curve" smooth="yes"/>
      <point x="252" y="139"/>
      <point x="243" y="150"/>
      <point x="235" y="150" type="curve"/>
      <point x="165" y="86"/>
      <point x="93" y="42"/>
      <point x="15" y="26" type="curve" smooth="yes"/>
      <point x="7" y="24"/>
      <point x="1" y="18"/>
      <point x="1" y="11" type="curve" smooth="yes"/>
      <point x="1" y="7"/>
      <point x="4" y="3"/>
      <point x="12" y="3" type="curve"/>
      <point x="75" y="4"/>
      <point x="127" y="20"/>
      <point x="172" y="48" type="curve"/>
      <point x="134" y="-17"/>
      <point x="115" y="-65"/>
      <point x="115" y="-155" type="curve" smooth="yes"/>
      <point x="115" y="-310"/>
      <point x="240" y="-397"/>
      <point x="356" y="-397" type="curve" smooth="yes"/>
      <point x="565" y="-397"/>
      <point x="669" y="-286"/>
      <point x="745" y="-156" type="curve" smooth="yes"/>
      <point x="771" y="-112"/>
      <point x="792" y="-32"/>
      <point x="798" y="15" type="curve"/>
      <point x="814" y="21"/>
      <point x="842" y="34"/>
      <point x="862" y="54" type="curve" smooth="yes"/>
      <point x="880" y="72"/>
      <point x="900" y="106"/>
    </contour>
  </outline>
</glyph>
<glyph name="ray-ar" format="2">
  <advance width="1347"/>
  <unicode hex="0608"/>
  <outline>
    <contour>
      <point x="1032" y="173" type="curve"/>
      <point x="1022" y="171"/>
      <point x="1009" y="170"/>
      <point x="998" y="170" type="curve" smooth="yes"/>
      <point x="934" y="170"/>
      <point x="867" y="190"/>
      <point x="867" y="226" type="curve" smooth="yes"/>
      <point x="867" y="252"/>
      <point x="890" y="283"/>
      <point x="921" y="283" type="curve" smooth="yes"/>
      <point x="953" y="283"/>
      <point x="1018" y="226"/>
    </contour>
    <contour>
      <point x="1321" y="209" type="curve"/>
      <point x="1269" y="281" type="line"/>
      <point x="1257" y="257"/>
      <point x="1244" y="236"/>
      <point x="1224" y="219" type="curve" smooth="yes"/>
      <point x="1206" y="203"/>
      <point x="1188" y="194"/>
      <point x="1163" y="189" type="curve"/>
      <point x="1147" y="290"/>
      <point x="1077" y="451"/>
      <point x="989" y="451" type="curve" smooth="yes"/>
      <point x="882" y="451"/>
      <point x="771" y="213"/>
      <point x="771" y="125" type="curve" smooth="yes"/>
      <point x="771" y="20"/>
      <point x="882" y="-7"/>
      <point x="977" y="-7" type="curve" smooth="yes"/>
      <point x="1014" y="-7"/>
      <point x="1056" y="-1"/>
      <point x="1077" y="4" type="curve"/>
      <point x="1077" y="-51"/>
      <point x="1072" y="-136"/>
      <point x="1021" y="-193" type="curve" smooth="yes"/>
      <point x="915" y="-312"/>
      <point x="784" y="-380"/>
      <point x="612" y="-380" type="curve" smooth="yes"/>
      <point x="434" y="-380"/>
      <point x="244" y="-306"/>
      <point x="244" y="-122" type="curve" smooth="yes"/>
      <point x="244" y="29"/>
      <point x="365" y="178"/>
      <point x="365" y="190" type="curve" smooth="yes"/>
      <point x="365" y="202"/>
      <point x="352" y="218"/>
      <point x="341" y="218" type="curve"/>
      <point x="239" y="125"/>
      <point x="135" y="61"/>
      <point x="22" y="38" type="curve" smooth="yes"/>
      <point x="10" y="35"/>
      <point x="1" y="26"/>
      <point x="1" y="16" type="curve" smooth="yes"/>
      <point x="1" y="10"/>
      <point x="6" y="4"/>
      <point x="17" y="4" type="curve"/>
      <point x="109" y="6"/>
      <point x="184" y="29"/>
      <point x="249" y="70" type="curve"/>
      <point x="194" y="-25"/>
      <point x="167" y="-94"/>
      <point x="167" y="-225" type="curve" smooth="yes"/>
      <point x="167" y="-450"/>
      <point x="348" y="-576"/>
      <point x="516" y="-576" type="curve" smooth="yes"/>
      <point x="819" y="-576"/>
      <point x="970" y="-415"/>
      <point x="1080" y="-226" type="curve" smooth="yes"/>
      <point x="1118" y="-162"/>
      <point x="1148" y="-46"/>
      <point x="1157" y="22" type="curve"/>
      <point x="1180" y="30"/>
      <point x="1221" y="49"/>
      <point x="1250" y="78" type="curve" smooth="yes"/>
      <point x="1276" y="104"/>
      <point x="1305" y="154"/>
    </contour>
  </outline>
</glyph>
<glyph name="absPerMilleSign" format="2">
  <advance width="1021"/>
  <unicode hex="0609"/>
  <outline>
    <contour>
      <point x="729" y="1020" type="line"/>
      <point x="659" y="1020" type="line"/>
      <point x="174" y="-252" type="line"/>
      <point x="246" y="-252" type="line"/>
    </contour>
    <contour>
      <point x="293" y="885" type="curve" smooth="yes"/>
      <point x="293" y="898"/>
      <point x="164" y="994"/>
      <point x="143" y="1008" type="curve"/>
      <point x="134" y="979"/>
      <point x="96" y="845"/>
      <point x="96" y="822" type="curve" smooth="yes"/>
      <point x="96" y="802"/>
      <point x="231" y="722"/>
      <point x="256" y="711" type="curve"/>
      <point x="260" y="738"/>
      <point x="293" y="875"/>
    </contour>
    <contour>
      <point x="936" y="-47" type="curve" smooth="yes"/>
      <point x="936" y="-34"/>
      <point x="807" y="62"/>
      <point x="786" y="76" type="curve"/>
      <point x="777" y="47"/>
      <point x="739" y="-87"/>
      <point x="739" y="-110" type="curve" smooth="yes"/>
      <point x="739" y="-130"/>
      <point x="874" y="-210"/>
      <point x="899" y="-221" type="curve"/>
      <point x="903" y="-194"/>
      <point x="936" y="-57"/>
    </contour>
    <contour>
      <point x="693" y="-47" type="curve" smooth="yes"/>
      <point x="693" y="-34"/>
      <point x="564" y="62"/>
      <point x="543" y="76" type="curve"/>
      <point x="534" y="47"/>
      <point x="496" y="-87"/>
      <point x="496" y="-110" type="curve" smooth="yes"/>
      <point x="496" y="-130"/>
      <point x="631" y="-210"/>
      <point x="656" y="-221" type="curve"/>
      <point x="660" y="-194"/>
      <point x="693" y="-57"/>
    </contour>
  </outline>
</glyph>
<glyph name="perthousand-ar" format="2">
  <advance width="1480"/>
  <unicode hex="0609"/>
  <outline>
    <contour>
      <point x="1057" y="1479" type="line"/>
      <point x="956" y="1479" type="line"/>
      <point x="252" y="-365" type="line"/>
      <point x="357" y="-365" type="line"/>
    </contour>
    <contour>
      <point x="425" y="1283" type="curve" smooth="yes"/>
      <point x="425" y="1302"/>
      <point x="238" y="1441"/>
      <point x="207" y="1462" type="curve"/>
      <point x="194" y="1420"/>
      <point x="139" y="1225"/>
      <point x="139" y="1192" type="curve" smooth="yes"/>
      <point x="139" y="1163"/>
      <point x="335" y="1047"/>
      <point x="371" y="1031" type="curve"/>
      <point x="377" y="1070"/>
      <point x="425" y="1269"/>
    </contour>
    <contour>
      <point x="1357" y="-68" type="curve" smooth="yes"/>
      <point x="1357" y="-49"/>
      <point x="1170" y="90"/>
      <point x="1140" y="110" type="curve"/>
      <point x="1127" y="68"/>
      <point x="1072" y="-126"/>
      <point x="1072" y="-160" type="curve" smooth="yes"/>
      <point x="1072" y="-189"/>
      <point x="1267" y="-305"/>
      <point x="1304" y="-320" type="curve"/>
      <point x="1309" y="-281"/>
      <point x="1357" y="-83"/>
    </contour>
    <contour>
      <point x="1005" y="-68" type="curve" smooth="yes"/>
      <point x="1005" y="-49"/>
      <point x="818" y="90"/>
      <point x="787" y="110" type="curve"/>
      <point x="774" y="68"/>
      <point x="719" y="-126"/>
      <point x="719" y="-160" type="curve" smooth="yes"/>
      <point x="719" y="-189"/>
      <point x="915" y="-305"/>
      <point x="951" y="-320" type="curve"/>
      <point x="957" y="-281"/>
      <point x="1005" y="-83"/>
    </contour>
  </outline>
</glyph>
<glyph name="pertenthousand-ar" format="2">
  <advance width="1167"/>
  <unicode hex="060A"/>
  <outline>
    <contour>
      <point x="729" y="1020" type="line"/>
      <point x="659" y="1020" type="line"/>
      <point x="174" y="-252" type="line"/>
      <point x="246" y="-252" type="line"/>
    </contour>
    <contour>
      <point x="293" y="885" type="curve" smooth="yes"/>
      <point x="293" y="898"/>
      <point x="164" y="994"/>
      <point x="143" y="1008" type="curve"/>
      <point x="134" y="979"/>
      <point x="96" y="845"/>
      <point x="96" y="822" type="curve" smooth="yes"/>
      <point x="96" y="802"/>
      <point x="231" y="722"/>
      <point x="256" y="711" type="curve"/>
      <point x="260" y="738"/>
      <point x="293" y="875"/>
    </contour>
    <contour>
      <point x="874" y="-47" type="curve" smooth="yes"/>
      <point x="874" y="-34"/>
      <point x="745" y="62"/>
      <point x="724" y="76" type="curve"/>
      <point x="715" y="47"/>
      <point x="677" y="-87"/>
      <point x="677" y="-110" type="curve" smooth="yes"/>
      <point x="677" y="-130"/>
      <point x="812" y="-210"/>
      <point x="837" y="-221" type="curve"/>
      <point x="841" y="-194"/>
      <point x="874" y="-57"/>
    </contour>
    <contour>
      <point x="1104" y="-47" type="curve" smooth="yes"/>
      <point x="1104" y="-34"/>
      <point x="975" y="62"/>
      <point x="954" y="76" type="curve"/>
      <point x="945" y="47"/>
      <point x="907" y="-87"/>
      <point x="907" y="-110" type="curve" smooth="yes"/>
      <point x="907" y="-130"/>
      <point x="1042" y="-210"/>
      <point x="1067" y="-221" type="curve"/>
      <point x="1071" y="-194"/>
      <point x="1104" y="-57"/>
    </contour>
    <contour>
      <point x="644" y="-47" type="curve" smooth="yes"/>
      <point x="644" y="-34"/>
      <point x="515" y="62"/>
      <point x="494" y="76" type="curve"/>
      <point x="485" y="47"/>
      <point x="447" y="-87"/>
      <point x="447" y="-110" type="curve" smooth="yes"/>
      <point x="447" y="-130"/>
      <point x="582" y="-210"/>
      <point x="607" y="-221" type="curve"/>
      <point x="611" y="-194"/>
      <point x="644" y="-57"/>
    </contour>
  </outline>
</glyph>
<glyph name="absAfghaniSign" format="2">
  <advance width="571"/>
  <unicode hex="060B"/>
  <outline>
    <contour>
      <point x="514" y="274" type="curve" smooth="yes"/>
      <point x="514" y="426"/>
      <point x="397" y="584"/>
      <point x="340" y="584" type="curve" smooth="yes"/>
      <point x="262" y="584"/>
      <point x="207" y="375"/>
      <point x="207" y="334" type="curve" smooth="yes"/>
      <point x="207" y="270"/>
      <point x="223" y="213"/>
      <point x="305" y="213" type="curve" smooth="yes"/>
      <point x="383" y="213"/>
      <point x="415" y="274"/>
      <point x="436" y="317" type="curve"/>
      <point x="454" y="297"/>
      <point x="475" y="264"/>
      <point x="475" y="244" type="curve" smooth="yes"/>
      <point x="475" y="203"/>
      <point x="334" y="125"/>
      <point x="166" y="125" type="curve" smooth="yes"/>
      <point x="111" y="125"/>
      <point x="63" y="130"/>
      <point x="53" y="130" type="curve" smooth="yes"/>
      <point x="44" y="130"/>
      <point x="34" y="30"/>
      <point x="34" y="14" type="curve" smooth="yes"/>
      <point x="34" y="6"/>
      <point x="109" y="0"/>
      <point x="166" y="0" type="curve" smooth="yes"/>
      <point x="307" y="0"/>
      <point x="426" y="72"/>
      <point x="463" y="117" type="curve" smooth="yes"/>
      <point x="499" y="162"/>
      <point x="514" y="227"/>
    </contour>
    <contour>
      <point x="368" y="391" type="curve" smooth="yes"/>
      <point x="368" y="381"/>
      <point x="334" y="354"/>
      <point x="315" y="354" type="curve" smooth="yes"/>
      <point x="291" y="354"/>
      <point x="272" y="383"/>
      <point x="272" y="399" type="curve" smooth="yes"/>
      <point x="272" y="414"/>
      <point x="288" y="434"/>
      <point x="303" y="434" type="curve" smooth="yes"/>
      <point x="321" y="434"/>
      <point x="368" y="399"/>
    </contour>
    <component base="_dot1" xOffset="319" yOffset="768"/>
    <component base="absSubscriptAlef" xOffset="206"/>
  </outline>
</glyph>
